<?xml version="1.0" standalone="no"?><!DOCTYPE svg PUBLIC "-//W3C//DTD SVG 1.1//EN" "http://www.w3.org/Graphics/SVG/1.1/DTD/svg11.dtd"><svg t="1608362378830" class="icon" viewBox="0 0 1433 1024" version="1.1" xmlns="http://www.w3.org/2000/svg" p-id="10312" xmlns:xlink="http://www.w3.org/1999/xlink" width="279.8828125" height="200"><defs><style type="text/css"></style></defs><path d="M245.76 911.01184a417.20832 61.44 0 1 0 834.41664 0 417.20832 61.44 0 1 0-834.41664 0Z" fill="#E5EEFC" p-id="10313"></path><path d="M148.6848 748.0832h28.38528v47.3088H148.6848z" fill="#B3CCFF" p-id="10314"></path><path d="M165.25312 757.54496h54.40512l-27.20768-47.3088-27.19744-47.3088-27.20768 47.3088L110.83776 757.53472z" fill="#A8C4FC" p-id="10315"></path><path d="M162.87744 733.89056h47.3088l-23.6544-40.22272-23.6544-40.21248-23.6544 40.21248-23.6544 40.22272z" fill="#B9D1FF" p-id="10316"></path><path d="M165.24288 705.49504h40.22272l-20.11136-35.4816L165.24288 634.53184 145.14176 670.01344l-20.11136 35.49184z" fill="#CADDFD" p-id="10317"></path><path d="M1247.80544 789.12512h30.976v51.6096h-30.976z" fill="#B3CCFF" opacity=".577" p-id="10318"></path><path d="M1265.87904 799.44704h59.35104l-29.67552-51.6096-29.67552-51.6096-29.68576 51.6096-29.67552 51.6096z" fill="#A8C4FC" opacity=".577" p-id="10319"></path><path d="M1263.28832 773.64224h51.6096l-25.8048-43.8784-25.8048-43.86816-25.8048 43.86816-25.8048 43.8784z" fill="#B9D1FF" opacity=".577" p-id="10320"></path><path d="M1263.83104 747.83744h43.86816l-21.93408-38.7072-21.93408-38.71744-21.93408 38.7072-21.93408 38.7072z" fill="#CADDFD" opacity=".577" p-id="10321"></path><path d="M785.38752 803.1744a31.46752 13.25056 0 1 0 62.93504 0 31.46752 13.25056 0 1 0-62.93504 0Z" fill="#6C6969" p-id="10322"></path><path d="M798.63808 334.55104a28.16 28.16 0 0 0 0-56.30976c-15.55456 0-28.61056 1.90464-28.61056 29.04064s13.056 27.26912 28.61056 27.26912z" fill="#FADFC4" p-id="10323"></path><path d="M988.89728 164.7104L1242.48064 230.66624 1081.67168 902.37952 765.11232 798.34112l119.21408-134.35904-57.89696-277.6064z" fill="#82A8FF" p-id="10324"></path><path d="M965.24288 157.61408l253.58336 65.96608-160.80896 671.70304-316.5696-104.0384 119.22432-134.35904-57.89696-277.6064z" fill="#CEDEFF" p-id="10325"></path><path d="M1018.88 364.34944m-77.824 0a77.824 77.824 0 1 0 155.648 0 77.824 77.824 0 1 0-155.648 0Z" fill="#F7FAFF" p-id="10326"></path><path d="M785.72544 334.55104l12.67712 18.50368c10.5472-1.9456 15.8208-6.08256 15.8208-12.40064v-12.41088H785.72544v6.30784z" fill="#FADFC4" p-id="10327"></path><path d="M766.3104 286.52544v6.0928l3.71712 5.79584 28.37504-5.79584 15.8208-6.0928 12.56448 19.8656v15.53408c8.37632-20.49024 8.37632-35.05152 0-43.68384-12.56448-12.94336-25.2416-17.68448-41.0624-11.50976-10.5472 4.11648-17.01888 10.71104-19.41504 19.79392z" fill="#575757" p-id="10328"></path><path d="M736.39936 407.26528l-12.12416-10.5472 12.12416-33.10592s30.32064-19.07712 42.15808-22.95808c11.8272-3.8912-10.0864 8.9088 12.78976 12.40064 15.2576 2.33472 24.75008-0.512 28.47744-8.51968 20.736 0.89088 33.67936 9.85088 38.83008 26.85952 7.72096 25.51808 4.17792 62.01344-6.90176 62.01344h-31.92832c12.8 27.392 19.18976 46.3872 19.18976 56.9856 0 10.5984-1.97632 27.4432-5.9392 50.52416H770.01728L724.2752 528.81408l12.12416-121.5488z" fill="#FFFFFF" p-id="10329"></path><path d="M826.78784 540.91776v249.53856h-41.0624l-7.08608-249.5488" fill="#598CFF" p-id="10330"></path><path d="M851.75296 433.408l-29.5936 62.27968-92.24192-62.27968-11.1616-22.77376 5.51936-13.91616 5.632-5.50912c-4.31104 4.66944-4.31104 8.4992 0 11.53024 4.33152 3.01056 8.46848 8.33536 12.43136 15.96416l12.73856 14.70464 59.14624 26.9824 12.56448-36.28032 24.96512 9.29792z" fill="#FADFC4" p-id="10331"></path><path d="M298.33216 119.38816h508.42624L700.63104 358.58432 806.74816 629.06368l-78.39744 181.78048H298.33216z" fill="#82A8FF" p-id="10332"></path><path d="M274.67776 112.29184h508.416L676.98688 351.488 783.09376 621.96736l-78.39744 181.78048H274.67776z" fill="#CEDEFF" p-id="10333"></path><path d="M275.18976 699.8016L581.05856 363.60192l221.6448 259.9936-78.57152 180.15232-448.95232 2.36544zM1074.25792 831.87712L896.256 528.64l-57.4976 26.40896 21.01248 104.09984L740.7104 793.55904l316.17024 104.11008z" fill="#AEC7FF" p-id="10334" data-spm-anchor-id="a313x.7781069.0.i2"></path><path d="M839.43424 299.75552l7.4752 0.65536c4.06528 0.3584 7.08608-2.89792 7.54688-8.13056 0.45056-5.24288-1.95584-8.97024-6.03136-9.3184l-7.46496-0.65536c-1.24928-24.7296-15.872-45.3632-36.21888-47.13472-20.36736-1.78176-38.33856 15.98464-43.86816 40.13056l-7.46496-0.65536c-4.07552-0.3584-7.08608 2.89792-7.54688 8.13056-0.4608 5.23264 1.9456 8.96 6.02112 9.3184l87.552 7.65952z" fill="#FBEA34" p-id="10335"></path></svg>