<svg width="924" height="664" viewBox="0 0 924 664" fill="none" xmlns="http://www.w3.org/2000/svg">
<path d="M471.501 57L184.216 222.864C152.649 241.089 141.833 281.454 160.059 313.022L325.923 600.307C344.148 631.874 384.513 642.69 416.08 624.464L703.365 458.6C734.932 440.375 745.748 400.01 727.523 368.443L561.659 81.1577C543.433 49.5904 503.068 38.7746 471.501 57Z" fill="#F3F6FF"/>
<path d="M267.812 22L237.719 39.3741C232.936 42.1356 231.297 48.2515 234.059 53.0344L251.433 83.1273C254.194 87.9102 260.31 89.549 265.093 86.7876L295.186 69.4134C299.969 66.652 301.608 60.5361 298.846 55.7532L281.472 25.6602C278.711 20.8773 272.595 19.2386 267.812 22Z" fill="#F3F6FF"/>
<path d="M515.291 596L490.719 610.187C485.936 612.949 484.297 619.064 487.059 623.847L501.245 648.42C504.007 653.203 510.123 654.841 514.906 652.08L539.478 637.893C544.261 635.132 545.9 629.016 543.138 624.233L528.952 599.66C526.19 594.878 520.074 593.239 515.291 596Z" fill="#F3F6FF"/>
<path d="M279.726 594.165C284.191 610.388 300.961 619.92 317.184 615.455C333.406 610.99 342.938 594.22 338.473 577.997C334.009 561.774 317.238 552.243 301.015 556.707C284.793 561.172 275.261 577.943 279.726 594.165Z" fill="#FFE071"/>
<path d="M239.542 580.373L228.241 568.641C222.23 562.4 225.125 545.375 225.125 545.375L207.608 542.738L205.785 561.773L201.973 571.493L237.932 582.14L239.542 580.373Z" fill="#FFAE64"/>
<path d="M232.302 591.206L244.067 592.332C245.597 592.479 247.09 591.801 247.988 590.553C249.343 588.668 248.975 586.044 247.174 584.579C244.996 582.808 241.821 580.182 237.957 576.86C230.414 570.375 227.448 566.248 227.448 566.248C227.448 566.248 222.416 568.648 215.278 567.964C208.139 567.281 204.833 561.682 204.833 561.682C201.038 569.046 200.112 577.557 202.235 585.565L202.464 586.427L216.173 588.7L218.735 587.024L224.857 589.426C227.244 590.362 229.749 590.961 232.302 591.206Z" fill="#2C2770"/>
<path d="M198.918 556.198L186.559 435C190.422 416.938 196.93 406.684 206.083 404.236C215.236 401.789 221.801 406.434 225.778 418.171L229.192 556.198L198.918 556.198Z" fill="#2C2770"/>
<path d="M224.851 648.346L211.483 640.417C204.371 636.199 202.72 619.804 202.72 619.804L185.938 621.815L189.084 639.788L188.04 649.696L223.818 650.379L224.851 648.346Z" fill="#FFAE64"/>
<path d="M220.935 660.146L232.044 658.201C233.489 657.948 234.69 656.947 235.2 655.571C235.97 653.493 234.966 651.173 232.937 650.282C230.485 649.204 226.899 647.593 222.503 645.515C213.921 641.461 210.146 638.417 210.146 638.417C210.146 638.417 206.125 641.899 199.385 643.079C192.645 644.259 188.186 639.945 188.186 639.945C186.559 647.682 187.864 655.746 191.847 662.575L192.275 663.31L205.463 661.928L207.395 659.737L213.635 660.395C216.068 660.651 218.525 660.568 220.935 660.146Z" fill="#2C2770"/>
<path d="M214.856 630.822L181.565 635.998L158.719 516.845L91.0529 456.958C84.9562 451.562 80.2693 444.759 77.3996 437.14L66.1794 407.351L129.548 385.493L182.059 395.5L208.952 402.223C224.292 406.058 228.714 425.733 216.49 435.763L153.014 445.107L194.402 491.087C196.446 493.358 197.748 496.2 198.133 499.231L214.856 630.822Z" fill="#2C2770"/>
<path d="M79.5588 421L141.059 490L171.559 523L190.559 634.5" stroke="white"/>
<path d="M152.559 444L192.555 433.023L198.843 496.306" stroke="white"/>
<path d="M144.059 504L127.059 532" stroke="white"/>
<path d="M44.9127 460.487C27.8157 423.031 25.6507 360.972 28.5797 333.798C31.3767 332.591 37.0797 331.506 40.0807 331.999C29.8067 380.825 46.3547 437.983 55.9127 460.458L44.9127 460.487Z" fill="#BC9F38"/>
<path d="M21.8875 340.559L36.9328 325.411L71.5968 305C84.0078 297.692 99.1678 296.767 112.376 302.511L134.784 312.256L125.587 338.023L108.763 334.762L136.814 376.158C140.051 380.936 138.583 387.456 133.609 390.384L76.2458 424.161C72.2808 426.495 67.1698 425.013 65.0688 420.919L49.2758 390.141L49.9748 405.711L24.4678 414.423L12.9666 376.335C9.14407 363.676 12.5691 349.941 21.8875 340.559Z" fill="#0B86DF"/>
<path d="M183.571 266.635L134.274 313.356L125.317 338.376C135.241 341.567 146.099 338.171 152.436 329.894L194.193 275.359L213.072 271.618L226.771 272.435C227.271 272.464 227.643 271.978 227.483 271.503C227.111 270.397 226.216 269.545 225.093 269.228L197.838 261.526L199.067 258.636C200.068 256.282 200.58 253.749 200.573 251.191C200.571 250.421 199.633 250.043 199.097 250.596L183.571 266.635Z" fill="#FF9330"/>
<path d="M17.2024 289.807C8.06726 283.598 5.69556 271.159 11.905 262.024L17.5976 253.649C23.8068 244.514 36.2458 242.142 45.3818 248.352L51.7528 252.683L23.5738 294.138L17.2024 289.807Z" fill="#FFE071"/>
<path d="M52.6699 283.898C66.4911 265.856 71.507 246.489 63.8732 240.641C56.2394 234.793 38.8467 244.678 25.0255 262.72C11.2043 280.762 6.1884 300.129 13.8222 305.977C21.456 311.825 38.8487 301.94 52.6699 283.898Z" fill="#BC9F38"/>
<path d="M39.1098 318.824C39.8638 313.826 36.0658 299.052 34.0728 292.29C42.8128 291.841 60.5678 293.649 61.6688 304.477C62.7688 315.306 67.2348 317.027 69.3298 316.534C72.7798 320.944 76.7288 331.062 64.9228 336.251C53.1158 341.439 40.2388 333.02 35.2758 328.162C36.2398 327.132 38.3558 323.822 39.1098 318.824Z" fill="#FF9330"/>
<path d="M20.7954 283.92C18.4836 287.547 25.5817 298.1 31.7867 302.117L45.0427 296.774C49.5877 294.942 57.8697 284.902 61.4417 280.11C65.3377 276.12 74.1607 266.606 67.9637 263.517L64.1547 262.259C69.3627 247.871 61.1657 249.381 50.1687 252.137L43.1867 253.872C35.3027 257.049 20.1432 276.951 20.7954 283.92Z" fill="#2C2770"/>
<mask id="mask0" mask-type="alpha" maskUnits="userSpaceOnUse" x="34" y="292" width="39" height="46">
<path d="M39.4138 318.744C40.1698 313.805 36.4168 299.215 34.4468 292.537C43.1288 292.082 60.7628 293.844 61.8418 304.54C62.9198 315.237 67.3538 316.931 69.4358 316.441C72.8578 320.794 76.7658 330.785 65.0308 335.927C53.2958 341.068 40.5158 332.768 35.5928 327.975C36.5518 326.956 38.6578 323.683 39.4138 318.744Z" fill="white"/>
</mask>
<g mask="url(#mask0)">
<path d="M63.8288 323.264C44.9788 326.532 34.0648 311.424 30.9648 303.461L60.2488 311.296C69.2968 313.923 82.6798 319.995 63.8288 323.264Z" fill="#D76767"/>
</g>
<path d="M35.5546 306.259C37.6036 312.366 49.2456 320.278 62.3296 314.375C69.9686 310.929 68.3516 301.26 66.3886 290.681C64.9886 283.141 64.6616 274.634 61.7146 269.877L48.4796 270.799C50.9496 272.325 55.4536 274.291 50.1316 276.435C44.8666 278.557 39.1896 278.955 36.5826 278.115C38.1406 285.05 33.1326 286.437 34.4436 289.69L38.1586 298.907C34.0766 301.057 31.6626 297.114 30.9656 294.873C28.7556 294.504 24.9016 295.174 27.1746 300.813C29.4466 306.452 33.7076 306.793 35.5546 306.259Z" fill="#FF9330"/>
<path d="M52.8638 302.43L59.9808 303.005C59.8988 304.022 58.9878 305.667 56.6838 305.809C54.3808 305.95 53.2908 303.898 52.8638 302.43Z" fill="white"/>
<path d="M58.3946 279.546L62.6255 277.841C63.3265 277.558 64.1238 277.897 64.4063 278.598C64.6888 279.299 64.3496 280.097 63.6486 280.379L59.4177 282.084C58.7167 282.367 57.9194 282.027 57.6369 281.326C57.3544 280.625 57.6936 279.828 58.3946 279.546Z" fill="#2C2770"/>
<path d="M41.4715 286.366L45.7024 284.661C46.4034 284.378 47.2007 284.717 47.4832 285.418C47.7657 286.119 47.4265 286.917 46.7255 287.199L42.4946 288.904C41.7936 289.187 40.9963 288.847 40.7138 288.146C40.4313 287.445 40.7705 286.648 41.4715 286.366Z" fill="#2C2770"/>
<path d="M49.1002 291.636C48.3992 291.919 47.6019 291.58 47.3194 290.879C47.0369 290.178 47.3762 289.38 48.0772 289.098C48.7782 288.815 49.5755 289.155 49.858 289.856C50.1405 290.556 49.8012 291.354 49.1002 291.636Z" fill="black"/>
<path d="M54.4226 283.113L60.5616 298.345L56.7536 299.879" stroke="black"/>
<path d="M64.1685 288.542C67.242 287.303 68.7295 283.808 67.4908 280.734C66.2522 277.661 62.7565 276.173 59.683 277.412C56.6095 278.651 55.122 282.146 56.3607 285.22C57.5993 288.293 61.095 289.781 64.1685 288.542Z" stroke="black"/>
<path d="M49.3275 294.523C52.401 293.284 53.8884 289.789 52.6498 286.715C51.4111 283.642 47.9154 282.154 44.8419 283.393C41.7684 284.632 40.281 288.127 41.5196 291.201C42.7583 294.274 46.254 295.762 49.3275 294.523Z" stroke="black"/>
<path d="M41.7066 291.665L28.7146 294.205" stroke="black"/>
<path d="M63.0133 286.029C62.3123 286.312 61.515 285.973 61.2325 285.272C60.95 284.571 61.2893 283.773 61.9903 283.491C62.6913 283.208 63.4885 283.548 63.771 284.249C64.0536 284.95 63.7143 285.747 63.0133 286.029Z" fill="black"/>
<path d="M69.0586 334L113.262 401.482" stroke="#54B7FF"/>
<path d="M108.72 428.163C110.801 387.042 90.2086 326.547 77.4646 302.368C74.4196 302.277 71.6666 304.936 69.0586 306.5C96.6126 348.098 99.0816 407.777 98.4846 432.193L108.72 428.163Z" fill="#FFE071"/>
<path d="M49.6907 405.593L38.3117 397.288L24.8987 413.164L29.5517 420.384C37.1187 432.127 53.5737 433.934 63.5097 424.113L100.05 387.995L105.016 382.931C105.163 382.781 105.298 382.619 105.419 382.448L110.64 375.108C110.7 375.023 110.755 374.932 110.802 374.838L117.19 362.073C117.522 361.409 117.433 360.611 116.963 360.036C116.112 358.997 114.479 359.156 113.844 360.34L109.185 369.03L112.928 354.61C113.072 354.059 112.901 353.473 112.484 353.085C111.671 352.329 110.351 352.647 109.971 353.689L105.858 364.965L108.779 347.52C108.892 346.847 108.624 346.166 108.084 345.749C107.07 344.969 105.59 345.428 105.196 346.644L100.282 361.81L101.744 346.874C101.844 345.854 101.258 344.89 100.306 344.51C99.0417 344.004 97.6167 344.7 97.2377 346.007L91.8637 364.533L90.3807 360.767C89.7417 359.144 88.6927 357.714 87.3367 356.617C86.7827 356.169 85.9567 356.57 85.9667 357.282L86.0977 366.803L84.4697 379.809L49.6907 405.593Z" fill="#FF9330"/>
<path d="M24.3486 414.418L20.2849 397.663L47.9406 392.403L49.9746 405.711L24.3486 414.418Z" fill="#0B86DF"/>
<path d="M28.5796 333.798L34.7566 324.918L59.5936 333.41L60.9306 343.631L28.5796 333.798Z" fill="#54B7FF"/>
<path d="M64.0586 313.5L66.5586 310L77.2876 323.757L69.9576 322.881L64.0586 313.5Z" fill="#54B7FF"/>
<path d="M42.1306 454.204C63.4046 446.366 108.195 428.195 108.195 428.195L125.412 471.928C127.436 477.067 124.91 482.873 119.771 484.896L72.3156 503.579C67.1766 505.602 61.3706 503.076 59.3476 497.937L42.1306 454.204Z" fill="#FFE071"/>
<path d="M119.306 485.079L98.6077 432.507L108.843 428.477L125.511 470.814C127.737 476.467 124.959 482.853 119.306 485.079Z" fill="#BC9F38"/>
<path d="M42.2288 453.091L59.0148 473.887L99.0258 458.135L98.9738 433.437" stroke="#BC9F38"/>
<path d="M80.7678 469.084C82.3094 468.477 83.0672 466.736 82.4602 465.194C81.8533 463.652 80.1115 462.895 78.5698 463.502C77.0281 464.108 76.2704 465.85 76.8773 467.392C77.4843 468.934 79.2261 469.691 80.7678 469.084Z" fill="#BC9F38"/>
<path d="M377.509 227.958L428.708 22.9773C432.294 8.62288 447.436 0.494988 461.334 5.46545L660.461 76.6825C672.995 81.1652 679.826 94.7142 675.996 107.495L607.202 337.053L452.673 461.188C429.819 479.546 398.142 482.154 372.61 467.778L211.812 377.242C195.333 367.963 194.695 344.404 210.648 334.242L377.509 227.958Z" fill="#A3B7FF"/>
<mask id="mask1" mask-type="alpha" maskUnits="userSpaceOnUse" x="199" y="4" width="479" height="473">
<path d="M377.979 227.975L429.233 23.0653C432.824 8.71587 447.981 0.590817 461.895 5.55955L661.238 76.7517C673.786 81.2329 680.624 94.7771 676.79 107.554L607.921 337.031L453.224 461.123C430.346 479.475 398.635 482.081 373.074 467.71L212.102 377.206C195.605 367.931 194.966 344.38 210.937 334.221L377.979 227.975Z" fill="white"/>
</mask>
<g mask="url(#mask1)">
<path d="M391.533 241.081L457.431 0.967773L677.557 69.3039L595.769 333.755L391.533 491.49L189.632 370.731L391.533 241.081Z" fill="#85A5FF"/>
<path d="M405.553 249.506L471.452 9.39282L691.579 77.7289L609.79 342.18L405.553 499.915L203.653 379.157L405.553 249.506Z" fill="#6B8CFF"/>
<path d="M228.99 403.622L438.826 264.752" stroke="black" stroke-width="0.6"/>
</g>
<path d="M645.059 101.401L487.49 46L436.059 234.738L588.484 300L645.059 101.401Z" fill="#A3B7FF"/>
<path d="M456.857 10L655.432 80.5617C668.02 85.0347 674.865 98.6496 670.965 111.456L603.311 333.59L450.28 455.415C429.117 472.263 399.936 474.734 376.255 461.684L204.059 366.79" stroke="black" stroke-width="0.6" stroke-dasharray="1.2 1.2"/>
<path d="M254.83 277.52L406.735 251L608.059 335.814V338.625L480.831 374.404C451.193 382.739 419.519 379.663 392.026 365.778L252.222 295.183C244.155 291.109 245.932 279.073 254.83 277.52Z" fill="#9FB8FF"/>
<path d="M254.83 273.52L406.735 247L608.059 334.625L480.831 370.404C451.193 378.739 419.519 375.663 392.026 361.778L252.222 291.183C244.155 287.109 245.932 275.073 254.83 273.52Z" fill="#B9CBFF"/>
<path d="M448.059 266L270.059 300" stroke="white" stroke-width="1.2"/>
<path d="M477.059 278L297.059 313" stroke="white" stroke-width="1.2"/>
<path d="M265.059 108H109.059C105.193 108 102.059 111.134 102.059 115V218C102.059 221.866 105.193 225 109.059 225H265.059C268.925 225 272.059 221.866 272.059 218V115C272.059 111.134 268.925 108 265.059 108Z" fill="white" stroke="#E5E5E5" stroke-width="2"/>
<path d="M129.559 149C134.253 149 138.059 145.194 138.059 140.5C138.059 135.806 134.253 132 129.559 132C124.864 132 121.059 135.806 121.059 140.5C121.059 145.194 124.864 149 129.559 149Z" fill="#A3B7FF"/>
<path d="M139.059 187H122.059V211H139.059V187Z" fill="#5FFFD8"/>
<path d="M139.059 170H122.059V194H139.059V170Z" fill="#1BE3B3"/>
<path d="M168.059 190H151.059V212H168.059V190Z" fill="#5FFFD8"/>
<path d="M168.059 180H151.059V200H168.059V180Z" fill="#1BE3B3"/>
<path d="M197.059 176H180.059V212H197.059V176Z" fill="#5FFFD8"/>
<path d="M197.059 163H180.059V187H197.059V163Z" fill="#1BE3B3"/>
<path d="M226.059 176H209.059V212H226.059V176Z" fill="#5FFFD8"/>
<path d="M226.059 145H209.059V181H226.059V145Z" fill="#1BE3B3"/>
<path d="M255.059 176H238.059V212H255.059V176Z" fill="#5FFFD8"/>
<path d="M255.059 156H238.059V192H255.059V156Z" fill="#1BE3B3"/>
<path d="M515.059 12.9999C515.059 5.82028 520.879 0 528.059 0H593.058C600.238 0 606.059 5.82028 606.059 12.9999V104C606.059 111.179 600.238 117 593.058 117H528.059C520.879 117 515.059 111.179 515.059 104V12.9999Z" fill="#DAE2FF"/>
<mask id="mask2" mask-type="alpha" maskUnits="userSpaceOnUse" x="528" y="61" width="41" height="41">
<path d="M548.438 101.762C559.564 101.762 568.584 92.7424 568.584 81.6154C568.584 70.4893 559.564 61.4695 548.438 61.4695C537.311 61.4695 528.292 70.4893 528.292 81.6154C528.292 92.7424 537.311 101.762 548.438 101.762ZM548.438 94.8546C555.749 94.8546 561.677 88.9271 561.677 81.6154C561.677 74.3042 555.749 68.3768 548.438 68.3768C541.126 68.3768 535.199 74.3042 535.199 81.6154C535.199 88.9271 541.126 94.8546 548.438 94.8546Z" fill="white"/>
</mask>
<g mask="url(#mask2)">
<path d="M548.438 101.762C559.564 101.762 568.584 92.742 568.584 81.6155C568.584 70.489 559.564 61.4692 548.438 61.4692C537.311 61.4692 528.292 70.489 528.292 81.6155C528.292 92.742 537.311 101.762 548.438 101.762Z" fill="#FAFAFA"/>
</g>
<mask id="mask3" mask-type="alpha" maskUnits="userSpaceOnUse" x="528" y="61" width="41" height="41">
<path d="M548.438 101.762C559.564 101.762 568.584 92.7424 568.584 81.6154C568.584 70.4893 559.564 61.4695 548.438 61.4695C537.311 61.4695 528.292 70.4893 528.292 81.6154C528.292 92.7424 537.311 101.762 548.438 101.762ZM548.438 94.8546C555.749 94.8546 561.677 88.9271 561.677 81.6154C561.677 74.3042 555.749 68.3768 548.438 68.3768C541.126 68.3768 535.199 74.3042 535.199 81.6154C535.199 88.9271 541.126 94.8546 548.438 94.8546Z" fill="white"/>
</mask>
<g mask="url(#mask3)">
<path d="M568.584 81.6154C568.584 77.6308 567.402 73.7361 565.189 70.4231C562.975 67.1101 559.829 64.5278 556.147 63.003C552.466 61.4782 548.415 61.0793 544.507 61.8566C540.599 62.6339 537.01 64.5526 534.192 67.3702C531.375 70.1877 529.456 73.7774 528.679 77.6855C527.901 81.5934 528.3 85.644 529.825 89.3257C531.35 93.0066 533.932 96.1529 537.245 98.3669C540.558 100.58 544.453 101.762 548.438 101.762V81.6154H568.584Z" fill="#FF8282"/>
</g>
<path d="M528.059 39.5C528.059 38.6716 528.741 38 529.582 38H558.535C559.376 38 560.059 38.6716 560.059 39.5C560.059 40.3284 559.376 41 558.535 41H529.582C528.741 41 528.059 40.3284 528.059 39.5Z" fill="white"/>
<path d="M528.059 48.5C528.059 47.6716 528.758 47 529.621 47H551.496C552.359 47 553.059 47.6716 553.059 48.5C553.059 49.3284 552.359 50 551.496 50H529.621C528.758 50 528.059 49.3284 528.059 48.5Z" fill="white"/>
<path d="M591.059 16H530.059C528.954 16 528.059 16.8954 528.059 18V27C528.059 28.1046 528.954 29 530.059 29H591.059C592.163 29 593.059 28.1046 593.059 27V18C593.059 16.8954 592.163 16 591.059 16Z" fill="#FF8282"/>
<path d="M891.542 610.397L893.576 594.988C894.658 586.79 882.793 575.355 882.793 575.355L894.751 563.41L906.931 576.995L915.363 582.3L893.779 610.842L891.542 610.397Z" fill="#FFAE64"/>
<path d="M894.658 608.546L912.482 581.82C916.187 581.827 919.513 584.094 920.874 587.54L923.444 594.047L914.204 603.557L911.393 601.789L908.062 608.171C906.687 610.804 904.849 613.17 902.637 615.153L894.807 622.173C893.735 623.134 892.234 623.453 890.864 623.012C888.749 622.33 887.58 620.071 888.244 617.951L892.912 603.042L891.975 607.413C891.785 608.303 892.435 609.153 893.344 609.203C893.867 609.232 894.367 608.982 894.658 608.546Z" fill="#2C2770"/>
<path d="M880.602 492.739L871.414 480.202C866.527 473.533 850.048 473.48 850.048 473.48L850.423 456.582L868.617 457.971L878.376 455.971L882.525 491.513L880.602 492.739Z" fill="#FFAE64"/>
<path d="M881.572 489.247L875.963 457.616C878.644 455.059 882.614 454.396 885.98 455.944L892.337 458.866L892.24 472.126L888.987 472.792L890.994 479.706C891.823 482.559 892.131 485.538 891.905 488.501L891.104 498.987C890.995 500.422 890.131 501.691 888.837 502.319C886.838 503.29 884.431 502.467 883.444 500.476L876.505 486.479L878.851 490.284C879.329 491.059 880.387 491.223 881.078 490.63C881.476 490.289 881.664 489.763 881.572 489.247Z" fill="#2C2770"/>
<path d="M880.559 584.755L898.559 568.256L822.766 474.065L818.072 383.826C817.649 375.696 815.247 367.791 811.075 360.8L794.762 333.466L738.188 369.419L713.303 416.73L701.81 441.956C695.253 456.345 707.889 472.06 723.35 468.746L770.203 424.913L778.401 474.029C780.192 484.758 785.432 494.609 793.327 502.09L880.559 584.755Z" fill="#2C2770"/>
<path d="M855.059 455.755L740.405 437.649L715.62 469.275L858.059 480.755L855.059 455.755Z" fill="#2C2770"/>
<path d="M808.811 397.138L813.311 478.638L894.311 572.138" stroke="white"/>
<path d="M768.811 416.638L741.811 444.138L775.311 448.638" stroke="white"/>
<path d="M854.811 458.638L821.311 454.638" stroke="white"/>
<path d="M787.915 247.278L766.572 246.77L722.218 257.291C710.996 259.952 699.29 259.8 688.142 256.847L684.008 255.752L681.323 291.276L715.395 304.647L738.558 341.256L733.645 358.173C730.046 370.564 741.021 382.289 753.622 379.518L799.882 369.343C804.8 368.261 807.507 362.961 805.501 358.342L796.559 337.755L802.497 302.012L812.836 313.978L837.21 302.347L819.128 266.906C813.118 255.128 801.135 247.592 787.915 247.278Z" fill="#FFE071"/>
<path d="M765.378 242.357C762.467 238.225 759.252 223.314 758.008 216.375C749.991 219.884 734.922 229.446 738.784 239.622C742.646 249.799 739.422 253.336 737.327 253.833C736.216 259.321 737.212 270.137 750.092 269.493C762.973 268.849 770.721 255.558 772.985 248.992C771.662 248.502 768.289 246.489 765.378 242.357Z" fill="#FFAE64"/>
<path d="M779.569 216.256C778.037 224.424 767.088 237.047 759.586 232.497L748.346 227.498C744.492 225.784 737.674 216.894 734.746 212.664C731.517 209.113 735.378 214.197 733.058 204.756C730.738 195.315 736.931 184.528 745.969 181.515C772.565 172.65 784.62 189.321 779.569 216.256Z" fill="#2C2770"/>
<path d="M791.059 214.755C782.222 214.755 775.059 207.592 775.059 198.755C775.059 189.918 782.222 182.755 791.059 182.755C799.895 182.755 807.059 189.918 807.059 198.755C807.059 207.592 799.895 214.755 791.059 214.755Z" fill="#2C2770"/>
<mask id="mask4" mask-type="alpha" maskUnits="userSpaceOnUse" x="737" y="216" width="37" height="54">
<path d="M765.312 241.607C762.293 237.626 758.635 223.012 757.184 216.203C749.334 219.942 734.674 229.898 738.826 239.815C742.977 249.732 739.888 253.335 737.824 253.897C736.892 259.354 738.219 270 750.986 268.925C763.753 267.849 771.029 254.46 773.072 247.9C771.743 247.461 768.331 245.588 765.312 241.607Z" fill="white"/>
</mask>
<g mask="url(#mask4)">
<path d="M746.751 249.609C759.443 238.609 755.859 223.981 752.481 218.042L741.067 241.404C737.673 248.722 734.059 260.609 746.751 249.609Z" fill="#D76767"/>
</g>
<path d="M762.558 233.256C760.295 239.286 747.505 247.885 734.638 241.523C727.126 237.808 729.083 228.202 731.42 217.7C733.085 210.213 733.87 200.938 736.058 197.256L747.058 195.756C747.058 195.756 749.316 207.924 754.558 210.256C761.683 213.425 757.366 218.299 768.558 227.256C769.558 231.756 764.384 233.855 762.558 233.256Z" fill="#FFAE64"/>
<path d="M744.521 229.921L737.388 230.243C737.434 231.262 738.286 232.939 740.583 233.162C742.88 233.385 744.042 231.372 744.521 229.921Z" fill="white"/>
<path d="M739.802 206.854L735.634 205C734.944 204.693 734.135 205.004 733.828 205.694C733.521 206.385 733.831 207.194 734.522 207.501L738.69 209.355C739.38 209.662 740.189 209.351 740.496 208.66C740.803 207.97 740.493 207.161 739.802 206.854Z" fill="#2C2770"/>
<path d="M756.474 214.269L752.306 212.415C751.615 212.108 750.807 212.419 750.5 213.109C750.192 213.8 750.503 214.609 751.194 214.916L755.362 216.77C756.052 217.077 756.861 216.766 757.168 216.075C757.475 215.385 757.165 214.576 756.474 214.269Z" fill="#2C2770"/>
<path d="M751.008 219.825C751.698 220.133 752.507 219.822 752.814 219.131C753.121 218.441 752.81 217.632 752.12 217.325C751.429 217.018 750.62 217.328 750.313 218.019C750.006 218.709 750.317 219.518 751.008 219.825Z" fill="black"/>
<path d="M743.646 210.561L736.972 225.565L740.723 227.233" stroke="black"/>
<path d="M735.169 212.781C735.859 213.089 736.668 212.778 736.975 212.087C737.282 211.397 736.971 210.588 736.281 210.281C735.59 209.974 734.782 210.284 734.474 210.975C734.167 211.665 734.478 212.474 735.169 212.781Z" fill="black"/>
<path d="M812.223 314.565L837.743 302.186L818.657 266.14C812.352 254.232 800.072 246.693 786.6 246.46L772.91 246.222L765.059 268.255C762.315 270.805 755.915 291.993 756.971 306.755C758.291 325.208 762.528 390.885 776.557 402.36C786.327 410.35 806.452 395.746 825.276 388.767C828.475 387.58 829.418 383.017 826.919 380.693C814.827 369.451 808.033 356.378 803.283 343.755C797.362 328.022 804.648 314.705 803.283 303.404L812.223 314.565Z" fill="#0B86DF"/>
<path d="M626.271 193.142L624.445 164.258C624.228 160.812 624.359 159.706 621.985 157.198L617.196 152.14C616.569 151.477 615.465 151.706 615.152 152.563C614.207 155.154 614.597 158.043 616.194 160.292L617.88 164.258L617.196 171.454L613.743 164.979C612.61 162.854 608.795 159.107 606.592 158.136L603.086 156.589C601.91 156.071 600.706 157.26 601.209 158.443L601.764 159.744C602.173 160.705 602.83 161.54 603.668 162.163C606.085 163.958 609.847 168.56 610.685 171.451L612.209 176.716L608.969 173.311C607.087 171.333 601.451 166.364 598.962 165.241L598.38 164.979C597.485 164.575 596.499 165.32 596.642 166.29L596.7 166.684C596.863 167.795 597.415 168.811 598.257 169.553C599.161 170.349 606.592 175.64 607.38 181.64L598.862 176.955C598.113 176.543 597.177 176.951 596.969 177.781C596.616 179.194 597.193 180.675 598.38 181.52C601.421 183.685 606.833 187.83 606.592 189.753C605.974 194.691 607.338 198.64 612.209 201.14L639.489 254.068C647.114 268.864 660.204 280.107 675.982 285.411L683.079 287.797L685.059 258.839L672.521 253.449L626.271 193.142Z" fill="#FFAE64"/>
<path d="M609.405 170.75L619.671 175.181L625.32 192.735L616.948 193.375C614.266 192.973 608.891 194.902 608.58 192.122C608.19 188.647 620.622 181.732 612.885 178.865C609.414 177.578 607.442 175.364 606.391 173.256C605.444 171.357 607.457 169.909 609.405 170.75Z" fill="#FFAE64"/>
<path d="M624.38 190.64L621.118 178.681C620.343 175.838 618.216 173.561 615.434 172.593L608.857 170.306C608.565 170.204 608.241 170.279 608.022 170.497C606.684 171.835 606.97 174.075 608.6 175.034L613.88 178.14C613.046 181.473 611.88 189.04 613.88 192.64" stroke="black"/>
<path d="M741.558 330.256C740.072 304.621 731.14 266.115 735.843 253.567C710.38 261.824 691.909 258.656 683.186 255.138L680.38 291.119L714.768 303.847C712.058 323.756 727.596 329.375 728.058 344.256C728.434 356.343 728.874 377.653 722.058 388.256C715.84 397.929 724.209 401.003 737.771 402.525C751.333 404.048 743.416 362.3 741.558 330.256Z" fill="#0B86DF"/>
<path d="M767.511 337.3L739.36 296.077C738.767 295.209 737.604 294.948 736.697 295.48L706.28 313.303C705.264 313.898 704.98 315.238 705.666 316.194L734.808 356.836C735.41 357.675 736.553 357.918 737.445 357.396L766.871 340.153C767.87 339.567 768.165 338.257 767.511 337.3Z" fill="#2C2770"/>
<path d="M772.184 316.481L814.559 317.255L812.559 313.755L837.421 301.559L844.765 321.675C848.023 330.6 840.92 339.891 831.453 339.087L772.504 334.078L765.749 336.242C765.549 336.306 765.345 336.354 765.137 336.386L756.195 337.761C756.118 337.773 756.041 337.791 755.967 337.816L743.481 341.918C742.447 342.257 741.322 341.759 740.879 340.765C740.402 339.694 740.883 338.438 741.954 337.961L751.456 333.726L739.355 336.384C738.455 336.582 737.556 336.048 737.298 335.163C737.042 334.283 737.507 333.354 738.365 333.033L749.318 328.928L736.255 330.093C735.216 330.186 734.276 329.478 734.078 328.454C733.875 327.405 734.519 326.378 735.552 326.103L749.002 322.53L735.01 323.495C733.648 323.588 732.523 322.445 732.64 321.085C732.724 320.097 733.452 319.284 734.424 319.092L752.199 315.569L748.025 309.661L759.788 310.119C761.149 310.172 762.473 310.571 763.636 311.279L772.184 316.481Z" fill="#FFAE64"/>
<path d="M660.059 477H510.059C506.193 477 503.059 480.134 503.059 484V559C503.059 562.866 506.193 566 510.059 566H660.059C663.925 566 667.059 562.866 667.059 559V484C667.059 480.134 663.925 477 660.059 477Z" fill="white" stroke="#E5E5E5" stroke-width="2"/>
<path d="M550.059 517H576.059C575.108 502.538 563.985 490.986 550.059 490V517Z" fill="#1BE3B3"/>
<path d="M573.525 541C577.822 536.464 580.6 530.544 581.059 524H556.059L573.525 541Z" fill="#FFAE64"/>
<path d="M545.83 520.965V490C530.876 491.029 519.059 503.598 519.059 518.962C519.059 534.999 531.933 548 547.813 548C554.744 548 561.096 545.518 566.059 541.392L545.83 520.965Z" fill="#FF8282"/>
<path d="M639.059 529H595.059V537H639.059V529Z" fill="#A3B7FF"/>
<path d="M627.059 515H594.059V523H627.059V515Z" fill="#A3B7FF"/>
<path d="M657.059 500H595.059V508H657.059V500Z" fill="#A3B7FF"/>
</svg>
