<?xml version="1.0" encoding="utf-8"?>
<!-- Generator: Adobe Illustrator 23.1.0, SVG Export Plug-In . SVG Version: 6.00 Build 0)  -->
<svg version="1.1" xmlns="http://www.w3.org/2000/svg" xmlns:xlink="http://www.w3.org/1999/xlink" x="0px" y="0px"
	 viewBox="0 0 1200 1200" style="enable-background:new 0 0 1200 1200;" xml:space="preserve">
<style type="text/css">
	.st0{fill:#F3F6FA;}
	.st1{fill:#D4F1F3;}
	.st2{fill:#C7D8FD;}
	.st3{fill:#FABBD8;}
	.st4{fill:#FCE088;}
	.st5{fill:#6179EF;}
	.st6{fill:#F1F6FF;}
	.st7{fill:#D0E2FF;}
	.st8{fill:url(#SVGID_1_);}
	.st9{opacity:0.19;fill:#0B1066;}
	.st10{fill:#99A2EB;}
	.st11{fill:#FFFFFF;}
	.st12{fill:#B4D1FF;}
	.st13{fill:#F2F5F9;}
	.st14{fill:none;stroke:#F5634A;stroke-miterlimit:10;}
	.st15{fill:#FFFFFF;stroke:#F5634A;stroke-miterlimit:10;}
	.st16{fill:url(#SVGID_2_);}
	.st17{fill:#856CF2;}
	.st18{fill:#F9BC00;}
	.st19{fill:#F16261;}
	.st20{fill:url(#SVGID_3_);}
	.st21{fill:url(#SVGID_4_);}
	.st22{fill:#DEE8FF;}
	.st23{fill:#B0CAE0;}
	.st24{fill:#53C8CE;}
	.st25{fill:#E5ECF5;}
	.st26{fill:#FACA00;}
	.st27{opacity:0.19;}
	.st28{fill:#0B1066;}
	.st29{fill:#5DD777;}
	.st30{fill:url(#SVGID_5_);}
	.st31{fill:#F5634A;}
	.st32{fill:url(#SVGID_6_);}
	.st33{fill:#FBD72A;}
	.st34{fill:url(#SVGID_7_);}
	.st35{fill:#B6D2FF;}
	.st36{fill:#F56463;}
	.st37{fill:#FDEBE5;}
	.st38{fill:#F9D62B;}
	.st39{fill:#FEFFF9;}
	.st40{fill:#1D2088;}
	.st41{fill:url(#SVGID_8_);}
	.st42{fill:#8E74F3;}
	.st43{fill:#F66463;}
	.st44{fill:#2C6FFF;}
	.st45{fill:#EFB594;}
	.st46{fill:#241F4B;}
	.st47{fill:#2942C5;}
	.st48{fill:url(#SVGID_9_);}
	.st49{fill:#150B48;}
	.st50{fill:#423566;}
	.st51{fill:#FBCFBC;}
	.st52{fill:#E04034;}
	.st53{fill:url(#SVGID_10_);}
	.st54{fill:#C1DEFF;}
	.st55{fill:#193C87;}
	.st56{fill:#E5E6EB;}
	.st57{fill:#D1AA05;}
	.st58{fill:url(#SVGID_11_);}
	.st59{fill:#9175F5;}
	.st60{fill:#8AAAFF;}
	.st61{fill:url(#SVGID_12_);}
	.st62{fill:#10224F;}
	.st63{fill:#211D42;}
	.st64{fill:#322D76;}
	.st65{fill:#E84538;}
	.st66{fill:url(#SVGID_13_);}
	.st67{fill:#222220;}
	.st68{fill:url(#SVGID_14_);}
	.st69{fill:#5B9BFD;}
	.st70{fill:#EC6941;}
	.st71{fill:#EB3F17;}
	.st72{fill:#E59A05;}
	.st73{fill:#1A96CF;}
	.st74{fill:#193D9D;}
	.st75{fill:#365ECE;}
	.st76{fill:url(#SVGID_15_);}
	.st77{fill:url(#SVGID_16_);}
	.st78{fill:#F385B5;}
	.st79{fill:#E26DA5;}
	.st80{fill:url(#SVGID_17_);}
	.st81{fill:#2A5CD0;}
	.st82{fill:#F7F8F8;}
	.st83{fill:url(#SVGID_18_);}
	.st84{fill:url(#SVGID_19_);}
	.st85{fill:#DCE7FF;}
	.st86{fill:#3970FF;}
	.st87{fill:url(#SVGID_20_);}
	.st88{fill:#FCBD1F;}
	.st89{clip-path:url(#SVGID_22_);fill:#718BEA;}
	.st90{clip-path:url(#SVGID_22_);fill:#708AEA;}
	.st91{clip-path:url(#SVGID_22_);fill:#6F89EB;}
	.st92{clip-path:url(#SVGID_22_);fill:#6E88EB;}
	.st93{clip-path:url(#SVGID_22_);fill:#6D87EB;}
	.st94{clip-path:url(#SVGID_22_);fill:#6C86EB;}
	.st95{clip-path:url(#SVGID_22_);fill:#6B85EC;}
	.st96{clip-path:url(#SVGID_22_);fill:#6A84EC;}
	.st97{clip-path:url(#SVGID_22_);fill:#6983EC;}
	.st98{clip-path:url(#SVGID_22_);fill:#6981ED;}
	.st99{clip-path:url(#SVGID_22_);fill:#6880ED;}
	.st100{clip-path:url(#SVGID_22_);fill:#677FED;}
	.st101{clip-path:url(#SVGID_22_);fill:#667EEE;}
	.st102{clip-path:url(#SVGID_22_);fill:#657DEE;}
	.st103{clip-path:url(#SVGID_22_);fill:#647CEE;}
	.st104{clip-path:url(#SVGID_22_);fill:#637BEE;}
	.st105{clip-path:url(#SVGID_22_);fill:#627AEF;}
	.st106{clip-path:url(#SVGID_22_);fill:#6179EF;}
	.st107{clip-path:url(#SVGID_24_);fill:#718BEA;}
	.st108{clip-path:url(#SVGID_24_);fill:#708AEA;}
	.st109{clip-path:url(#SVGID_24_);fill:#6F89EB;}
	.st110{clip-path:url(#SVGID_24_);fill:#6E88EB;}
	.st111{clip-path:url(#SVGID_24_);fill:#6D87EB;}
	.st112{clip-path:url(#SVGID_24_);fill:#6C86EB;}
	.st113{clip-path:url(#SVGID_24_);fill:#6B85EC;}
	.st114{clip-path:url(#SVGID_24_);fill:#6A84EC;}
	.st115{clip-path:url(#SVGID_24_);fill:#6983EC;}
	.st116{clip-path:url(#SVGID_24_);fill:#6981ED;}
	.st117{clip-path:url(#SVGID_24_);fill:#6880ED;}
	.st118{clip-path:url(#SVGID_24_);fill:#677FED;}
	.st119{clip-path:url(#SVGID_24_);fill:#667EEE;}
	.st120{clip-path:url(#SVGID_24_);fill:#657DEE;}
	.st121{clip-path:url(#SVGID_24_);fill:#647CEE;}
	.st122{clip-path:url(#SVGID_24_);fill:#637BEE;}
	.st123{clip-path:url(#SVGID_24_);fill:#627AEF;}
	.st124{clip-path:url(#SVGID_24_);fill:#6179EF;}
	.st125{fill:#6252DB;}
	.st126{fill:url(#SVGID_25_);}
	.st127{fill:url(#SVGID_26_);}
	.st128{clip-path:url(#SVGID_28_);fill:#202875;}
	.st129{clip-path:url(#SVGID_28_);fill:#202774;}
	.st130{clip-path:url(#SVGID_28_);fill:#202773;}
	.st131{clip-path:url(#SVGID_28_);fill:#1F2672;}
	.st132{clip-path:url(#SVGID_28_);fill:#1F2571;}
	.st133{clip-path:url(#SVGID_28_);fill:#1F2570;}
	.st134{clip-path:url(#SVGID_28_);fill:#1F246F;}
	.st135{clip-path:url(#SVGID_28_);fill:#1E236E;}
	.st136{clip-path:url(#SVGID_28_);fill:#1E236D;}
	.st137{clip-path:url(#SVGID_28_);fill:#1E226C;}
	.st138{clip-path:url(#SVGID_28_);fill:#1E226B;}
	.st139{clip-path:url(#SVGID_28_);fill:#1D216A;}
	.st140{clip-path:url(#SVGID_28_);fill:#1D2069;}
	.st141{clip-path:url(#SVGID_28_);fill:#1D2068;}
	.st142{clip-path:url(#SVGID_28_);fill:#1D1F67;}
	.st143{clip-path:url(#SVGID_28_);fill:#1C1E66;}
	.st144{clip-path:url(#SVGID_28_);fill:#1C1E65;}
	.st145{clip-path:url(#SVGID_28_);fill:#1C1D64;}
	.st146{clip-path:url(#SVGID_28_);fill:#1C1C63;}
	.st147{clip-path:url(#SVGID_28_);fill:#1B1C62;}
	.st148{clip-path:url(#SVGID_28_);fill:#1B1B61;}
	.st149{clip-path:url(#SVGID_28_);fill:#1B1A60;}
	.st150{clip-path:url(#SVGID_28_);fill:#1B1A5F;}
	.st151{clip-path:url(#SVGID_28_);fill:#1A195E;}
	.st152{clip-path:url(#SVGID_28_);fill:#1A195D;}
	.st153{clip-path:url(#SVGID_28_);fill:#1A185B;}
	.st154{clip-path:url(#SVGID_28_);fill:#1A175A;}
	.st155{clip-path:url(#SVGID_28_);fill:#191759;}
	.st156{clip-path:url(#SVGID_28_);fill:#191658;}
	.st157{clip-path:url(#SVGID_28_);fill:#191557;}
	.st158{clip-path:url(#SVGID_28_);fill:#191556;}
	.st159{clip-path:url(#SVGID_28_);fill:#181455;}
	.st160{clip-path:url(#SVGID_28_);fill:#181354;}
	.st161{clip-path:url(#SVGID_28_);fill:#181353;}
	.st162{clip-path:url(#SVGID_28_);fill:#181252;}
	.st163{clip-path:url(#SVGID_28_);fill:#171151;}
	.st164{clip-path:url(#SVGID_28_);fill:#171150;}
	.st165{clip-path:url(#SVGID_28_);fill:#17104F;}
	.st166{clip-path:url(#SVGID_28_);fill:#170F4E;}
	.st167{clip-path:url(#SVGID_28_);fill:#160F4D;}
	.st168{clip-path:url(#SVGID_28_);fill:#160E4C;}
	.st169{clip-path:url(#SVGID_28_);fill:#160E4B;}
	.st170{clip-path:url(#SVGID_28_);fill:#160D4A;}
	.st171{clip-path:url(#SVGID_28_);fill:#150C49;}
	.st172{clip-path:url(#SVGID_28_);fill:#150C48;}
	.st173{clip-path:url(#SVGID_28_);fill:#150B47;}
	.st174{clip-path:url(#SVGID_28_);fill:#150A46;}
	.st175{clip-path:url(#SVGID_28_);fill:#140A45;}
	.st176{clip-path:url(#SVGID_28_);fill:#140944;}
	.st177{fill:url(#SVGID_29_);}
	.st178{fill:#90BCFC;}
	.st179{fill:#191759;}
	.st180{fill:#B6D7FF;}
	.st181{fill:url(#SVGID_30_);}
	.st182{fill:url(#SVGID_31_);}
	.st183{fill:url(#SVGID_32_);}
	.st184{fill:url(#SVGID_33_);}
	.st185{fill:url(#SVGID_34_);}
	.st186{fill:#DBA203;}
	.st187{fill:url(#SVGID_35_);}
	.st188{fill:url(#SVGID_36_);}
	.st189{fill:url(#SVGID_37_);}
	.st190{fill:url(#SVGID_38_);}
	.st191{fill:url(#SVGID_39_);}
	.st192{fill:url(#SVGID_40_);}
	.st193{fill:#353B42;}
	.st194{fill:url(#SVGID_41_);}
	.st195{fill:url(#SVGID_42_);}
	.st196{fill:#F6AA94;}
	.st197{fill:url(#SVGID_43_);}
	.st198{fill:url(#SVGID_44_);}
	.st199{fill:#F3BE3E;}
	.st200{fill:#FACE46;}
	.st201{fill:url(#SVGID_45_);}
</style>
<g id="暂无内容">
	<g>
		<path class="st0" d="M379.48,268.35c106,19.88,267.66,34.6,384.04-16.44s246.18-54.5,297.2,38.06
			c51.03,92.57-8.95,205.9-41.18,243.96c-32.23,38.06-17.01,111.6,16.11,148.8c33.12,37.2,70.72,225.79-139.65,245.69
			c-210.37,19.9-795.82,109-821.78-155.72c-9.85-78.73,75.2-116.79,60.87-174.75c-14.32-57.96-63.56-155.72,18.8-246.56
			S319.5,257.1,379.48,268.35z"/>
		<path class="st1" d="M1059.48,328.75L952.47,221.75c-1.05-1.05-2.75-1.05-3.8,0L841.67,328.75c-1.05,1.05-1.05,2.75,0,3.8
			l107.01,107.01c1.05,1.05,2.75,1.05,3.8,0l107.01-107.01C1060.53,331.5,1060.53,329.8,1059.48,328.75z"/>
		<path class="st2" d="M1108.97,922.47l-40.34-40.34c-1.05-1.05-2.75-1.05-3.8,0l-40.34,40.34c-1.05,1.05-1.05,2.75,0,3.8
			l40.34,40.34c1.05,1.05,2.75,1.05,3.8,0l40.34-40.34C1110.02,925.23,1110.02,923.52,1108.97,922.47z"/>
		<path class="st3" d="M153.55,811.29l-40.34-40.34c-1.05-1.05-2.75-1.05-3.8,0l-40.34,40.34c-1.05,1.05-1.05,2.75,0,3.8
			l40.34,40.34c1.05,1.05,2.75,1.05,3.8,0l40.34-40.34C154.6,814.04,154.6,812.34,153.55,811.29z"/>
		<path class="st2" d="M115.2,683.83l-20.34-20.34c-0.48-0.48-1.25-0.48-1.73,0l-20.34,20.34c-0.48,0.48-0.48,1.25,0,1.73
			l20.34,20.34c0.48,0.48,1.25,0.48,1.73,0l20.34-20.34C115.68,685.08,115.68,684.31,115.2,683.83z"/>
		<path class="st4" d="M443.1,220.33l-55.24-55.24c-0.48-0.48-1.25-0.48-1.73,0l-55.24,55.24c-0.48,0.48-0.48,1.25,0,1.73
			l55.24,55.24c0.48,0.48,1.25,0.48,1.73,0l55.24-55.24C443.58,221.58,443.58,220.81,443.1,220.33z"/>
		<g>
			<path class="st5" d="M847.22,440.68H237.58c-12.64,0-22.89,10.25-22.89,22.89v389.08c0,12.64,10.25,22.89,22.89,22.89h217.64
				v22.35h174.36v-22.35h217.64c12.64,0,22.89-10.25,22.89-22.89V463.57C870.11,450.93,859.86,440.68,847.22,440.68z"/>
			<path class="st6" d="M837.89,844.87H246.65c-0.8,0-1.45-0.65-1.45-1.45V472.81c0-0.8,0.65-1.45,1.45-1.45h591.24
				c0.8,0,1.45,0.65,1.45,1.45v370.61C839.34,844.22,838.69,844.87,837.89,844.87z"/>
			<g>
				<rect x="637.57" y="528.05" class="st7" width="23.31" height="50.07"/>
				<rect x="676.2" y="528.05" class="st7" width="125.53" height="8"/>
				<rect x="676.2" y="542.08" class="st7" width="125.53" height="8"/>
				<rect x="676.2" y="556.1" class="st7" width="125.53" height="8"/>
				<rect x="676.2" y="570.13" class="st7" width="125.53" height="8"/>
				<rect x="637.57" y="596.75" class="st7" width="23.31" height="50.07"/>
				<rect x="676.2" y="596.75" class="st7" width="125.53" height="8"/>
				<rect x="676.2" y="610.78" class="st7" width="125.53" height="8"/>
				<rect x="676.2" y="624.8" class="st7" width="125.53" height="8"/>
				<rect x="676.2" y="638.83" class="st7" width="125.53" height="8"/>
				<rect x="637.57" y="666" class="st7" width="23.31" height="50.07"/>
				<rect x="676.2" y="666" class="st7" width="125.53" height="8"/>
				<rect x="676.2" y="680.03" class="st7" width="125.53" height="8"/>
				<rect x="676.2" y="694.05" class="st7" width="125.53" height="8"/>
				<rect x="676.2" y="708.07" class="st7" width="125.53" height="8"/>
				<path class="st7" d="M569.49,563.73c-2.33-0.3-4.69-0.5-7.09-0.5c-30.85,0-55.87,25.01-55.87,55.87
					c0,5.17,0.76,10.14,2.07,14.89l49-19.05L569.49,563.73z"/>
				<path class="st7" d="M580.44,566.27l-13.24,57l-54.54,21.21c9.25,18.09,28.02,30.5,49.73,30.5c30.86,0,55.87-25.01,55.87-55.87
					C618.26,594.57,602.43,573.78,580.44,566.27z"/>
				<rect x="442.38" y="545.57" class="st7" width="23.18" height="159.19"/>
				<rect x="410.72" y="545.57" class="st7" width="23.17" height="159.19"/>
				<rect x="379.06" y="545.57" class="st7" width="23.18" height="159.19"/>
				<rect x="347.4" y="545.57" class="st7" width="23.18" height="159.19"/>
				<rect x="315.74" y="642.96" class="st7" width="23.17" height="61.8"/>
				
					<ellipse transform="matrix(0.9239 -0.3827 0.3827 0.9239 -207.313 160.098)" class="st7" cx="298.78" cy="601.17" rx="32.42" ry="32.42"/>
				<path class="st7" d="M391.3,735.15v11.36c8.82,1.56,15.78,8.51,17.34,17.32h11.36C418.28,748.81,406.33,736.87,391.3,735.15z"/>
				<path class="st7" d="M383.81,746.52v-11.36c-15,1.74-26.93,13.67-28.66,28.68h11.36C368.07,755.03,375.01,748.09,383.81,746.52z
					"/>
				<path class="st7" d="M366.51,771.33h-11.36c1.73,15.01,13.65,26.94,28.66,28.67v-11.36
					C375.01,787.07,368.08,780.13,366.51,771.33z"/>
				<path class="st7" d="M391.3,788.65v11.36c15.03-1.72,26.98-13.66,28.7-28.68h-11.36C407.08,780.14,400.12,787.09,391.3,788.65z"
					/>
				<rect x="374.89" y="761.99" class="st7" width="25.38" height="11.17"/>
				<path class="st7" d="M302.95,735.15v11.36c8.82,1.56,15.78,8.51,17.34,17.32h11.36C329.93,748.81,317.98,736.87,302.95,735.15z"
					/>
				<path class="st7" d="M295.46,746.52v-11.36c-15,1.74-26.93,13.67-28.66,28.68h11.36C279.72,755.03,286.66,748.09,295.46,746.52z
					"/>
				<path class="st7" d="M278.16,771.33H266.8c1.73,15.01,13.65,26.94,28.66,28.67v-11.36
					C286.66,787.07,279.72,780.13,278.16,771.33z"/>
				<path class="st7" d="M302.95,788.65v11.36c15.03-1.72,26.98-13.66,28.7-28.68h-11.36C318.73,780.14,311.77,787.09,302.95,788.65
					z"/>
				<rect x="286.53" y="761.99" class="st7" width="25.38" height="11.17"/>
				<path class="st7" d="M479.45,735.15v11.36c8.82,1.56,15.78,8.51,17.34,17.32h11.36C506.43,748.81,494.48,736.87,479.45,735.15z"
					/>
				<path class="st7" d="M471.96,746.52v-11.36c-15,1.74-26.93,13.67-28.66,28.68h11.36C456.22,755.03,463.16,748.09,471.96,746.52z
					"/>
				<path class="st7" d="M454.66,771.33H443.3c1.73,15.01,13.65,26.94,28.66,28.67v-11.36
					C463.16,787.07,456.22,780.13,454.66,771.33z"/>
				<path class="st7" d="M479.45,788.65v11.36c15.03-1.72,26.98-13.66,28.7-28.68h-11.36C495.23,780.14,488.27,787.09,479.45,788.65
					z"/>
				<rect x="463.04" y="761.99" class="st7" width="25.38" height="11.17"/>
				<path class="st7" d="M566.98,735.15v11.36c8.82,1.56,15.78,8.51,17.34,17.32h11.36C593.96,748.81,582.01,736.87,566.98,735.15z"
					/>
				<path class="st7" d="M530.83,763.83h11.36c1.56-8.8,8.5-15.74,17.3-17.31v-11.36C544.48,736.89,532.55,748.83,530.83,763.83z"/>
				<path class="st7" d="M542.19,771.33h-11.36c1.73,15.01,13.65,26.94,28.66,28.67v-11.36
					C550.69,787.07,543.75,780.13,542.19,771.33z"/>
				<path class="st7" d="M566.98,788.65v11.36c15.03-1.72,26.98-13.66,28.7-28.68h-11.36C582.76,780.14,575.8,787.09,566.98,788.65z
					"/>
				<rect x="550.56" y="761.99" class="st7" width="25.38" height="11.17"/>
				<path class="st7" d="M655.13,735.15v11.36c8.82,1.56,15.78,8.51,17.34,17.32h11.36C682.1,748.81,670.15,736.87,655.13,735.15z"
					/>
				<path class="st7" d="M647.63,746.52v-11.36c-15,1.74-26.93,13.67-28.66,28.68h11.36C631.9,755.03,638.84,748.09,647.63,746.52z"
					/>
				<path class="st7" d="M630.34,771.33h-11.36c1.73,15.01,13.65,26.94,28.66,28.67v-11.36
					C638.84,787.07,631.9,780.13,630.34,771.33z"/>
				<path class="st7" d="M655.13,788.65v11.36c15.03-1.72,26.97-13.66,28.7-28.68h-11.36C670.9,780.14,663.94,787.09,655.13,788.65z
					"/>
				<rect x="638.71" y="761.99" class="st7" width="25.38" height="11.17"/>
			</g>
			<linearGradient id="SVGID_1_" gradientUnits="userSpaceOnUse" x1="100.9628" y1="906.3031" x2="982.0249" y2="906.3031">
				<stop  offset="0" style="stop-color:#405AB1"/>
				<stop  offset="1" style="stop-color:#0B1066"/>
			</linearGradient>
			<path class="st8" d="M975.4,917.48h-82.51c11.56-7.62,19.2-20.71,19.2-35.59l0,0H170.9l0,0c0,14.88,7.64,27.97,19.2,35.59h-82.51
				c-3.66,0-6.62,2.96-6.62,6.62c0,3.66,2.96,6.62,6.62,6.62H975.4c3.66,0,6.62-2.96,6.62-6.62
				C982.02,920.44,979.06,917.48,975.4,917.48z"/>
		</g>
		<g>
			<path class="st9" d="M562.68,670h-445.8c-3.8,0-6.88-3.08-6.88-6.88V329.81c0-3.8,3.08-6.88,6.88-6.88h445.8
				c3.8,0,6.88,3.08,6.88,6.88v333.31C569.57,666.92,566.48,670,562.68,670z"/>
			<path class="st6" d="M547,650.41H116.89c-3.8,0-6.88-3.08-6.88-6.88V329.81c0-3.8,3.08-6.88,6.88-6.88H547
				c3.8,0,6.88,3.08,6.88,6.88v313.72C553.88,647.33,550.8,650.41,547,650.41z"/>
			<path class="st10" d="M553.88,379.46H110v-49.64c0-3.8,3.08-6.88,6.88-6.88H547c3.8,0,6.88,3.08,6.88,6.88V379.46z"/>
			<circle class="st11" cx="142.23" cy="352.94" r="11.89"/>
			<circle class="st11" cx="179.54" cy="352.94" r="11.89"/>
			<circle class="st11" cx="216.15" cy="352.94" r="11.89"/>
			<g>
				<rect x="134.72" y="428.74" class="st12" width="106.85" height="15.49"/>
				<rect x="134.72" y="564.74" class="st12" width="106.85" height="15.49"/>
				<rect x="134.72" y="472.54" class="st12" width="87.92" height="15.49"/>
				<rect x="134.72" y="516.13" class="st12" width="87.92" height="15.49"/>
				<rect x="421.01" y="428.74" class="st12" width="106.85" height="15.49"/>
				<rect x="421.01" y="564.74" class="st12" width="106.85" height="15.49"/>
				<rect x="439.94" y="472.54" class="st12" width="87.92" height="15.49"/>
				<rect x="439.94" y="516.13" class="st12" width="87.92" height="15.49"/>
			</g>
			<circle class="st5" cx="330.86" cy="502.94" r="94.28"/>
			<g>
				<path class="st13" d="M261.33,516.91c3.11-0.37,5.33-3.19,4.96-6.3c-0.31-2.56-0.46-5.19-0.46-7.82c0-3.13-2.54-5.67-5.67-5.67
					s-5.67,2.54-5.67,5.67c0,3.07,0.18,6.15,0.54,9.16c0.34,2.88,2.79,5,5.62,5C260.87,516.95,261.1,516.94,261.33,516.91z"/>
				<path class="st13" d="M276.9,539.27c-2.87-4.27-5.23-8.88-7.01-13.69c-1.09-2.93-4.35-4.43-7.28-3.34
					c-2.93,1.09-4.43,4.35-3.34,7.28c2.09,5.64,4.86,11.05,8.23,16.06c1.09,1.63,2.88,2.51,4.71,2.51c1.09,0,2.18-0.31,3.15-0.96
					C277.95,545.39,278.65,541.87,276.9,539.27z"/>
				<path class="st13" d="M354.25,441.38c4.8,1.79,9.4,4.16,13.67,7.04c0.97,0.66,2.07,0.97,3.16,0.97c1.82,0,3.61-0.88,4.7-2.5
					c1.75-2.6,1.07-6.12-1.53-7.87c-5.01-3.38-10.41-6.16-16.04-8.26c-2.93-1.1-6.2,0.4-7.29,3.33
					C349.83,437.03,351.32,440.29,354.25,441.38z"/>
				<path class="st13" d="M388.61,470.94c1.04,1.86,2.97,2.91,4.95,2.91c0.93,0,1.88-0.23,2.75-0.72c2.73-1.52,3.71-4.97,2.19-7.71
					c-2.93-5.26-6.49-10.18-10.57-14.62c-2.12-2.3-5.7-2.45-8.01-0.34c-2.3,2.12-2.45,5.7-0.34,8.01
					C383.08,462.25,386.11,466.45,388.61,470.94z"/>
				<path class="st13" d="M394.47,485.15c1.37,4.93,2.17,10.05,2.35,15.2c0.11,3.06,2.62,5.46,5.66,5.46c0.07,0,0.14,0,0.21,0
					c3.13-0.11,5.57-2.74,5.46-5.87c-0.22-6.05-1.15-12.05-2.76-17.83c-0.84-3.01-3.96-4.78-6.98-3.94
					C395.39,479.01,393.63,482.14,394.47,485.15z"/>
				<path class="st13" d="M328.77,568.27c-5.16-0.2-10.27-1-15.2-2.39c-3-0.84-6.14,0.91-6.99,3.92c-0.85,3.01,0.91,6.14,3.92,6.99
					c5.78,1.63,11.78,2.57,17.83,2.8c0.07,0,0.15,0,0.22,0c3.03,0,5.54-2.39,5.66-5.45C334.34,571.02,331.9,568.39,328.77,568.27z"
					/>
				<path class="st13" d="M358.75,562.33c-4.66,2.15-9.58,3.75-14.63,4.75c-3.07,0.61-5.07,3.59-4.46,6.66
					c0.53,2.7,2.9,4.57,5.55,4.57c0.36,0,0.73-0.04,1.1-0.11c5.93-1.17,11.71-3.05,17.18-5.57c2.84-1.31,4.08-4.68,2.77-7.52
					C364.95,562.25,361.59,561.02,358.75,562.33z"/>
				<path class="st13" d="M390.72,542.48c-2.45-1.94-6.02-1.52-7.96,0.93c-3.19,4.03-6.86,7.69-10.9,10.88
					c-2.46,1.94-2.88,5.5-0.94,7.96c1.12,1.42,2.78,2.16,4.45,2.16c1.23,0,2.46-0.4,3.5-1.22c4.73-3.73,9.03-8.02,12.77-12.74
					C393.59,547.99,393.18,544.42,390.72,542.48z"/>
				<path class="st13" d="M402.26,511.25c-3.07-0.6-6.05,1.38-6.67,4.45c-1,5.04-2.61,9.95-4.77,14.61
					c-1.32,2.84-0.08,6.21,2.76,7.52c0.77,0.36,1.58,0.53,2.38,0.53c2.14,0,4.19-1.22,5.15-3.28c2.54-5.48,4.42-11.25,5.6-17.16
					C407.32,514.85,405.33,511.86,402.26,511.25z"/>
				<path class="st13" d="M299.37,560c-4.48-2.51-8.67-5.55-12.45-9.04c-2.3-2.12-5.89-1.98-8.01,0.32
					c-2.12,2.3-1.98,5.88,0.32,8.01c4.44,4.09,9.35,7.66,14.6,10.6c0.88,0.49,1.83,0.72,2.76,0.72c1.98,0,3.91-1.04,4.95-2.9
					C303.07,564.98,302.1,561.53,299.37,560z"/>
				<path class="st13" d="M331.34,437.27c2.61,0,5.24,0.15,7.82,0.46c0.23,0.03,0.45,0.04,0.68,0.04c2.83,0,5.28-2.12,5.62-5
					c0.37-3.11-1.85-5.93-4.96-6.29c-3.02-0.36-6.1-0.54-9.16-0.54c-3.13,0-5.67,2.54-5.67,5.67S328.21,437.27,331.34,437.27z"/>
				<path class="st13" d="M346.9,476.72c-2.26-0.59-4.59,0.75-5.19,3.02l-12.31,46.62c-0.6,2.27,0.75,4.59,3.02,5.19
					c0.36,0.1,0.73,0.14,1.09,0.14c1.88,0,3.6-1.26,4.11-3.17l12.31-46.62C350.52,479.65,349.17,477.32,346.9,476.72z"/>
				<path class="st13" d="M285.09,508.87l28.26,17.21c0.69,0.42,1.45,0.62,2.21,0.62c1.43,0,2.83-0.72,3.63-2.04
					c1.22-2.01,0.59-4.62-1.42-5.84l-22.09-13.45l23.33-13.23c2.04-1.16,2.76-3.75,1.6-5.79c-1.16-2.04-3.75-2.76-5.79-1.6
					l-29.62,16.79c-1.31,0.74-2.13,2.12-2.15,3.63C283.03,506.68,283.81,508.08,285.09,508.87z"/>
				<path class="st13" d="M356.95,523.22c0.79,1.36,2.21,2.11,3.68,2.11c0.72,0,1.46-0.19,2.13-0.58l26.7-15.54
					c1.29-0.75,2.1-2.13,2.11-3.63c0.02-1.5-0.76-2.89-2.04-3.67l-26.18-15.96c-2-1.23-4.62-0.59-5.84,1.42
					c-1.22,2-0.59,4.62,1.42,5.84l20.09,12.24l-20.53,11.95C356.46,518.59,355.77,521.2,356.95,523.22z"/>
			</g>
		</g>
		<g>
			<polyline class="st14" points="305.88,789.81 387.27,757.25 537.91,783.19 663.44,646.07 			"/>
			<circle class="st15" cx="301.88" cy="792.15" r="14.9"/>
			<circle class="st15" cx="386.3" cy="758.63" r="14.9"/>
			<circle class="st15" cx="537.56" cy="785.32" r="14.9"/>
			<circle class="st15" cx="660.89" cy="646.83" r="14.9"/>
		</g>
		<g>
			<linearGradient id="SVGID_2_" gradientUnits="userSpaceOnUse" x1="647.08" y1="362.8548" x2="973.2299" y2="927.763">
				<stop  offset="0" style="stop-color:#405AB1"/>
				<stop  offset="1" style="stop-color:#0B1066"/>
			</linearGradient>
			<path class="st16" d="M968.78,928.51H651.53c-6.49,0-11.74-5.26-11.74-11.74V373.85c0-6.49,5.26-11.74,11.74-11.74h317.25
				c6.49,0,11.74,5.26,11.74,11.74v542.92C980.52,923.26,975.27,928.51,968.78,928.51z"/>
			<path class="st11" d="M957.09,906.84H663.22c-3.19,0-5.78-2.59-5.78-5.78v-511.5c0-3.19,2.59-5.78,5.78-5.78h293.88
				c3.19,0,5.78,2.59,5.78,5.78v511.5C962.87,904.25,960.29,906.84,957.09,906.84z"/>
			<path class="st17" d="M962.87,601.4H657.44V389.56c0-3.19,2.59-5.78,5.78-5.78h293.88c3.19,0,5.78,2.59,5.78,5.78V601.4z"/>
			<circle class="st11" cx="776.75" cy="400.48" r="6.54"/>
			<path class="st11" d="M791.3,405.63h58.5c0.57,0,1.03-0.46,1.03-1.03v-9.26c0-0.57-0.46-1.03-1.03-1.03h-58.5
				c-0.57,0-1.03,0.46-1.03,1.03v9.26C790.27,405.17,790.73,405.63,791.3,405.63z"/>
			<path class="st10" d="M935.82,692.9H685.42c-1.19,0-2.15-0.96-2.15-2.15v-29.21c0-1.19,0.96-2.15,2.15-2.15h250.41
				c1.19,0,2.15,0.96,2.15,2.15v29.21C937.98,691.94,937.01,692.9,935.82,692.9z"/>
			<path class="st10" d="M831.7,751.66H685.42c-1.19,0-2.15-0.96-2.15-2.15V720.3c0-1.19,0.96-2.15,2.15-2.15H831.7
				c1.19,0,2.15,0.96,2.15,2.15v29.21C833.86,750.7,832.89,751.66,831.7,751.66z"/>
			<path class="st10" d="M831.7,810.65H685.42c-1.19,0-2.15-0.96-2.15-2.15v-29.21c0-1.19,0.96-2.15,2.15-2.15H831.7
				c1.19,0,2.15,0.96,2.15,2.15v29.21C833.86,809.69,832.89,810.65,831.7,810.65z"/>
			<path class="st5" d="M937.93,887.62H685.42c-1.19,0-2.15-0.96-2.15-2.15v-52.56c0-1.19,0.96-2.15,2.15-2.15h252.51
				c1.19,0,2.15,0.96,2.15,2.15v52.56C940.08,886.66,939.12,887.62,937.93,887.62z"/>
			<path class="st18" d="M1127.67,794.9H900.09c-4,0-7.25-3.25-7.25-7.25V657.92c0-4,3.25-7.25,7.25-7.25h227.58
				c4,0,7.25,3.25,7.25,7.25v129.73C1134.92,791.65,1131.67,794.9,1127.67,794.9z"/>
			<path class="st9" d="M923.99,644.53H526.92c-4.23,0-7.65-3.43-7.65-7.65V449.19c0-4.23,3.43-7.65,7.65-7.65h397.07
				c4.23,0,7.65,3.43,7.65,7.65v187.68C931.64,641.1,928.22,644.53,923.99,644.53z"/>
			<path class="st11" d="M906.96,629.11H526.92c-4.23,0-7.65-3.43-7.65-7.65V448.74c0-4.23,3.43-7.65,7.65-7.65h380.04
				c4.23,0,7.65,3.43,7.65,7.65v172.71C914.61,625.68,911.18,629.11,906.96,629.11z"/>
			<path class="st11" d="M937.73,692.57h150.94c0.61,0,1.11-0.5,1.11-1.11v-10.01c0-0.61-0.5-1.11-1.11-1.11H937.73
				c-0.61,0-1.11,0.5-1.11,1.11v10.01C936.62,692.07,937.12,692.57,937.73,692.57z"/>
			<path class="st11" d="M937.73,727.76h150.94c0.61,0,1.11-0.5,1.11-1.11v-10.01c0-0.61-0.5-1.11-1.11-1.11H937.73
				c-0.61,0-1.11,0.5-1.11,1.11v10.01C936.62,727.26,937.12,727.76,937.73,727.76z"/>
			<path class="st11" d="M937.73,764.79h114.41c0.61,0,1.11-0.5,1.11-1.11v-10.01c0-0.61-0.5-1.11-1.11-1.11H937.73
				c-0.61,0-1.11,0.5-1.11,1.11v10.01C936.62,764.29,937.12,764.79,937.73,764.79z"/>
			<path class="st19" d="M619.42,607.41c-3.1,0-6.21,0.01-9.31,0c-4-0.02-5.84-1.83-5.86-5.77c-0.01-3.23-0.04-6.47,0.01-9.7
				c0.03-2.12-0.78-3.42-2.89-4.12c-2.31-0.76-4.54-1.77-6.75-2.81c-1.6-0.76-2.87-0.58-4.1,0.69c-2.39,2.46-4.83,4.88-7.28,7.29
				c-2.74,2.7-5.54,2.7-8.28-0.02c-4.59-4.56-9.17-9.13-13.72-13.72c-2.52-2.53-2.51-5.4,0.01-7.99c2.44-2.5,4.92-4.98,7.42-7.42
				c1.27-1.24,1.43-2.5,0.67-4.1c-1.04-2.2-2.05-4.44-2.81-6.74c-0.69-2.12-2.01-2.91-4.12-2.88c-3.3,0.05-6.6,0.03-9.9,0.01
				c-3.59-0.02-5.54-1.91-5.55-5.47c-0.03-6.6-0.03-13.2,0-19.8c0.02-3.54,1.98-5.42,5.57-5.45c3.3-0.02,6.6-0.05,9.9,0.01
				c2.12,0.03,3.42-0.79,4.11-2.9c0.76-2.31,1.77-4.54,2.81-6.74c0.76-1.6,0.58-2.86-0.69-4.09c-2.46-2.39-4.88-4.83-7.29-7.28
				c-2.71-2.75-2.7-5.55,0.01-8.27c4.52-4.54,9.05-9.06,13.58-13.58c2.71-2.7,5.53-2.7,8.28,0.01c2.45,2.41,4.89,4.82,7.27,7.29
				c1.24,1.29,2.5,1.42,4.09,0.67c2.2-1.04,4.44-2.05,6.74-2.8c2.11-0.69,2.92-2,2.89-4.12c-0.05-3.23-0.02-6.47-0.01-9.7
				c0.02-3.86,1.85-5.75,5.66-5.77c6.47-0.02,12.94-0.02,19.41,0c3.81,0.01,5.65,1.91,5.67,5.76c0.01,3.23,0.04,6.47-0.01,9.7
				c-0.03,2.12,0.77,3.42,2.88,4.12c2.31,0.76,4.55,1.76,6.75,2.81c1.6,0.76,2.87,0.59,4.1-0.68c2.4-2.46,4.83-4.88,7.28-7.29
				c2.75-2.7,5.55-2.71,8.28,0.01c4.59,4.56,9.17,9.13,13.72,13.72c2.52,2.54,2.52,5.41,0,7.99c-2.45,2.5-4.91,4.98-7.43,7.42
				c-1.28,1.24-1.43,2.5-0.68,4.09c1.04,2.2,2.05,4.44,2.81,6.74c0.69,2.11,1.99,2.93,4.11,2.89c3.23-0.05,6.47-0.02,9.7-0.01
				c3.87,0.02,5.76,1.85,5.77,5.66c0.02,6.47,0.02,12.94,0,19.41c-0.01,3.8-1.92,5.65-5.77,5.66c-3.23,0.01-6.47,0.04-9.7-0.01
				c-2.12-0.03-3.42,0.78-4.11,2.89c-0.76,2.31-1.77,4.54-2.81,6.74c-0.75,1.6-0.6,2.85,0.68,4.09c2.47,2.39,4.88,4.83,7.29,7.27
				c2.71,2.75,2.71,5.54-0.01,8.28c-4.56,4.59-9.13,9.16-13.73,13.72c-2.54,2.52-5.41,2.52-7.99,0c-2.5-2.44-4.99-4.91-7.42-7.43
				c-1.24-1.29-2.5-1.43-4.09-0.68c-2.2,1.04-4.44,2.05-6.74,2.81c-2.11,0.69-2.93,1.99-2.89,4.11c0.05,3.23,0.02,6.47,0.01,9.7
				c-0.02,3.94-1.86,5.76-5.86,5.77C625.89,607.42,622.66,607.41,619.42,607.41z M619.54,567.17c17.95,0.01,32.46-14.36,32.49-32.18
				c0.03-18.1-14.31-32.61-32.23-32.63c-18.09-0.02-32.57,14.33-32.59,32.28C587.2,552.7,601.57,567.16,619.54,567.17z"/>
			<path class="st5" d="M887.6,503.54H711.82c-0.6,0-1.1-0.49-1.1-1.1v-9.87c0-0.6,0.49-1.1,1.1-1.1H887.6c0.6,0,1.1,0.49,1.1,1.1
				v9.87C888.69,503.05,888.2,503.54,887.6,503.54z"/>
			<path class="st5" d="M887.6,539.4H711.82c-0.6,0-1.1-0.49-1.1-1.1v-9.87c0-0.6,0.49-1.1,1.1-1.1H887.6c0.6,0,1.1,0.49,1.1,1.1
				v9.87C888.69,538.91,888.2,539.4,887.6,539.4z"/>
			<path class="st5" d="M824.25,575.43H711.82c-0.6,0-1.1-0.49-1.1-1.1v-9.87c0-0.6,0.49-1.1,1.1-1.1h112.43c0.6,0,1.1,0.49,1.1,1.1
				v9.87C825.35,574.94,824.86,575.43,824.25,575.43z"/>
		</g>
	</g>
</g>
<g id="图层_2">
</g>
</svg>
