<?xml version="1.0" standalone="no"?><!DOCTYPE svg PUBLIC "-//W3C//DTD SVG 1.1//EN" "http://www.w3.org/Graphics/SVG/1.1/DTD/svg11.dtd"><svg t="1608362982696" class="icon" viewBox="0 0 1024 1024" version="1.1" xmlns="http://www.w3.org/2000/svg" p-id="10608" xmlns:xlink="http://www.w3.org/1999/xlink" width="200" height="200"><defs><style type="text/css"></style></defs><path d="M553.872 12.496a5.296 5.296 0 1 1-0.896 10.576 496.272 496.272 0 0 0-41.936-1.76 5.296 5.296 0 1 1 0-10.624c14.352 0 28.64 0.608 42.832 1.808z m84.544 14.56a5.312 5.312 0 1 1-2.688 10.256c-13.52-3.536-27.2-6.512-41.024-8.896a5.312 5.312 0 0 1 1.792-10.448c14.128 2.432 28.112 5.456 41.92 9.088z m81.376 29.136a5.312 5.312 0 0 1-4.432 9.648 486.512 486.512 0 0 0-38.864-15.888 5.296 5.296 0 1 1 3.584-9.984c13.472 4.848 26.72 10.24 39.712 16.224z m74.32 42.224a5.296 5.296 0 1 1-6 8.736c-11.536-7.92-23.408-15.36-35.568-22.256a5.312 5.312 0 0 1 5.232-9.232c12.432 7.056 24.56 14.656 36.336 22.752z m66.928 55.072a5.312 5.312 0 0 1-7.408 7.584A492.64 492.64 0 0 0 822.4 133.008a5.296 5.296 0 1 1 6.752-8.192c11.04 9.104 21.68 18.672 31.888 28.672z m55.36 64.192a5.312 5.312 0 0 1-8.576 6.24 492 492 0 0 0-26.064-32.912 5.312 5.312 0 0 1 8.032-6.928c9.344 10.816 18.24 22.032 26.624 33.6z m44.432 73.968a5.296 5.296 0 1 1-9.52 4.64 488.624 488.624 0 0 0-20.032-36.88 5.312 5.312 0 1 1 9.088-5.456c7.36 12.256 14.192 24.832 20.48 37.696z m31.088 80.752a5.296 5.296 0 1 1-10.192 2.928 485.888 485.888 0 0 0-13.344-39.792 5.312 5.312 0 0 1 9.92-3.808c5.12 13.344 9.664 26.912 13.616 40.672z m16.56 84.48a5.312 5.312 0 0 1-10.544 1.152 488.96 488.96 0 0 0-6.272-41.504 5.296 5.296 0 1 1 10.4-2.048c2.752 14 4.896 28.16 6.416 42.4z m2.016 84.224a5.312 5.312 0 0 1-10.592-0.64 498 498 0 0 0 0.72-42.048 5.312 5.312 0 0 1 10.592-0.256 509.792 509.792 0 0 1-0.72 42.944z m-12.368 84.848a5.312 5.312 0 0 1-10.336-2.432c3.2-13.6 5.824-27.36 7.84-41.248a5.312 5.312 0 1 1 10.496 1.536c-2.08 14.192-4.736 28.24-8 42.144z m-26.944 81.92a5.312 5.312 0 0 1-9.76-4.176c5.52-12.864 10.464-25.952 14.848-39.248a5.296 5.296 0 1 1 10.08 3.312c-4.48 13.6-9.552 26.976-15.168 40.112z m-40.352 75.52a5.296 5.296 0 0 1-8.896-5.776c7.632-11.744 14.752-23.792 21.344-36.144a5.312 5.312 0 0 1 9.36 5.008 500.032 500.032 0 0 1-21.808 36.912z m-53.28 68.24a5.312 5.312 0 0 1-7.76-7.216 492.432 492.432 0 0 0 27.248-31.952 5.296 5.296 0 1 1 8.368 6.544 503.04 503.04 0 0 1-27.84 32.64z m-62.816 57.072a5.312 5.312 0 0 1-6.448-8.416 492.32 492.32 0 0 0 32.224-26.912 5.296 5.296 0 1 1 7.136 7.84 502.928 502.928 0 0 1-32.912 27.488z m-72.768 46.32a5.296 5.296 0 1 1-4.912-9.408 489.2 489.2 0 0 0 36.368-20.992 5.296 5.296 0 1 1 5.696 8.96c-12.08 7.68-24.48 14.832-37.152 21.44zM662.08 988.16a5.296 5.296 0 1 1-3.2-10.112 486.064 486.064 0 0 0 39.44-14.384 5.312 5.312 0 0 1 4.064 9.808c-13.216 5.472-26.656 10.368-40.304 14.688z m-84.688 18.848a5.296 5.296 0 1 1-1.392-10.528c13.92-1.84 27.712-4.272 41.344-7.296a5.296 5.296 0 1 1 2.288 10.368 498.56 498.56 0 0 1-42.24 7.456z m-83.568 4.064a5.296 5.296 0 0 1 0.352-10.592 500.64 500.64 0 0 0 42.08-0.352 5.296 5.296 0 1 1 0.544 10.592 508.48 508.48 0 0 1-42.976 0.352z m-85.136-10.176a5.312 5.312 0 0 1 2.16-10.4c13.664 2.848 27.472 5.12 41.408 6.768a5.312 5.312 0 0 1-1.248 10.544 499.04 499.04 0 0 1-42.32-6.912z m-82.512-24.784a5.312 5.312 0 1 1 3.92-9.856c12.992 5.168 26.224 9.776 39.632 13.824a5.312 5.312 0 0 1-3.04 10.144 496.56 496.56 0 0 1-40.512-14.112z m-76.592-38.4a5.296 5.296 0 0 1 5.536-9.04c11.936 7.328 24.176 14.128 36.704 20.416a5.312 5.312 0 0 1-4.768 9.472c-12.784-6.4-25.28-13.36-37.472-20.848z m-69.536-51.44a5.312 5.312 0 0 1 7.024-7.952c10.496 9.248 21.376 18.08 32.624 26.4a5.312 5.312 0 0 1-6.32 8.528 502.752 502.752 0 0 1-33.328-26.976z m-58.736-61.424a5.312 5.312 0 0 1 8.256-6.656c8.8 10.896 18.048 21.424 27.728 31.52a5.296 5.296 0 1 1-7.664 7.36 503.168 503.168 0 0 1-28.32-32.224z m-48.16-71.52a5.296 5.296 0 1 1 9.28-5.152A489.76 489.76 0 0 0 104.368 784a5.296 5.296 0 0 1-8.8 5.92 500.368 500.368 0 0 1-22.4-36.592z m-35.2-78.96A5.296 5.296 0 1 1 48 670.928c4.56 13.232 9.712 26.272 15.392 39.04a5.296 5.296 0 1 1-9.696 4.32 496.96 496.96 0 0 1-15.728-39.904z m-21.04-84.112a5.312 5.312 0 0 1 10.48-1.664c2.208 13.856 5.008 27.584 8.384 41.12a5.312 5.312 0 0 1-10.304 2.576 497.728 497.728 0 0 1-8.56-42.032z m-0.864-88.912c2.928 0.032 5.28 2.416 5.264 5.344l-0.016 4.512c0 12.608 0.48 25.152 1.44 37.632a5.296 5.296 0 1 1-10.592 0.8 507.248 507.248 0 0 1-1.456-38.432v-4.592a5.312 5.312 0 0 1 5.36-5.264z m2.656-80.016a5.296 5.296 0 1 1 10.432 1.888 489.6 489.6 0 0 0-5.696 41.568 5.312 5.312 0 0 1-10.56-0.992c1.344-14.272 3.28-28.448 5.824-42.464z m22.592-83.04a5.312 5.312 0 0 1 9.952 3.68c-4.816 13.12-9.088 26.448-12.768 39.968a5.312 5.312 0 0 1-10.24-2.8c3.776-13.808 8.128-27.424 13.056-40.832z m36.432-77.6a5.312 5.312 0 0 1 9.168 5.296 488.272 488.272 0 0 0-19.44 37.184 5.296 5.296 0 1 1-9.6-4.496c6.08-12.96 12.704-25.632 19.872-38z m49.568-70.768a5.312 5.312 0 0 1 8.128 6.816 491.776 491.776 0 0 0-25.552 33.28 5.296 5.296 0 1 1-8.688-6.08 502.4 502.4 0 0 1 26.112-34.016z m60-60.4a5.312 5.312 0 0 1 6.864 8.08 492.736 492.736 0 0 0-30.816 28.512 5.296 5.296 0 1 1-7.52-7.472 503.344 503.344 0 0 1 31.456-29.12z m70.208-49.952a5.296 5.296 0 0 1 5.376 9.152c-12.064 7.104-23.808 14.72-35.216 22.832a5.312 5.312 0 0 1-6.16-8.64 500.928 500.928 0 0 1 36-23.344z m77.968-37.232a5.312 5.312 0 0 1 3.728 9.936c-13.12 4.912-26 10.4-38.624 16.416a5.312 5.312 0 1 1-4.576-9.584c12.912-6.144 26.08-11.744 39.472-16.768z m83.504-23.2a5.312 5.312 0 0 1 1.936 10.416c-13.792 2.56-27.424 5.728-40.896 9.44a5.296 5.296 0 1 1-2.832-10.208 497.12 497.12 0 0 1 41.792-9.648z m83.44-8.384a5.312 5.312 0 0 1 0.16 10.608c-14.048 0.24-28.016 1.072-41.904 2.48a5.296 5.296 0 0 1-1.072-10.56c14.176-1.44 28.448-2.288 42.816-2.528zM617.12 511.92a7.952 7.952 0 0 1 1.44 15.792l-1.44 0.128H422.64a7.952 7.952 0 0 1-1.44-15.792l1.44-0.128H617.12z" fill="#9EA2AE" p-id="10609"></path><path d="M519.872 414.688c3.92 0 7.168 2.816 7.84 6.528l0.128 1.424V617.12a7.952 7.952 0 0 1-15.792 1.44l-0.128-1.44V422.64c0-4.4 3.568-7.952 7.952-7.952z" fill="#9EA2AE" p-id="10610"></path></svg>