<?xml version="1.0" standalone="no"?><!DOCTYPE svg PUBLIC "-//W3C//DTD SVG 1.1//EN" "http://www.w3.org/Graphics/SVG/1.1/DTD/svg11.dtd"><svg t="1633052132445" class="icon" viewBox="0 0 1024 1024" version="1.1" xmlns="http://www.w3.org/2000/svg" p-id="50877" xmlns:xlink="http://www.w3.org/1999/xlink" width="200" height="200"><defs><style type="text/css"></style></defs><path d="M774.8096 937.3184H249.1904c-90.2656 0-163.4816-73.216-163.4816-163.4816V259.7376c0-90.2656 73.216-163.4816 163.4816-163.4816h525.6192c90.2656 0 163.4816 73.216 163.4816 163.4816v514.048c0 90.3168-73.216 163.5328-163.4816 163.5328z" fill="#4058E2" p-id="50878"></path><path d="M743.0656 868.2496H280.9344c-89.9584 0-162.8672-72.9088-162.8672-162.8672V282.0608c0-89.9584 72.9088-162.8672 162.8672-162.8672h462.1824c89.9584 0 162.8672 72.9088 162.8672 162.8672v423.3216c0 89.9584-72.96 162.8672-162.9184 162.8672z" fill="#5565E9" p-id="50879"></path><path d="M721.9712 816.9472H302.0288c-81.2032 0-147.0464-65.8432-147.0464-147.0464v-375.296c0-81.2032 65.8432-147.0464 147.0464-147.0464h419.9424c81.2032 0 147.0464 65.8432 147.0464 147.0464v375.296c0 81.2032-65.8432 147.0464-147.0464 147.0464z" fill="#6675FE" p-id="50880"></path><path d="M350.0032 211.1488c63.8464-3.3792 202.24-19.3536 282.5216 6.912s164.608 49.8176 167.3728 146.6368-4.1472 175.6672 0 210.2784c4.1472 34.56 7.8336 148.0192-59.7504 161.8432s-204.4928 5.5296-272.2816 20.736-251.7504 9.6768-253.1328-81.6128c-1.3824-91.2896 35.9424-195.072 16.5888-242.0736s-6.2976-216.1152 118.6816-222.72z" fill="#7084FC" p-id="50881"></path><path d="M756.3264 549.5808h-170.1888c-27.2896 0-51.5072 13.056-66.9696 33.1776-17.8688-53.6576-62.976-94.9248-118.8352-107.4688 5.0176-3.6352 9.7792-7.7312 14.1312-12.3392L502.784 368.896c6.4 40.2432 41.2672 71.168 83.3024 71.168h170.1888c46.592 0 84.48-37.888 84.48-84.48s-37.888-84.48-84.48-84.48h-170.1888c-16.1792 0-31.2832 4.6592-44.1344 12.5952-2.1504-19.2512-10.8032-37.888-26.0096-52.1728-33.9456-31.8976-87.5008-30.208-119.3984 3.7376l-54.272 57.8048-2.7136-2.6112c-16.2304-15.6672-37.7856-23.9616-60.2112-23.6032-22.5792 0.4096-43.6224 9.6256-59.2384 25.9072a83.98336 83.98336 0 0 0-23.6032 60.2112c0.4096 22.5792 9.6256 43.6224 25.9072 59.2384l56.32 54.1696c7.3216 7.0656 15.6672 12.7488 24.576 17.0496-59.2896 24.32-101.2224 82.6368-101.2224 150.6304 0 89.7536 73.0112 162.7648 162.7648 162.7648 71.8336 0 132.864-46.7456 154.4192-111.4112 15.4624 20.1216 39.68 33.1776 66.9696 33.1776h170.1888c46.592 0 84.48-37.888 84.48-84.48s-37.9904-84.5312-84.5824-84.5312z m-391.5264 78.2848c3.4304 0 6.1952 2.7648 6.1952 6.1952s-2.7648 6.1952-6.1952 6.1952-6.1952-2.7648-6.1952-6.1952 2.7648-6.1952 6.1952-6.1952z" fill="#4058E2" p-id="50882"></path><path d="M344.832 464.896c-17.4592 0-33.9968-6.656-46.6432-18.7904L241.92 391.936c-22.4256-21.5552-23.0912-57.2416-1.536-79.616 21.5552-22.4256 57.2416-23.0912 79.616-1.536l23.2448 22.3744 73.8304-78.592c21.2992-22.6816 56.9344-23.7568 79.616-2.5088 22.6816 21.2992 23.808 56.9344 2.5088 79.616L393.984 443.648a66.91328 66.91328 0 0 1-47.36 21.1968c-0.6144 0.0512-1.1776 0.0512-1.792 0.0512zM364.8 768.6656c-74.24 0-134.6048-60.3648-134.6048-134.6048s60.3648-134.6048 134.6048-134.6048c74.1888 0 134.6048 60.3648 134.6048 134.6048s-60.3648 134.6048-134.6048 134.6048z m0-156.5184a21.9648 21.9648 0 1 0-0.01024 43.93984 21.9648 21.9648 0 0 0 0.01024-43.93984zM756.3264 411.904h-170.1888c-31.1296 0-56.32-25.1904-56.32-56.32s25.1904-56.32 56.32-56.32h170.1888c31.1296 0 56.32 25.1904 56.32 56.32s-25.1904 56.32-56.32 56.32zM756.3264 690.3808h-170.1888c-31.1296 0-56.32-25.1904-56.32-56.32s25.1904-56.32 56.32-56.32h170.1888c31.1296 0 56.32 25.1904 56.32 56.32s-25.1904 56.32-56.32 56.32z" fill="#F9B900" p-id="50883"></path><path d="M344.8832 444.416c-12.1856 0-23.6544-4.608-32.4608-13.1072l-56.32-54.1184c-14.2848-13.7216-14.6944-36.4032-0.9728-50.688s36.4032-14.6944 50.688-0.9728l38.1952 36.7616 88.0128-93.696c13.568-14.4384 36.2496-15.1552 50.6368-1.5872 14.4384 13.568 15.1552 36.2496 1.5872 50.6368L379.0336 429.6192a46.37184 46.37184 0 0 1-32.9728 14.7456c-0.4096 0.0512-0.8192 0.0512-1.1776 0.0512zM364.8 748.1856c-62.9248 0-114.1248-51.2-114.1248-114.1248s51.2-114.1248 114.1248-114.1248 114.1248 51.2 114.1248 114.1248-51.2 114.1248-114.1248 114.1248z m0-156.5184c-23.3984 0-42.4448 19.0464-42.4448 42.4448 0 23.3984 19.0464 42.4448 42.4448 42.4448s42.4448-19.0464 42.4448-42.4448c0-23.4496-19.0464-42.4448-42.4448-42.4448zM756.3264 391.424h-170.1888c-19.8144 0-35.84-16.0256-35.84-35.84s16.0256-35.84 35.84-35.84h170.1888c19.8144 0 35.84 16.0256 35.84 35.84s-16.0256 35.84-35.84 35.84zM756.3264 669.9008h-170.1888c-19.8144 0-35.84-16.0256-35.84-35.84s16.0256-35.84 35.84-35.84h170.1888c19.8144 0 35.84 16.0256 35.84 35.84s-16.0256 35.84-35.84 35.84z" fill="#F9C633" p-id="50884"></path><path d="M344.8832 423.936c-6.8608 0-13.312-2.6112-18.2784-7.3728L270.336 362.3936a15.36 15.36 0 0 1-0.4096-21.7088 15.36 15.36 0 0 1 21.7088-0.4096l53.0944 51.0976 102.1952-108.8a15.31904 15.31904 0 0 1 21.7088-0.6656 15.31904 15.31904 0 0 1 0.6656 21.7088L364.1344 415.5904a26.1376 26.1376 0 0 1-18.5856 8.2944c-0.2048 0.0512-0.4608 0.0512-0.6656 0.0512zM364.8 727.7056c-51.6096 0-93.6448-41.984-93.6448-93.6448s41.984-93.6448 93.6448-93.6448c51.6096 0 93.6448 41.984 93.6448 93.6448s-42.0352 93.6448-93.6448 93.6448z m0-156.5184c-34.7136 0-62.9248 28.2112-62.9248 62.9248 0 34.7136 28.2112 62.9248 62.9248 62.9248 34.6624 0 62.9248-28.2112 62.9248-62.9248 0-34.7136-28.2112-62.9248-62.9248-62.9248zM756.3264 370.944h-170.1888c-8.4992 0-15.36-6.8608-15.36-15.36s6.8608-15.36 15.36-15.36h170.1888c8.4992 0 15.36 6.8608 15.36 15.36s-6.8608 15.36-15.36 15.36zM756.3264 649.4208h-170.1888c-8.4992 0-15.36-6.8608-15.36-15.36s6.8608-15.36 15.36-15.36h170.1888c8.4992 0 15.36 6.8608 15.36 15.36s-6.8608 15.36-15.36 15.36z" fill="#FFD68D" p-id="50885"></path></svg>