<?xml version="1.0" standalone="no"?><!DOCTYPE svg PUBLIC "-//W3C//DTD SVG 1.1//EN" "http://www.w3.org/Graphics/SVG/1.1/DTD/svg11.dtd"><svg t="1633051954848" class="icon" viewBox="0 0 1024 1024" version="1.1" xmlns="http://www.w3.org/2000/svg" p-id="27490" xmlns:xlink="http://www.w3.org/1999/xlink" width="200" height="200"><defs><style type="text/css"></style></defs><path d="M714.6496 133.5808l36.8128 88.9856c6.912 16.6912 20.1728 30.0032 36.9152 36.9152l88.9344 36.9152c34.816 14.4384 51.3024 54.3232 36.864 89.1392l-36.9152 88.9344a68.352 68.352 0 0 0-0.0512 52.224l36.8128 88.9856c14.3872 34.816-2.1504 74.7008-36.9664 89.088l-88.9856 36.8128a68.11648 68.11648 0 0 0-36.9152 36.9152l-36.9152 88.9344c-14.4384 34.816-54.3232 51.3024-89.1392 36.864l-88.9344-36.9152a68.352 68.352 0 0 0-52.224-0.0512l-88.9856 36.8128c-34.816 14.3872-74.7008-2.1504-89.088-36.9664L269.056 778.24a68.11648 68.11648 0 0 0-36.9152-36.9152l-88.9344-36.9152c-34.816-14.4384-51.3024-54.3232-36.864-89.1392l36.9152-88.9344a68.352 68.352 0 0 0 0.0512-52.224L106.496 385.1264c-14.3872-34.816 2.1504-74.7008 36.9664-89.088l88.9856-36.8128c16.6912-6.912 30.0032-20.1728 36.9152-36.9152l36.9152-88.9344c14.4384-34.816 54.3232-51.3024 89.1392-36.864l88.9344 36.9152a68.352 68.352 0 0 0 52.224 0.0512l88.9856-36.8128c34.816-14.4384 74.7008 2.0992 89.088 36.9152z" fill="#6969E8" p-id="27491"></path><path d="M882.688 594.7392l-36.8128-88.9856c-6.912-16.6912-6.912-35.4816 0.0512-52.224l36.9152-88.9344c10.1888-24.576 4.9152-51.6608-11.3152-70.6048l-83.0976-34.4576c-9.9328-4.1472-18.6368-10.5472-25.4976-18.5344l-5.8368-2.4064a68.28544 68.28544 0 0 1-36.9152-36.9152l-36.8128-88.9856c-2.7648-6.656-6.4512-12.6464-10.8544-17.8688-14.848-4.7616-31.3344-4.5056-46.848 1.8944l-88.9856 36.8128a68.1216 68.1216 0 0 1-52.224-0.0512l-88.9344-36.9152c-34.816-14.4384-74.7008 2.048-89.1392 36.864l-36.9152 88.9344a68.28544 68.28544 0 0 1-36.9152 36.9152l-88.9856 36.8128c-34.816 14.3872-51.3536 54.272-36.9664 89.088l36.8128 88.9856c6.912 16.6912 6.912 35.4816-0.0512 52.224l-36.9152 88.9344c-10.1888 24.576-4.9152 51.6608 11.3152 70.6048l83.0976 34.4576c9.9328 4.1472 18.6368 10.5472 25.4976 18.5344l5.8368 2.4064c16.6912 6.912 30.0032 20.224 36.9152 36.9152l36.8128 88.9856c2.7648 6.656 6.4512 12.6464 10.8544 17.8688 14.848 4.7616 31.3344 4.5056 46.848-1.8944l88.9856-36.8128c16.6912-6.912 35.4816-6.912 52.224 0.0512l88.9344 36.9152c34.816 14.4384 74.7008-2.048 89.1392-36.864l36.9152-88.9344c6.912-16.6912 20.224-30.0032 36.9152-36.9152l88.9856-36.8128c34.816-14.3872 51.3536-54.272 36.9664-89.088z" fill="#6D6DE8" p-id="27492"></path><path d="M727.9616 699.7504l88.9856-36.8128c34.816-14.3872 51.3536-54.272 36.9664-89.088l-36.8128-88.9856c-6.912-16.6912-6.912-35.4816 0.0512-52.224l36.9152-88.9344c8.0896-19.5072 6.4512-40.6528-2.7136-58.0096l-62.976-26.112a68.3776 68.3776 0 0 1-34.1504-31.1296l-26.0096-10.8032a68.28544 68.28544 0 0 1-36.9152-36.9152l-36.8128-88.9856c0-0.0512-0.0512-0.1024-0.0512-0.1536-9.6256-0.4096-19.456 1.1264-28.8768 5.0688l-88.9856 36.8128a68.1216 68.1216 0 0 1-52.224-0.0512l-88.9344-36.9152c-34.816-14.4384-74.7008 2.048-89.1392 36.864l-36.9152 88.9344a68.28544 68.28544 0 0 1-36.9152 36.9152l-88.9856 36.8128c-34.816 14.3872-51.3536 54.272-36.9664 89.088l36.8128 88.9856c6.912 16.6912 6.912 35.4816-0.0512 52.224l-36.9152 88.9344c-8.0896 19.5584-6.4512 40.6528 2.7136 58.0096l62.976 26.112c14.6944 6.0928 26.7264 17.152 34.1504 31.1296l26.0096 10.8032c16.6912 6.912 30.0032 20.224 36.9152 36.9152l36.8128 88.9856c0 0.0512 0.0512 0.1024 0.0512 0.1536 9.6256 0.4096 19.456-1.1264 28.8768-5.0688l88.9856-36.8128c16.6912-6.912 35.4816-6.912 52.224 0.0512l88.9344 36.9152c34.816 14.4384 74.7008-2.048 89.1392-36.864l36.9152-88.9344c6.912-16.7424 20.1728-30.0032 36.9152-36.9152z" fill="#7676F4" p-id="27493"></path><path d="M821.4528 554.3424l-36.8128-88.9856c-6.912-16.6912-6.912-35.4816 0.0512-52.224l36.9152-88.9344c6.9632-16.8448 6.656-34.8672 0.6144-50.6368l-33.792-14.0288a68.28544 68.28544 0 0 1-36.9152-36.9152l-0.6656-1.6384-55.04-22.8352a68.28544 68.28544 0 0 1-36.9152-36.9152l-27.5456-66.6112c-1.9456 0.6144-3.84 1.28-5.7344 2.048l-88.9856 36.8128a68.1216 68.1216 0 0 1-52.224-0.0512l-88.9344-36.9152c-34.816-14.4384-74.7008 2.048-89.1392 36.864l-36.9152 88.9344a68.28544 68.28544 0 0 1-36.9152 36.9152l-88.9856 36.8128c-34.816 14.3872-51.3536 54.272-36.9664 89.088L143.36 474.112c6.912 16.6912 6.912 35.4816-0.0512 52.224l-36.9152 88.9344c-6.9632 16.8448-6.656 34.8672-0.6144 50.6368l33.792 14.0288c16.6912 6.912 30.0032 20.224 36.9152 36.9152l0.6656 1.6384 55.04 22.8352c16.6912 6.912 30.0032 20.224 36.9152 36.9152l27.5456 66.6112c1.9456-0.6144 3.84-1.28 5.7344-2.048l88.9856-36.8128c16.6912-6.912 35.4816-6.912 52.224 0.0512l88.9344 36.9152c34.816 14.4384 74.7008-2.048 89.1392-36.864l36.9152-88.9344c6.912-16.6912 20.224-30.0032 36.9152-36.9152l88.9856-36.8128c34.816-14.3872 51.3536-54.272 36.9664-89.088z" fill="#7A7AFC" p-id="27494"></path><path d="M712.1408 366.592a63.50848 63.50848 0 0 0-43.776-21.9648c-16.9984-1.2288-33.536 4.2496-46.4896 15.4624l-182.3744 157.8496-53.4016-68.4544a63.62624 63.62624 0 0 0-42.5984-24.1664c-16.9472-2.0992-33.7408 2.5088-47.2064 13.056a63.62624 63.62624 0 0 0-24.1664 42.5984c-2.0992 16.9472 2.5088 33.7408 13.056 47.2064l83.4048 106.9568a82.07872 82.07872 0 0 0 64.3072 31.488c19.6608 0 38.656-7.0656 53.504-19.9168l219.3408-189.8496c12.9024-11.2128 20.736-26.7264 21.9648-43.776s-4.352-33.5872-15.5648-46.4896z" fill="#6969E8" p-id="27495"></path><path d="M432.8448 643.5328c-1.8944 0-3.7376-0.1024-5.632-0.256-15.9232-1.536-30.6688-9.6768-40.4992-22.272L303.3088 514.048c-13.9264-17.8176-10.7008-43.5712 7.1168-57.4976 17.8688-13.9264 43.5712-10.7008 57.4976 7.1168l68.2496 87.6032 200.7552-173.7216c17.1008-14.7968 42.9568-12.9536 57.7536 4.1472 14.7968 17.1008 12.9536 42.9568-4.1472 57.7536L471.2448 629.248a58.6752 58.6752 0 0 1-38.4 14.2848z" fill="#E54F2C" p-id="27496"></path><path d="M636.928 377.4976l-200.704 173.7728-68.3008-87.6032c-13.9264-17.8176-39.6288-21.0432-57.4976-7.1168a40.58624 40.58624 0 0 0-13.7216 19.456c1.4336 4.352 3.584 8.6016 6.6048 12.4416l83.4048 106.9568c9.8304 12.5952 24.576 20.736 40.4992 22.272 1.8944 0.2048 3.7376 0.256 5.632 0.256 14.0288 0 27.7504-5.0688 38.4-14.2848l219.3408-189.8496a41.09312 41.09312 0 0 0 12.0832-18.2272c-1.6384-4.9664-4.2496-9.728-7.936-13.9264-14.7968-17.1008-40.704-18.944-57.8048-4.1472z" fill="#FF7D5F" p-id="27497"></path></svg>