<?xml version="1.0" encoding="utf-8"?>
<!-- Generator: Adobe Illustrator 23.1.0, SVG Export Plug-In . SVG Version: 6.00 Build 0)  -->
<svg version="1.1" xmlns="http://www.w3.org/2000/svg" xmlns:xlink="http://www.w3.org/1999/xlink" x="0px" y="0px"
	 viewBox="0 0 1200 1200" style="enable-background:new 0 0 1200 1200;" xml:space="preserve">
<style type="text/css">
	.st0{fill:#F3F6FA;}
	.st1{fill:#D4F1F3;}
	.st2{fill:#C7D8FD;}
	.st3{fill:#FABBD8;}
	.st4{fill:#FCE088;}
	.st5{fill:#6179EF;}
	.st6{fill:#F1F6FF;}
	.st7{fill:#D0E2FF;}
	.st8{fill:url(#SVGID_1_);}
	.st9{opacity:0.19;fill:#0B1066;}
	.st10{fill:#99A2EB;}
	.st11{fill:#FFFFFF;}
	.st12{fill:#B4D1FF;}
	.st13{fill:#F2F5F9;}
	.st14{fill:none;stroke:#F5634A;stroke-miterlimit:10;}
	.st15{fill:#FFFFFF;stroke:#F5634A;stroke-miterlimit:10;}
	.st16{fill:url(#SVGID_2_);}
	.st17{fill:#856CF2;}
	.st18{fill:#F9BC00;}
	.st19{fill:#F16261;}
	.st20{fill:url(#SVGID_3_);}
	.st21{fill:url(#SVGID_4_);}
	.st22{fill:#DEE8FF;}
	.st23{fill:#B0CAE0;}
	.st24{fill:#53C8CE;}
	.st25{fill:#E5ECF5;}
	.st26{fill:#FACA00;}
	.st27{opacity:0.19;}
	.st28{fill:#0B1066;}
	.st29{fill:#5DD777;}
	.st30{fill:url(#SVGID_5_);}
	.st31{fill:#F5634A;}
	.st32{fill:url(#SVGID_6_);}
	.st33{fill:#FBD72A;}
	.st34{fill:url(#SVGID_7_);}
	.st35{fill:#B6D2FF;}
	.st36{fill:#F56463;}
	.st37{fill:#FDEBE5;}
	.st38{fill:#F9D62B;}
	.st39{fill:#FEFFF9;}
	.st40{fill:#1D2088;}
	.st41{fill:url(#SVGID_8_);}
	.st42{fill:#8E74F3;}
	.st43{fill:#F66463;}
	.st44{fill:#2C6FFF;}
	.st45{fill:#EFB594;}
	.st46{fill:#241F4B;}
	.st47{fill:#2942C5;}
	.st48{fill:url(#SVGID_9_);}
	.st49{fill:#150B48;}
	.st50{fill:#423566;}
	.st51{fill:#FBCFBC;}
	.st52{fill:#E04034;}
	.st53{fill:url(#SVGID_10_);}
	.st54{fill:#C1DEFF;}
	.st55{fill:#193C87;}
	.st56{fill:#E5E6EB;}
	.st57{fill:#D1AA05;}
	.st58{fill:url(#SVGID_11_);}
	.st59{fill:#9175F5;}
	.st60{fill:#8AAAFF;}
	.st61{fill:url(#SVGID_12_);}
	.st62{fill:#10224F;}
	.st63{fill:#211D42;}
	.st64{fill:#322D76;}
	.st65{fill:#E84538;}
	.st66{fill:url(#SVGID_13_);}
	.st67{fill:#222220;}
	.st68{fill:url(#SVGID_14_);}
	.st69{fill:#5B9BFD;}
	.st70{fill:#EC6941;}
	.st71{fill:#EB3F17;}
	.st72{fill:#E59A05;}
	.st73{fill:#1A96CF;}
	.st74{fill:#193D9D;}
	.st75{fill:#365ECE;}
	.st76{fill:url(#SVGID_15_);}
	.st77{fill:url(#SVGID_16_);}
	.st78{fill:#F385B5;}
	.st79{fill:#E26DA5;}
	.st80{fill:url(#SVGID_17_);}
	.st81{fill:#2A5CD0;}
	.st82{fill:#F7F8F8;}
	.st83{fill:url(#SVGID_18_);}
	.st84{fill:url(#SVGID_19_);}
	.st85{fill:#DCE7FF;}
	.st86{fill:#3970FF;}
	.st87{fill:url(#SVGID_20_);}
	.st88{fill:#FCBD1F;}
	.st89{clip-path:url(#SVGID_22_);fill:#718BEA;}
	.st90{clip-path:url(#SVGID_22_);fill:#708AEA;}
	.st91{clip-path:url(#SVGID_22_);fill:#6F89EB;}
	.st92{clip-path:url(#SVGID_22_);fill:#6E88EB;}
	.st93{clip-path:url(#SVGID_22_);fill:#6D87EB;}
	.st94{clip-path:url(#SVGID_22_);fill:#6C86EB;}
	.st95{clip-path:url(#SVGID_22_);fill:#6B85EC;}
	.st96{clip-path:url(#SVGID_22_);fill:#6A84EC;}
	.st97{clip-path:url(#SVGID_22_);fill:#6983EC;}
	.st98{clip-path:url(#SVGID_22_);fill:#6981ED;}
	.st99{clip-path:url(#SVGID_22_);fill:#6880ED;}
	.st100{clip-path:url(#SVGID_22_);fill:#677FED;}
	.st101{clip-path:url(#SVGID_22_);fill:#667EEE;}
	.st102{clip-path:url(#SVGID_22_);fill:#657DEE;}
	.st103{clip-path:url(#SVGID_22_);fill:#647CEE;}
	.st104{clip-path:url(#SVGID_22_);fill:#637BEE;}
	.st105{clip-path:url(#SVGID_22_);fill:#627AEF;}
	.st106{clip-path:url(#SVGID_22_);fill:#6179EF;}
	.st107{clip-path:url(#SVGID_24_);fill:#718BEA;}
	.st108{clip-path:url(#SVGID_24_);fill:#708AEA;}
	.st109{clip-path:url(#SVGID_24_);fill:#6F89EB;}
	.st110{clip-path:url(#SVGID_24_);fill:#6E88EB;}
	.st111{clip-path:url(#SVGID_24_);fill:#6D87EB;}
	.st112{clip-path:url(#SVGID_24_);fill:#6C86EB;}
	.st113{clip-path:url(#SVGID_24_);fill:#6B85EC;}
	.st114{clip-path:url(#SVGID_24_);fill:#6A84EC;}
	.st115{clip-path:url(#SVGID_24_);fill:#6983EC;}
	.st116{clip-path:url(#SVGID_24_);fill:#6981ED;}
	.st117{clip-path:url(#SVGID_24_);fill:#6880ED;}
	.st118{clip-path:url(#SVGID_24_);fill:#677FED;}
	.st119{clip-path:url(#SVGID_24_);fill:#667EEE;}
	.st120{clip-path:url(#SVGID_24_);fill:#657DEE;}
	.st121{clip-path:url(#SVGID_24_);fill:#647CEE;}
	.st122{clip-path:url(#SVGID_24_);fill:#637BEE;}
	.st123{clip-path:url(#SVGID_24_);fill:#627AEF;}
	.st124{clip-path:url(#SVGID_24_);fill:#6179EF;}
	.st125{fill:#6252DB;}
	.st126{fill:url(#SVGID_25_);}
	.st127{fill:url(#SVGID_26_);}
	.st128{clip-path:url(#SVGID_28_);fill:#202875;}
	.st129{clip-path:url(#SVGID_28_);fill:#202774;}
	.st130{clip-path:url(#SVGID_28_);fill:#202773;}
	.st131{clip-path:url(#SVGID_28_);fill:#1F2672;}
	.st132{clip-path:url(#SVGID_28_);fill:#1F2571;}
	.st133{clip-path:url(#SVGID_28_);fill:#1F2570;}
	.st134{clip-path:url(#SVGID_28_);fill:#1F246F;}
	.st135{clip-path:url(#SVGID_28_);fill:#1E236E;}
	.st136{clip-path:url(#SVGID_28_);fill:#1E236D;}
	.st137{clip-path:url(#SVGID_28_);fill:#1E226C;}
	.st138{clip-path:url(#SVGID_28_);fill:#1E226B;}
	.st139{clip-path:url(#SVGID_28_);fill:#1D216A;}
	.st140{clip-path:url(#SVGID_28_);fill:#1D2069;}
	.st141{clip-path:url(#SVGID_28_);fill:#1D2068;}
	.st142{clip-path:url(#SVGID_28_);fill:#1D1F67;}
	.st143{clip-path:url(#SVGID_28_);fill:#1C1E66;}
	.st144{clip-path:url(#SVGID_28_);fill:#1C1E65;}
	.st145{clip-path:url(#SVGID_28_);fill:#1C1D64;}
	.st146{clip-path:url(#SVGID_28_);fill:#1C1C63;}
	.st147{clip-path:url(#SVGID_28_);fill:#1B1C62;}
	.st148{clip-path:url(#SVGID_28_);fill:#1B1B61;}
	.st149{clip-path:url(#SVGID_28_);fill:#1B1A60;}
	.st150{clip-path:url(#SVGID_28_);fill:#1B1A5F;}
	.st151{clip-path:url(#SVGID_28_);fill:#1A195E;}
	.st152{clip-path:url(#SVGID_28_);fill:#1A195D;}
	.st153{clip-path:url(#SVGID_28_);fill:#1A185B;}
	.st154{clip-path:url(#SVGID_28_);fill:#1A175A;}
	.st155{clip-path:url(#SVGID_28_);fill:#191759;}
	.st156{clip-path:url(#SVGID_28_);fill:#191658;}
	.st157{clip-path:url(#SVGID_28_);fill:#191557;}
	.st158{clip-path:url(#SVGID_28_);fill:#191556;}
	.st159{clip-path:url(#SVGID_28_);fill:#181455;}
	.st160{clip-path:url(#SVGID_28_);fill:#181354;}
	.st161{clip-path:url(#SVGID_28_);fill:#181353;}
	.st162{clip-path:url(#SVGID_28_);fill:#181252;}
	.st163{clip-path:url(#SVGID_28_);fill:#171151;}
	.st164{clip-path:url(#SVGID_28_);fill:#171150;}
	.st165{clip-path:url(#SVGID_28_);fill:#17104F;}
	.st166{clip-path:url(#SVGID_28_);fill:#170F4E;}
	.st167{clip-path:url(#SVGID_28_);fill:#160F4D;}
	.st168{clip-path:url(#SVGID_28_);fill:#160E4C;}
	.st169{clip-path:url(#SVGID_28_);fill:#160E4B;}
	.st170{clip-path:url(#SVGID_28_);fill:#160D4A;}
	.st171{clip-path:url(#SVGID_28_);fill:#150C49;}
	.st172{clip-path:url(#SVGID_28_);fill:#150C48;}
	.st173{clip-path:url(#SVGID_28_);fill:#150B47;}
	.st174{clip-path:url(#SVGID_28_);fill:#150A46;}
	.st175{clip-path:url(#SVGID_28_);fill:#140A45;}
	.st176{clip-path:url(#SVGID_28_);fill:#140944;}
	.st177{fill:url(#SVGID_29_);}
	.st178{fill:#90BCFC;}
	.st179{fill:#191759;}
	.st180{fill:#B6D7FF;}
	.st181{fill:url(#SVGID_30_);}
	.st182{fill:url(#SVGID_31_);}
	.st183{fill:url(#SVGID_32_);}
	.st184{fill:url(#SVGID_33_);}
	.st185{fill:url(#SVGID_34_);}
	.st186{fill:#DBA203;}
	.st187{fill:url(#SVGID_35_);}
	.st188{fill:url(#SVGID_36_);}
	.st189{fill:url(#SVGID_37_);}
	.st190{fill:url(#SVGID_38_);}
	.st191{fill:url(#SVGID_39_);}
	.st192{fill:url(#SVGID_40_);}
	.st193{fill:#353B42;}
	.st194{fill:url(#SVGID_41_);}
	.st195{fill:url(#SVGID_42_);}
	.st196{fill:#F6AA94;}
	.st197{fill:url(#SVGID_43_);}
	.st198{fill:url(#SVGID_44_);}
	.st199{fill:#F3BE3E;}
	.st200{fill:#FACE46;}
	.st201{fill:url(#SVGID_45_);}
</style>
<g id="暂无内容">
	<g>
		<path class="st0" d="M804.04,257.06c-109.59,20.55-151.8,41.47-272.12-11.3s-305.21-12.67-369.84,75.46
			c-46.76,63.76-64.31,184.43-19.79,210.44c55.54,32.45,38.19,108.01-68.42,168.96C29.18,726.17,52.53,918.93,270.02,939.5
			c217.5,20.57,822.78,112.7,849.62-161c10.18-81.39-77.74-120.75-62.94-180.67s147.41-141.12,70.89-270.25
			C1062.97,218.53,866.05,245.43,804.04,257.06z"/>
		<g>
			<path class="st5" d="M879.26,435.23H248.97c-13.07,0-23.67,10.6-23.67,23.67v402.26c0,13.07,10.6,23.67,23.67,23.67h225.01v23.1
				h180.27v-23.1h225.01c13.07,0,23.67-10.6,23.67-23.67V458.9C902.93,445.83,892.33,435.23,879.26,435.23z"/>
			<path class="st6" d="M869.67,853.11H258.3c-0.8,0-1.45-0.65-1.45-1.45V468.39c0-0.8,0.65-1.45,1.45-1.45h611.37
				c0.8,0,1.45,0.65,1.45,1.45v383.27C871.12,852.46,870.47,853.11,869.67,853.11z"/>
			<linearGradient id="SVGID_1_" gradientUnits="userSpaceOnUse" x1="107.7261" y1="916.6248" x2="1018.6375" y2="916.6248">
				<stop  offset="0" style="stop-color:#405AB1"/>
				<stop  offset="1" style="stop-color:#0B1066"/>
			</linearGradient>
			<path class="st8" d="M1011.79,928.18h-85.31c11.95-7.88,19.85-21.41,19.85-36.8l0,0h-766.3l0,0c0,15.39,7.9,28.91,19.85,36.8
				h-85.31c-3.78,0-6.85,3.07-6.85,6.85c0,3.78,3.06,6.85,6.85,6.85h897.22c3.78,0,6.85-3.07,6.85-6.85
				C1018.64,931.24,1015.57,928.18,1011.79,928.18z"/>
			<rect x="295.47" y="508.02" class="st54" width="494.18" height="80.9"/>
			<rect x="295.47" y="738.37" class="st54" width="494.18" height="29.99"/>
			<rect x="295.47" y="783.8" class="st54" width="494.18" height="14.85"/>
			<rect x="295.47" y="814.09" class="st54" width="494.18" height="14.85"/>
			<rect x="295.47" y="612.7" class="st54" width="161.01" height="101.72"/>
			<rect x="486.23" y="612.7" class="st54" width="161.01" height="101.72"/>
			<circle class="st11" cx="349.67" cy="548.47" r="28.3"/>
			<rect x="390.58" y="528.97" class="st11" width="240.45" height="7.44"/>
			<rect x="390.58" y="545.18" class="st11" width="240.45" height="7.44"/>
			<rect x="390.58" y="561.39" class="st11" width="240.45" height="7.44"/>
		</g>
		<g>
			<rect x="599.41" y="359.47" class="st9" width="362.13" height="435.46"/>
			<rect x="599.41" y="359.47" class="st11" width="344.33" height="417.66"/>
			<rect x="599.41" y="359.47" class="st5" width="344.33" height="125.14"/>
			<circle class="st55" cx="857.17" cy="469.46" r="52.61"/>
			<path class="st11" d="M865.77,470.82c6.77-3.22,11.46-10.11,11.46-18.1c0-11.08-8.98-20.06-20.06-20.06s-20.06,8.98-20.06,20.06
				c0,8,4.69,14.88,11.46,18.1c-11.15,1.71-19.69,11.32-19.69,22.95v7.57h56.59v-7.57C885.47,482.14,876.92,472.54,865.77,470.82z"
				/>
			<rect x="671.41" y="523.93" class="st31" width="131.78" height="23.38"/>
			<circle class="st18" cx="635.81" cy="536.41" r="17.14"/>
			<rect x="671.41" y="572.81" class="st31" width="216.27" height="23.38"/>
			<rect x="616.68" y="687.59" class="st56" width="299.7" height="11.69"/>
			<rect x="616.68" y="709.38" class="st56" width="299.7" height="11.69"/>
			<rect x="616.68" y="731.69" class="st56" width="299.7" height="11.69"/>
			<rect x="616.68" y="752.95" class="st56" width="299.7" height="11.69"/>
			<circle class="st18" cx="635.81" cy="585.3" r="17.14"/>
			<rect x="671.41" y="629.14" class="st31" width="106.01" height="23.38"/>
			<circle class="st18" cx="635.81" cy="641.63" r="17.14"/>
		</g>
		<g>
			<polygon class="st28" points="828.64,555.18 793.22,489.26 785.61,491.09 822.08,560.94 			"/>
			<path class="st28" d="M945.41,695.13c0,0-9.97,102.02-9.71,125.04s-4.2,105.16-4.2,105.16h20.73l17.84-119.29l21.52-52.06
				c0,0,7.61,70.37,10.5,90.25c2.89,19.88,9.18,78.74,9.18,78.74l17.84-0.26c0,0,0.26-70.11,1.84-86.85s7.35-84.76,8.92-94.7
				s1.57-38.45-4.72-57.29S945.41,695.13,945.41,695.13z"/>
			<path class="st51" d="M943.63,560.09c0,0-31.75,16.96-42.63,16.02c-10.88-0.94-47.54-12.04-57.53-19.72
				c-9.99-7.68-10.12-14.34-14.47-12.84c-4.36,1.51-9.91,3.1-14.84,6.18c-4.93,3.09,1.79,5.86,2.52,11.29
				c0.73,5.42,5.51,5.09,14.5,8.39c8.99,3.3,42.02,23.73,64.54,24.19s40.99-2.89,57.26-13.11
				C944.59,566.36,943.63,560.09,943.63,560.09z"/>
			<polygon class="st24" points="899.75,588.41 827.85,600.7 861.18,657.99 945.67,651.97 			"/>
			<path class="st51" d="M1005.5,492.93c0,0,5.9,16.87,1.18,27.07c-4.72,10.2-3.94,14.91-0.39,32.18s-20.07,20.8-20.07,20.8
				l-5.12-20.4c0,0,3.94-15.7-0.79-19.62c-4.72-3.92-12.2-23.54-5.12-41.99C996.05,490.18,1005.5,492.93,1005.5,492.93z"/>
			<path class="st28" d="M990.93,499.07c-4.07-0.92-5.9,0.26-9.71,4.45c-3.8,4.19-9.58,6.67-14.83,1.18
				c-5.25-5.49-1.97-14.13-4.72-15.83c-2.76-1.7-12.07-9.94,4.46-14.52c16.53-4.58,11.15-19.49,26.63-10.59
				c15.48,8.89,26.9,6.02,26.24,19.36c-0.66,13.34-1.97,16.22,0.79,21.71c2.76,5.49-2.89,12.69-7.74,13.73
				c-4.85,1.05-9.45-4.19-7.74-10.86c1.71-6.67-5.51-6.15-8-4.71C993.82,504.44,990.93,499.07,990.93,499.07z"/>
			<path class="st26" d="M928.94,561.2l19.94,26.16l-6.78,116.46c0,0,34.37,39.5,102.6,1.57c0-46.56,7.57-133.99-8.7-152.3
				c-16.27-18.31-32.54-21.19-32.54-21.19s-1.84,18.31-12.07,17.27s-8.4-8.57-8.86-14.98C958.92,542.82,928.94,561.2,928.94,561.2z"
				/>
			<path class="st51" d="M982.08,598.18l23.42,18.54c0,0-45.07,45.52-68.09,48.66c-23.03,3.14-69.08,3.53-76.16-2.55
				c-7.08-6.08-2.36-9.81,6.49-9.03c8.86,0.78,58.45-5.1,72.03-11.97S982.08,598.18,982.08,598.18z"/>
			<path class="st28" d="M952.36,922.59c0,0-14.17,1.77-19.29-0.98c-6.49-0.98-12.79,4.71-19.88,5.1s-13.19,0.2-13.97,6.47
				s42.31,6.08,49.59,6.08c6.3,0.2,6.3,0.2,6.3,0.2S956.69,922,952.36,922.59z"/>
			<path class="st28" d="M1029.51,922.59c0,0-14.17,1.77-19.29-0.98c-6.49-0.98-12.79,4.71-19.88,5.1
				c-7.08,0.39-13.19,0.2-13.97,6.47c-0.79,6.28,42.31,6.08,49.59,6.08c6.3,0.2,6.3,0.2,6.3,0.2S1033.83,922,1029.51,922.59z"/>
			<path class="st57" d="M1005.5,616.72l5.51,4.25L1032,595.6c0,0-21.39,36.23-21.78,34.92c-0.39-1.31-9.97-8.5-9.97-8.5
				L1005.5,616.72z"/>
		</g>
		<g>
			
				<linearGradient id="SVGID_2_" gradientUnits="userSpaceOnUse" x1="2189.5767" y1="527.1053" x2="2273.4426" y2="527.1053" gradientTransform="matrix(-1 0 0 1 2435.5183 0)">
				<stop  offset="0" style="stop-color:#202875"/>
				<stop  offset="1" style="stop-color:#140944"/>
			</linearGradient>
			<path class="st16" d="M178.06,571.36c0,0-9.1-10.38-14.55-22.52s5.89-19.24,11.96-29.49c6.07-10.26,8.81-10.61,7.97-17.93
				s11.47-34.7,32.81-21.52c5.23-2.3,21.98,9,19.25,21.56c-2.72,12.56-7.12,21.56,0.21,29.51c7.33,7.95,11.93,27.42,9.63,32.23
				s-61.53,14.65-61.53,14.65L178.06,571.36z"/>
			<path class="st51" d="M216.25,492.92c0,0,3.97,2.5,7.84,5.11c3.87,2.62,7.13,14.73,4.09,23.73c-3.03,9-4.29,10.88-6.59,11.2
				c0,8.69-1.88,20.51-1.88,20.51l-17.68,1.88c0,0,1.99-19.78,1.99-26.37s-5.44-6.07-6.38-9.21s-6.8-7.01-5.96-10.05
				c0.84-3.03,5.32-1.62,6.79-0.47C199.92,510.41,203.32,495.12,216.25,492.92z"/>
			<polygon class="st51" points="267.09,546.06 296.05,552.03 302.56,582.72 251.42,566.91 			"/>
			<path class="st59" d="M276.53,545.83l-0.42,39.14l-12.63,88.11h-94.32c0,0,1.67-71.16,1.95-87.62
				c0.28-16.46,5.72-48.55,31.53-47.16c2.23,7.12,11.44,13.39,11.44,13.39s7.53-9.77,8.37-12.56
				C229.02,538.29,253.58,538.57,276.53,545.83z"/>
			<polygon class="st51" points="274.41,908.26 275.38,929.64 260.56,931.82 257.64,909.47 			"/>
			<polygon class="st51" points="192.42,912.25 192.19,931.99 178.43,933.22 176.92,912.49 			"/>
			<path class="st28" d="M173.35,664.28c0,0-5.44,201.33,0.84,256.17c11.72,0,21.35,0,21.35,0l28.88-195.47l30.14,193.8h24.7
				L277.16,748l-2.93-65.3l-27.21-28.04L173.35,664.28z"/>
			<path class="st18" d="M367.39,478.18l116.34,115.23c4.26,4.22,4.26,11.1,0,15.32L295.68,794.84c-4.06,4.02-10.54,4.17-14.79,0.35
				L164.05,690.15c-4.53-4.07-4.79-11.09-0.57-15.48l188.55-196.29C356.2,474.04,363.12,473.95,367.39,478.18z"/>
			<polygon class="st11" points="409.57,539.2 423.87,552.94 374.75,603.73 360.24,589.43 			"/>
			<polygon class="st11" points="430.81,558.56 445.11,572.3 396,623.09 381.49,608.79 			"/>
			<polygon class="st11" points="453.81,582.29 473.3,602.41 289.42,785.91 269.73,765.22 			"/>
			<polygon class="st11" points="221.91,632.68 266.06,673.7 224.84,720.37 176.91,678.31 			"/>
			<path class="st51" d="M204.48,590.74l-29.89-0.45c0,0,9.82,47.3,23.2,84.77c13.39,37.48,16.29,41.05,16.51,46.4
				c0.22,5.35-4.46,15.17,0.22,19.19c4.68,4.02,9.59,17.18,16.06,12.27c6.47-4.91,11.82-9.82,7.36-20.75s-22.98-64.25-22.98-64.25
				l-8.03-77.41L204.48,590.74z"/>
			<path class="st49" d="M256.93,925.78v13.23c0,1.18,1.1,2.13,2.45,2.12c8.47-0.06,36.19-0.24,39.75-0.29
				c4.21-0.06,9.48-2.89,9.55-6.05c-1.33-2.6-15.76-4.97-29.93-10.41C270.82,925.68,264.42,928.7,256.93,925.78z"/>
			<path class="st49" d="M175.9,927.77v12.21c0,1.09,1.01,1.96,2.26,1.96c7.82-0.05,33.38-0.22,36.67-0.27
				c3.89-0.06,8.74-2.66,8.81-5.59c-1.23-2.4-14.54-4.59-27.61-9.6C188.72,927.68,182.82,930.46,175.9,927.77z"/>
		</g>
		<g class="st27">
			<path class="st28" d="M443.3,353.37c-5.18-5.19-10.37-10.37-15.55-15.56c-0.4-0.4-0.77-0.82-1.22-1.3
				c0.59-0.56,1.1-1.02,1.59-1.51c2.88-2.87,2.87-5.09-0.05-8.01c-4.66-4.66-9.32-9.32-13.98-13.98
				c-5.41-5.41-10.81-10.83-16.24-16.23c-2.31-2.29-4.85-2.29-7.14-0.02c-0.64,0.63-1.16,1.37-2.17,2.59
				c-0.53-0.87-0.74-1.47-1.15-1.88c-5.17-5.21-10.35-10.39-15.54-15.57c-4.35-4.34-9.2-4.34-13.56,0.01
				c-7.64,7.62-15.26,15.25-22.88,22.88c-4.34,4.35-4.34,9.22-0.02,13.56c5.18,5.19,10.36,10.38,15.57,15.54
				c0.41,0.4,1.02,0.6,1.53,0.89c-0.06,0.24-0.13,0.48-0.19,0.72c-0.47,0.34-1,0.63-1.41,1.04c-5.16,5.14-10.27,10.32-15.45,15.44
				c-2.24,2.21-3.35,4.76-3.3,7.97c0.11,7.76,0.06,15.52,0.07,23.28c0.01,6.34,3.62,9.93,10.01,9.93c7.6-0.01,15.2-0.09,22.8-0.01
				c3.36,0.04,6.06-1.1,8.39-3.47c5.15-5.22,10.36-10.38,15.55-15.56c0.35-0.35,0.73-0.68,1.14-1.06
				c5.64,5.65,11.2,11.21,16.76,16.77c4.5,4.5,9.27,4.49,13.79-0.02c7.56-7.55,15.11-15.1,22.66-22.66
				C447.8,362.65,447.8,357.88,443.3,353.37z M351.08,323.8c-3.13-0.29-4.99-1.29-6.06-3.4c-1.1-2.17-1.07-4.49,0.57-6.28
				c3.08-3.37,6.29-6.64,9.66-9.7c2.3-2.08,6.01-1.56,8.06,0.72c2.07,2.31,2.13,5.86-0.03,8.13c-2.79,2.92-5.6,5.82-8.58,8.54
				C353.56,322.85,351.93,323.35,351.08,323.8z M387.31,349.61c-5.55,5.63-11.18,11.2-16.77,16.79c-0.26,0.26-0.55,0.5-0.83,0.74
				c-3.32,2.87-8.1,2.69-11.24-0.43c-3-2.97-3.26-7.98-0.25-11.1c5.9-6.11,11.95-12.08,17.98-18.06c1.49-1.48,3.43-2.07,5.17-2.14
				c3.61-0.01,6.61,1.93,7.85,4.97C390.63,343.87,389.89,346.99,387.31,349.61z M420.7,370.37c-2.96,3.12-6,6.16-9.13,9.1
				c-1.88,1.76-4.2,2-6.51,0.89c-2.26-1.09-3.27-3.05-3.51-6.16c0.42-0.82,0.84-2.33,1.78-3.36c2.8-3.04,5.69-6.03,8.78-8.77
				c3.53-3.13,8.69-1.49,9.85,2.95C422.47,367.01,422.08,368.92,420.7,370.37z"/>
			<path class="st28" d="M429.76,317.23c1.73,1.73,3.43,3.48,5.21,5.15c1.78,1.66,4.04,1.67,5.88,0.08c0.92-0.8,1.78-1.67,2.64-2.53
				c4-3.95,4.3-9.34,0.39-13.33c-8.4-8.57-16.93-17.01-25.45-25.45c-1.68-1.66-3.83-2.42-6.25-2.57c-0.92,0.21-1.85,0.39-2.76,0.64
				c-2.61,0.73-4.2,2.8-5.97,4.61c-2.4,2.45-2.36,4.76,0.06,7.18C412.26,299.74,421.01,308.49,429.76,317.23z"/>
		</g>
		<g>
			<path class="st31" d="M437.19,348.19c-5.18-5.19-10.37-10.37-15.55-15.56c-0.4-0.4-0.77-0.82-1.22-1.3
				c0.59-0.56,1.1-1.02,1.59-1.51c2.88-2.87,2.87-5.09-0.05-8.01c-4.66-4.66-9.32-9.32-13.98-13.98
				c-5.41-5.41-10.81-10.83-16.24-16.23c-2.31-2.29-4.85-2.29-7.14-0.02c-0.64,0.63-1.16,1.37-2.17,2.59
				c-0.53-0.87-0.74-1.47-1.15-1.88c-5.17-5.21-10.35-10.39-15.54-15.57c-4.35-4.34-9.2-4.34-13.56,0.01
				c-7.64,7.62-15.26,15.25-22.88,22.88c-4.34,4.35-4.34,9.22-0.02,13.56c5.18,5.19,10.36,10.38,15.57,15.54
				c0.41,0.4,1.02,0.6,1.53,0.89c-0.06,0.24-0.13,0.48-0.19,0.72c-0.47,0.34-1,0.63-1.41,1.04c-5.16,5.14-10.27,10.32-15.45,15.44
				c-2.24,2.21-3.35,4.76-3.3,7.97c0.11,7.76,0.06,15.52,0.07,23.28c0.01,6.34,3.62,9.93,10.01,9.93c7.6-0.01,15.2-0.09,22.8-0.01
				c3.36,0.04,6.06-1.1,8.39-3.47c5.15-5.22,10.36-10.38,15.55-15.56c0.35-0.35,0.73-0.68,1.14-1.06
				c5.64,5.65,11.2,11.21,16.76,16.77c4.5,4.5,9.27,4.49,13.79-0.02c7.56-7.55,15.11-15.1,22.66-22.66
				C441.69,357.47,441.69,352.7,437.19,348.19z M344.97,318.61c-3.13-0.29-4.99-1.29-6.06-3.4c-1.1-2.17-1.07-4.49,0.57-6.28
				c3.08-3.37,6.29-6.64,9.66-9.7c2.3-2.08,6.01-1.56,8.06,0.72c2.07,2.31,2.13,5.86-0.03,8.13c-2.79,2.92-5.6,5.82-8.58,8.54
				C347.45,317.66,345.81,318.17,344.97,318.61z M381.2,344.43c-5.55,5.63-11.18,11.2-16.77,16.79c-0.26,0.26-0.55,0.5-0.83,0.74
				c-3.32,2.87-8.1,2.69-11.24-0.43c-3-2.97-3.26-7.98-0.25-11.1c5.9-6.11,11.95-12.08,17.98-18.06c1.49-1.48,3.43-2.07,5.17-2.14
				c3.61-0.01,6.61,1.93,7.85,4.97C384.52,338.69,383.78,341.81,381.2,344.43z M414.58,365.19c-2.96,3.12-6,6.16-9.13,9.1
				c-1.88,1.76-4.2,2-6.51,0.89c-2.26-1.09-3.27-3.05-3.51-6.16c0.42-0.82,0.84-2.33,1.78-3.36c2.8-3.04,5.69-6.03,8.78-8.77
				c3.53-3.13,8.69-1.49,9.85,2.95C416.36,361.83,415.97,363.73,414.58,365.19z"/>
			<path class="st31" d="M423.65,312.05c1.73,1.73,3.43,3.48,5.21,5.15c1.78,1.66,4.04,1.67,5.88,0.08c0.92-0.8,1.78-1.67,2.64-2.53
				c4-3.95,4.3-9.34,0.39-13.33c-8.4-8.57-16.93-17.01-25.45-25.45c-1.68-1.66-3.83-2.42-6.25-2.57c-0.92,0.21-1.85,0.39-2.76,0.64
				c-2.61,0.73-4.2,2.8-5.97,4.61c-2.4,2.45-2.36,4.76,0.06,7.18C406.15,294.56,414.9,303.31,423.65,312.05z"/>
		</g>
		<g>
			<path class="st60" d="M113.74,494.21c-29.47,0-53.45-23.98-53.45-53.45c0-29.47,23.98-53.45,53.45-53.45
				c29.47,0,53.45,23.98,53.45,53.45C167.18,470.24,143.21,494.21,113.74,494.21z M113.74,401.76c-21.51,0-39.01,17.5-39.01,39.01
				s17.5,39.01,39.01,39.01s39.01-17.5,39.01-39.01S135.25,401.76,113.74,401.76z"/>
		</g>
		<path class="st11" d="M666.71,403.79c0,12.55-10.18,22.73-22.73,22.73c-12.52,0-22.72-10.21-22.74-22.75
			c-0.02-12.56,10.22-22.83,22.76-22.79C656.96,381.03,666.81,391.61,666.71,403.79z M631.64,404.15c5.1,3.02,9.08,7.12,12.19,12.16
			c3.13-5.02,7.09-9.14,12.19-12.16c-5.08-3.09-9.11-7.13-12.2-12.24C640.78,397.04,636.71,401.05,631.64,404.15z"/>
		<path class="st11" d="M719.58,403.79c0,12.55-10.18,22.73-22.73,22.73c-12.52,0-22.72-10.21-22.74-22.75
			c-0.02-12.56,10.22-22.83,22.76-22.79C709.83,381.03,719.68,391.61,719.58,403.79z M684.52,404.15c5.1,3.02,9.08,7.12,12.19,12.16
			c3.13-5.02,7.09-9.14,12.19-12.16c-5.08-3.09-9.11-7.13-12.2-12.24C693.65,397.04,689.58,401.05,684.52,404.15z"/>
		<path class="st11" d="M772.99,403.79c0,12.55-10.18,22.73-22.73,22.73c-12.52,0-22.72-10.21-22.74-22.75
			c-0.02-12.56,10.22-22.83,22.76-22.79C763.24,381.03,773.08,391.61,772.99,403.79z M737.92,404.15c5.1,3.02,9.08,7.12,12.19,12.16
			c3.13-5.02,7.09-9.14,12.19-12.16c-5.08-3.09-9.11-7.13-12.2-12.24C747.05,397.04,742.98,401.05,737.92,404.15z"/>
	</g>
</g>
<g id="图层_2">
</g>
</svg>
