<svg width="957" height="774" viewBox="0 0 957 774" fill="none" xmlns="http://www.w3.org/2000/svg">
<path d="M481.539 33L194.254 198.864C162.687 217.089 151.871 257.454 170.097 289.022L335.961 576.307C354.186 607.874 394.551 618.69 426.118 600.464L713.403 434.6C744.971 416.375 755.786 376.01 737.561 344.443L571.697 57.1577C553.472 25.5904 513.107 14.7746 481.539 33Z" fill="#F3F6FF"/>
<path d="M291.991 219.944C296.248 203.291 313.083 193.271 329.595 197.564L603.945 268.893C620.457 273.186 630.391 290.166 626.135 306.819L581.253 482.421C576.997 499.074 560.161 509.093 543.65 504.801L269.299 433.472C252.788 429.178 242.853 412.199 247.11 395.546L291.991 219.944Z" fill="#282F48"/>
<path d="M287.963 212.603C292.22 195.95 309.055 185.93 325.567 190.223L599.917 261.552C616.428 265.845 626.363 282.825 622.107 299.478L577.224 475.079C572.969 491.732 556.133 501.753 539.621 497.459L265.271 426.13C248.76 421.837 238.825 404.857 243.082 388.204L287.963 212.603Z" fill="#6882E0"/>
<path d="M332.012 206.275L586.746 272.504C597.938 275.414 604.672 286.825 601.808 298.029L558.804 466.283C555.932 477.52 544.495 484.301 533.258 481.429C533.23 481.421 533.202 481.414 533.174 481.407L278.44 415.178C267.248 412.268 260.515 400.857 263.379 389.653L306.382 221.4C309.254 210.163 320.692 203.382 331.929 206.254C331.957 206.261 331.985 206.268 332.012 206.275Z" fill="#282F48"/>
<path fill-rule="evenodd" clip-rule="evenodd" d="M274.271 413.989C274.164 413.947 274.057 413.906 273.951 413.864C434.352 433.139 557.312 334.497 600.303 283.669H601.38C602.999 287.373 603.443 291.634 602.362 295.859L558.206 468.621C555.928 477.535 547.642 483.282 538.846 482.589L274.271 413.989Z" fill="#333A56"/>
<path d="M348.556 197.763L382.027 203.68L380.648 304.259L348.556 296.952V197.763Z" fill="#1BE3B3"/>
<path d="M382.028 203.68L399.282 182.45V260.408L380.648 304.259L382.028 203.68Z" fill="#1EC19A"/>
<path d="M382.027 203.68L348.556 197.763L366.5 176.882L399.281 182.45L382.027 203.68Z" fill="#5FFFD8"/>
<path d="M423.092 247.183L456.563 253.1L455.182 325.837L423.092 318.528V247.183Z" fill="#FFE071"/>
<path d="M456.563 253.1L473.815 231.87V281.986L455.182 325.837L456.563 253.1Z" fill="#D0B03D"/>
<path d="M456.563 253.1L423.092 247.183L441.035 226.302L473.817 231.87L456.563 253.1Z" fill="#FCEBB1"/>
<path d="M503.836 176.882L537.308 182.798L535.928 346.023L503.836 338.714V176.882Z" fill="#0B86DF"/>
<path d="M537.308 182.45L554.562 161.22V302.172L535.929 346.023L537.308 182.45Z" fill="#0A70BA"/>
<path d="M537.308 182.798L503.836 176.882L521.78 156L554.562 161.568L537.308 182.798Z" fill="#54B7FF"/>
<path d="M655.543 174.157L655.206 176.837C654.944 178.914 656.963 180.528 658.908 179.797L670.44 175.46C672.447 174.706 672.874 172.034 671.206 170.681L661.237 162.599C659.555 161.235 657.041 162.258 656.769 164.418L656.415 167.235C635.369 165.921 620.059 177.881 606.887 193.467C600.395 201.149 594.269 209.893 588.16 218.616L587.512 219.541C581.148 228.624 574.769 237.667 567.822 245.785C553.981 261.958 537.177 274.156 515.889 275.385C494.557 276.617 467.81 266.891 433.988 237.086C405.685 212.144 376.15 209.699 350.887 216.903C325.832 224.048 305.057 240.632 293.524 253.756C292.259 255.194 292.391 257.393 293.817 258.668C295.243 259.943 297.424 259.811 298.688 258.372C309.584 245.974 329.286 230.296 352.764 223.601C376.035 216.965 403.091 219.102 429.447 242.327C463.948 272.731 492.411 283.713 516.283 282.334C540.198 280.954 558.593 267.223 573.047 250.333C580.246 241.921 586.809 232.605 593.148 223.558L593.717 222.744C599.891 213.932 605.856 205.418 612.139 197.982C624.732 183.082 637.994 173.243 655.543 174.157Z" fill="#FF9330"/>
<path d="M302.859 319.314C304.483 312.564 311.266 308.458 317.935 310.187L549.318 370.169C555.861 371.865 559.839 378.548 558.246 385.169L543.324 447.21C541.7 453.959 534.917 458.066 528.247 456.337L296.864 396.355C290.321 394.659 286.344 387.976 287.937 381.355L302.859 319.314Z" fill="#49547B"/>
<mask id="mask0" mask-type="alpha" maskUnits="userSpaceOnUse" x="434" y="367" width="47" height="48">
<path d="M451.699 413.225C463.962 416.609 476.622 409.326 479.978 396.958C483.333 384.591 476.112 371.822 463.849 368.436C451.587 365.052 438.925 372.335 435.57 384.703C432.215 397.071 439.435 409.841 451.699 413.225ZM453.782 405.547C461.84 407.771 470.16 402.985 472.364 394.858C474.57 386.73 469.825 378.338 461.766 376.115C453.708 373.89 445.388 378.677 443.184 386.804C440.978 394.932 445.723 403.323 453.782 405.547Z" fill="white"/>
</mask>
<g mask="url(#mask0)">
<path d="M451.651 413.212C463.921 416.569 476.609 409.271 479.991 396.91C483.374 384.55 476.169 371.808 463.899 368.451C451.629 365.093 438.94 372.392 435.558 384.752C432.176 397.113 439.381 409.855 451.651 413.212Z" fill="#282F48"/>
</g>
<mask id="mask1" mask-type="alpha" maskUnits="userSpaceOnUse" x="434" y="367" width="47" height="48">
<path d="M451.699 413.225C463.962 416.609 476.622 409.326 479.978 396.958C483.333 384.591 476.112 371.822 463.849 368.436C451.587 365.052 438.925 372.335 435.57 384.703C432.215 397.071 439.435 409.841 451.699 413.225ZM453.782 405.547C461.84 407.771 470.16 402.985 472.364 394.858C474.57 386.73 469.825 378.338 461.766 376.115C453.708 373.89 445.388 378.677 443.184 386.804C440.978 394.932 445.723 403.323 453.782 405.547Z" fill="white"/>
</mask>
<g mask="url(#mask1)">
<path d="M479.978 396.958C481.179 392.529 481.051 387.841 479.611 383.484C478.17 379.128 475.481 375.3 471.884 372.487C468.287 369.672 463.943 367.997 459.401 367.671C454.86 367.348 450.325 368.388 446.37 370.663L457.775 390.831L479.978 396.958Z" fill="white"/>
</g>
<mask id="mask2" mask-type="alpha" maskUnits="userSpaceOnUse" x="371" y="350" width="47" height="47">
<path d="M388.593 395.81C400.857 399.194 413.517 391.911 416.873 379.543C420.228 367.176 413.007 354.406 400.745 351.022C388.482 347.638 375.822 354.92 372.466 367.288C369.111 379.656 376.332 392.426 388.593 395.81ZM390.677 388.132C398.735 390.356 407.055 385.57 409.26 377.443C411.465 369.314 406.72 360.923 398.662 358.7C390.604 356.475 382.283 361.262 380.078 369.389C377.874 377.516 382.619 385.908 390.677 388.132Z" fill="white"/>
</mask>
<g mask="url(#mask2)">
<path d="M388.545 395.797C400.815 399.154 413.504 391.856 416.886 379.495C420.268 367.135 413.064 354.393 400.793 351.035C388.523 347.678 375.835 354.976 372.453 367.337C369.07 379.697 376.275 392.439 388.545 395.797Z" fill="#282F48"/>
</g>
<mask id="mask3" mask-type="alpha" maskUnits="userSpaceOnUse" x="371" y="350" width="47" height="47">
<path d="M388.593 395.81C400.857 399.194 413.517 391.911 416.873 379.543C420.228 367.176 413.007 354.406 400.745 351.022C388.482 347.638 375.822 354.92 372.466 367.288C369.111 379.656 376.332 392.426 388.593 395.81ZM390.677 388.132C398.735 390.356 407.055 385.57 409.26 377.443C411.465 369.314 406.72 360.923 398.662 358.7C390.604 356.475 382.283 361.262 380.078 369.389C377.874 377.516 382.619 385.908 390.677 388.132Z" fill="white"/>
</mask>
<g mask="url(#mask3)">
<path d="M416.873 379.543C417.872 375.861 417.956 371.986 417.115 368.263C416.275 364.54 414.537 361.084 412.056 358.2C409.575 355.316 406.428 353.094 402.892 351.73C399.356 350.366 395.541 349.903 391.786 350.381C388.029 350.859 384.449 352.265 381.36 354.473C378.272 356.68 375.77 359.622 374.078 363.037C372.386 366.452 371.555 370.236 371.659 374.053C371.762 377.869 372.797 381.601 374.673 384.918L394.67 373.416L416.873 379.543Z" fill="white"/>
</g>
<mask id="mask4" mask-type="alpha" maskUnits="userSpaceOnUse" x="306" y="332" width="47" height="47">
<path d="M323.151 377.749C335.413 381.133 348.074 373.851 351.43 361.482C354.785 349.115 347.564 336.345 335.302 332.96C323.039 329.576 310.378 336.859 307.023 349.227C303.667 361.596 310.888 374.365 323.151 377.749ZM325.234 370.072C333.292 372.295 341.612 367.509 343.817 359.382C346.022 351.254 341.277 342.863 333.219 340.639C325.16 338.415 316.84 343.201 314.635 351.329C312.43 359.456 317.175 367.847 325.234 370.072Z" fill="white"/>
</mask>
<g mask="url(#mask4)">
<path d="M323.102 377.736C335.372 381.094 348.061 373.795 351.443 361.435C354.825 349.074 347.62 336.332 335.35 332.975C323.08 329.617 310.392 336.916 307.009 349.276C303.627 361.637 310.832 374.379 323.102 377.736Z" fill="#282F48"/>
</g>
<mask id="mask5" mask-type="alpha" maskUnits="userSpaceOnUse" x="306" y="332" width="47" height="47">
<path d="M323.151 377.749C335.413 381.133 348.074 373.851 351.43 361.482C354.785 349.115 347.564 336.345 335.302 332.96C323.039 329.576 310.378 336.859 307.023 349.227C303.667 361.596 310.888 374.365 323.151 377.749ZM325.234 370.072C333.292 372.295 341.612 367.509 343.817 359.382C346.022 351.254 341.277 342.863 333.219 340.639C325.16 338.415 316.84 343.201 314.635 351.329C312.43 359.456 317.175 367.847 325.234 370.072Z" fill="white"/>
</mask>
<g mask="url(#mask5)">
<path d="M351.43 361.482C352.631 357.053 352.504 352.365 351.063 348.008C349.622 343.652 346.933 339.825 343.336 337.011C339.739 334.196 335.395 332.521 330.853 332.196C326.312 331.872 321.777 332.912 317.822 335.187C313.867 337.462 310.67 340.868 308.635 344.976C306.599 349.084 305.817 353.708 306.388 358.264C306.958 362.819 308.855 367.102 311.839 370.571C314.823 374.039 318.759 376.537 323.151 377.749L329.226 355.355L351.43 361.482Z" fill="white"/>
</g>
<path d="M502.248 382.872C502.529 381.743 503.667 381.056 504.787 381.341L543.342 391.129C544.462 391.413 545.143 392.56 544.86 393.69C544.578 394.821 543.441 395.506 542.321 395.222L503.766 385.434C502.645 385.149 501.965 384.003 502.248 382.872Z" fill="white"/>
<path d="M499.517 393.808C499.799 392.678 500.936 391.992 502.058 392.277L530.465 399.489C531.587 399.773 532.266 400.92 531.984 402.051C531.701 403.181 530.564 403.866 529.444 403.582L501.035 396.37C499.915 396.085 499.234 394.939 499.517 393.808Z" fill="white"/>
<path d="M495.149 430.05C497.981 430.763 500.86 429.028 501.578 426.174C502.296 423.321 500.582 420.429 497.75 419.717C494.918 419.004 492.04 420.739 491.322 423.593C490.603 426.446 492.317 429.337 495.149 430.05Z" fill="white"/>
<path d="M513.943 434.822C516.775 435.535 519.653 433.8 520.371 430.946C521.09 428.092 519.376 425.201 516.544 424.488C513.712 423.775 510.833 425.511 510.115 428.364C509.397 431.218 511.11 434.109 513.943 434.822Z" fill="white"/>
<path d="M161.193 447.885L158.706 431.128C157.383 422.214 170.11 409.535 170.11 409.535L156.873 396.733L143.841 411.762L134.746 417.698L158.763 448.411L161.193 447.885Z" fill="#FFAE64"/>
<path d="M148.525 452.696L157.805 460.747C159.012 461.795 160.685 462.121 162.199 461.606C164.484 460.826 165.756 458.381 165.115 456.052C164.34 453.238 163.238 449.098 161.972 443.953C159.5 433.907 159.478 428.622 159.478 428.622C159.478 428.622 153.77 427.619 148.14 422.734C142.508 417.849 143.09 411.111 143.09 411.111C135.431 415.06 129.509 421.712 126.474 429.779L126.148 430.648L136.382 440.844L139.562 440.969L143.296 446.697C144.752 448.93 146.511 450.949 148.525 452.696Z" fill="#2C2770"/>
<path d="M261.522 514.471L246.664 508.124C238.76 504.746 234.829 488.067 234.829 488.067L217.803 492.434L223.489 510.536L223.761 520.894L260.734 516.709L261.522 514.471Z" fill="#FFAE64"/>
<path d="M259.091 527.173L270.277 523.65C271.732 523.191 272.835 521.995 273.173 520.507C273.684 518.259 272.334 516.004 270.122 515.362C267.447 514.586 263.532 513.415 258.717 511.873C249.319 508.866 245.015 506.243 245.015 506.243C245.015 506.243 241.343 510.383 234.555 512.521C227.768 514.658 222.585 510.821 222.585 510.821C221.961 519.02 224.402 527.156 229.435 533.653L229.978 534.352L243.384 531.125L245.078 528.602L251.6 528.428C254.143 528.359 256.664 527.937 259.091 527.173Z" fill="#2C2770"/>
<path d="M248.837 497.769L215.223 507.655L175.471 387.921L97.577 335.421C90.5587 330.69 84.8023 324.316 80.8079 316.853L65.1913 287.671L127.54 256.474L183.031 259.616L211.667 262.872C228.001 264.73 235.234 284.411 223.998 296.423L159.836 314.734L208.751 356.486C211.168 358.549 212.896 361.3 213.705 364.374L248.837 497.769Z" fill="#2C2770"/>
<path d="M137.599 404.335L187.149 294.982L228.611 289.814L167.489 427.911L137.599 404.335Z" fill="#2C2770"/>
<path d="M78.8696 291.962L84.5509 301.856C92.5005 315.699 103.53 327.527 116.785 336.422L184.611 381.939L224.528 504.228" stroke="white" stroke-width="1.04"/>
<path d="M153.207 309.063L192.178 299.711L178.239 331.992" stroke="white" stroke-width="1.04"/>
<path d="M144.555 408.236L158.939 376.223" stroke="white" stroke-width="1.04"/>
<path d="M170.02 194.816L153.485 185.033L147.567 212.744L163.339 221.635C174.803 228.097 189.346 223.588 195.136 211.777L229.448 141.786L239.064 136.018L246.806 130.678C249.459 128.849 251.157 125.933 251.437 122.725C251.641 120.397 250.757 118.107 249.042 116.518L240.389 108.502L252.269 94.4855C253.422 93.1242 253.089 91.0554 251.565 90.1252C250.455 89.4473 249.029 89.5885 248.074 90.471L231.984 105.33L229.024 103.808C227.809 103.184 226.329 103.422 225.371 104.396L219.49 110.376C218.135 111.753 217.303 113.558 217.135 115.482L216.017 128.264L170.02 194.816Z" fill="#FFBA5F"/>
<path d="M246.31 114.077L236.55 123.741C235.582 124.7 234.035 124.746 233.012 123.845C232.038 122.989 231.848 121.546 232.565 120.466L234.698 117.256" stroke="black" stroke-width="1.04"/>
<path d="M250.96 118.55L240.149 127.195C239.131 128.009 237.657 127.897 236.775 126.937C235.878 125.962 235.907 124.453 236.843 123.514L237.313 123.042" stroke="black" stroke-width="1.04"/>
<path d="M249.202 127.26L240.608 133.68C239.518 134.494 237.989 134.352 237.068 133.351C236.178 132.383 236.133 130.91 236.961 129.889L238.96 127.425" stroke="black" stroke-width="1.04"/>
<path d="M233.742 106.876L242.64 114.542C243.389 115.188 243.51 116.303 242.915 117.093C241.629 118.802 239.35 119.426 237.372 118.613L228.197 114.841C229.644 116.602 230.045 123.915 228.138 130.749" stroke="black" stroke-width="1.04"/>
<path d="M41.1393 203.501L59.8905 191.606L97.5512 179.595C113.664 174.455 131.065 175.082 146.766 181.366L169.232 190.356L166.765 228.791L137.76 219.491L140.503 237.167L154.655 268.29C156.748 272.894 154.279 278.283 149.424 279.709L76.8993 301.013C72.3803 302.34 67.6605 299.658 66.4912 295.099L57.5072 260.067L54.7109 276.267L26.7478 278.975L23.8506 237.716C22.8884 224.004 29.5254 210.867 41.1393 203.501Z" fill="#1BE3B3"/>
<mask id="mask6" mask-type="alpha" maskUnits="userSpaceOnUse" x="23" y="176" width="147" height="126">
<path d="M41.1392 203.501L59.8905 191.606L97.5512 179.595C113.664 174.455 131.065 175.082 146.766 181.366L169.232 190.356L166.765 228.791L137.76 219.491L140.503 237.167L154.655 268.29C156.748 272.894 154.279 278.283 149.424 279.709L76.8993 301.013C72.3803 302.34 67.6605 299.658 66.4912 295.099L57.5072 260.067L54.7109 276.267L26.7478 278.975L23.8506 237.715C22.8884 224.004 29.5254 210.867 41.1392 203.501Z" fill="white"/>
</mask>
<g mask="url(#mask6)">
<path d="M41.1392 203.501L59.8905 191.606L97.5512 179.595C113.664 174.455 131.065 175.082 146.766 181.366L169.232 190.356L166.765 228.791L137.76 219.491L140.503 237.167L154.655 268.29C156.748 272.894 154.279 278.283 149.424 279.709L76.8993 301.013C72.3803 302.34 67.6605 299.658 66.4912 295.099L57.5072 260.067L54.7109 276.267L26.7478 278.975L23.8506 237.715C22.8884 224.004 29.5254 210.867 41.1392 203.501Z" fill="#FF8282"/>
<path d="M122.452 185.161L49.627 216.078" stroke="#FFE071" stroke-width="3.12"/>
<path d="M132.308 202.122L53.1442 235.955" stroke="#FFE071" stroke-width="3.12"/>
<path d="M143.239 218.079L54.5819 255.763" stroke="#FFE071" stroke-width="3.12"/>
<path d="M148.632 244.256L56.8904 280.801" stroke="#FFE071" stroke-width="3.12"/>
<path d="M161.506 264.437L53.0267 303.558" stroke="#FFE071" stroke-width="3.12"/>
</g>
<path d="M58.587 187.036C58.9647 181.795 53.8298 166.791 51.2155 159.944C60.2442 158.771 78.8051 159.209 80.8223 170.343C82.8394 181.477 87.6112 182.9 89.7438 182.219C93.6792 186.511 98.5936 196.678 86.7686 203.01C74.9425 209.342 60.9058 201.658 55.3663 197.024C56.2817 195.879 58.2094 192.277 58.587 187.036Z" fill="#FFBA5F"/>
<path d="M37.2455 136.107C28.8701 143.019 42.5166 152.14 48.645 156.782L62.8086 152.264C67.6657 150.715 77.0304 140.944 81.1063 136.252C85.4547 132.415 95.3417 123.231 89.1499 119.552C78.3225 115.065 88.4071 104.831 73.4674 102.503C58.5278 100.175 56.1986 115.104 42.8194 119.371C29.4402 123.638 44.1582 130.402 37.2455 136.107Z" fill="#2C2770"/>
<mask id="mask7" mask-type="alpha" maskUnits="userSpaceOnUse" x="51" y="159" width="44" height="47">
<path d="M58.896 186.929C59.2798 181.749 54.2074 166.931 51.6233 160.17C60.5906 158.995 79.0225 159.395 81.0074 170.394C82.9912 181.394 87.7266 182.791 89.8468 182.115C93.7468 186.349 98.6091 196.388 86.8549 202.665C75.0996 208.943 61.1732 201.374 55.6794 196.805C56.5917 195.671 58.5111 192.108 58.896 186.929Z" fill="white"/>
</mask>
<g mask="url(#mask7)">
<path d="M85.5691 179.198C66.0896 183.158 54.9574 169.245 51.8261 161.795L81.9769 167.951C91.2907 170.05 105.049 175.238 85.5691 179.198Z" fill="#A84223"/>
</g>
<path d="M52.234 161.367C53.8891 167.856 65.3573 176.955 79.3856 171.842C87.5759 168.858 86.6448 158.71 85.4225 147.591C84.5517 139.666 84.869 130.823 82.1778 125.664L68.3752 125.601C70.8209 127.372 75.341 129.758 69.6558 131.571C64.0299 133.365 58.1096 133.34 55.4693 132.268C56.5512 139.578 51.2499 140.631 52.3588 144.104L55.5026 153.945C51.1011 155.859 48.9009 151.585 48.3516 149.21C46.0859 148.656 42.0371 149.055 43.9606 155.075C45.883 161.095 50.2772 161.778 52.234 161.367Z" fill="#FFBA5F"/>
<path d="M58.275 155.676C57.1026 154.74 55.1853 152.842 54.5528 150.861C51.9521 148.417 47.356 145.081 49.7768 151.293C51.0418 155.254 52.6449 158.563 53.5936 161.534C55.8074 168.466 56.5876 174.328 64.5583 178.77C74.5223 184.322 90.7155 178.611 93.2777 171.246C96.4173 162.221 89.6398 159.858 86.5928 153.736C79.8735 156.062 72.7184 158.162 67.1091 159.405C62.5204 160.423 60.394 157.182 58.275 155.676Z" fill="#2C2770"/>
<path d="M70.487 158.73L77.8252 159.874C77.6619 160.922 76.5904 162.558 74.1894 162.527C71.7884 162.497 70.8167 160.284 70.487 158.73Z" fill="white"/>
<path d="M82.5097 133.989L77.9875 135.432C77.2392 135.67 76.8261 136.471 77.0647 137.219C77.0648 137.219 77.0648 137.219 77.0649 137.219C77.304 137.968 78.1045 138.381 78.8532 138.142L83.3754 136.7C84.1237 136.461 84.5368 135.661 84.2981 134.913C84.2981 134.913 84.298 134.913 84.298 134.912C84.0589 134.164 83.2583 133.751 82.5097 133.989Z" fill="#2C2770"/>
<path d="M64.4274 139.757L59.9052 141.199C59.1569 141.438 58.7438 142.238 58.9824 142.986C58.9825 142.986 58.9825 142.987 58.9826 142.987C59.2217 143.735 60.0222 144.148 60.7709 143.91L65.2931 142.467C66.0414 142.229 66.4545 141.429 66.2159 140.68C66.2158 140.68 66.2157 140.68 66.2157 140.68C65.9766 139.931 65.1761 139.518 64.4274 139.757Z" fill="#2C2770"/>
<path d="M64.9264 147.562C64.1774 147.801 63.3766 147.388 63.1377 146.639C62.8988 145.891 63.3123 145.09 64.0612 144.851C64.8102 144.612 65.611 145.025 65.8499 145.774C66.0888 146.522 65.6754 147.323 64.9264 147.562Z" fill="black"/>
<path d="M73.5933 138.824L78.7875 155.088L74.7189 156.385" stroke="black" stroke-width="1.04"/>
<path d="M82.1048 142.083C81.3558 142.322 80.555 141.909 80.3161 141.16C80.0772 140.412 80.4906 139.611 81.2396 139.372C81.9886 139.133 82.7894 139.546 83.0283 140.295C83.2672 141.043 82.8537 141.844 82.1048 142.083Z" fill="black"/>
<path d="M99.6932 293.273L138.184 321.341L211.525 296.911L169.913 267.803L99.6932 293.273Z" fill="#DAE2FF"/>
<path d="M102.294 291.193L139.745 318.222L214.125 294.832L172.514 265.724L102.294 291.193Z" fill="#6B8CFF"/>
<path d="M220.509 234.02L143.787 257.351L131.422 316.143L137.144 320.301L209.986 298.071L227.129 236.097L220.509 234.02Z" fill="#DAE2FF"/>
<path d="M225.539 236.011L150.166 258.946C148.348 259.501 146.976 261.002 146.589 262.861L135.579 315.78C134.777 319.633 138.386 322.944 142.159 321.818L210.537 301.423C212.318 300.891 213.68 299.451 214.11 297.643L228.169 238.48C228.54 236.918 227.076 235.543 225.539 236.011Z" fill="#6B8CFF"/>
<path d="M187.32 284.31C190.197 281.333 190.358 276.821 187.679 274.232C185 271.642 180.496 271.956 177.619 274.933C174.742 277.909 174.581 282.421 177.26 285.011C179.939 287.6 184.443 287.286 187.32 284.31Z" fill="#DAE2FF"/>
<path d="M96.1646 275.737L53.7081 276.478L26.8727 278.199L26.3849 282.834C25.072 295.295 36.1449 305.498 48.4661 303.184L97.3932 293.992L104.587 295.635C104.799 295.683 105.015 295.715 105.234 295.729L114.624 296.361C114.706 296.367 114.786 296.379 114.865 296.398L128.17 299.54C129.273 299.801 130.394 299.185 130.766 298.116C131.165 296.964 130.555 295.706 129.402 295.307L119.178 291.762L131.956 293.443C132.907 293.568 133.792 292.936 133.98 291.996C134.169 291.063 133.604 290.142 132.685 289.884L120.969 286.604L134.612 286.653C135.697 286.657 136.609 285.84 136.722 284.762C136.84 283.657 136.082 282.65 134.986 282.458L120.729 279.948L135.333 279.708C136.744 279.684 137.803 278.407 137.563 277.016C137.387 275.994 136.549 275.218 135.517 275.117L113.737 273.001L116.815 271.53C118.33 270.808 119.501 269.521 120.08 267.946C120.317 267.3 119.787 266.634 119.104 266.719L108.448 268.049C107.043 268.225 105.706 268.756 104.563 269.592L96.1646 275.737Z" fill="#FFBA5F"/>
<path d="M749.487 69.5L712.087 91.093C704.913 95.2352 702.455 104.409 706.597 111.583L728.19 148.984C732.332 156.158 741.506 158.616 748.68 154.474L786.08 132.881C793.255 128.739 795.713 119.565 791.571 112.391L769.978 74.9904C765.836 67.816 756.662 65.3578 749.487 69.5Z" fill="#F3F6FF"/>
<path d="M712.697 747.006L721.727 734.356C726.531 727.626 721.423 711.959 721.423 711.959L737.589 707.026L741.966 724.739L746.921 733.382L714.463 748.449L712.697 747.006Z" fill="#FFAE64"/>
<path d="M716.317 746.835L744.602 731.605C747.87 733.351 749.742 736.913 749.326 740.595L748.541 747.547L735.917 751.606L734.266 748.725L728.328 752.796C725.878 754.476 723.145 755.702 720.26 756.414L710.051 758.936C708.654 759.282 707.178 758.859 706.176 757.826C704.629 756.231 704.657 753.688 706.238 752.127L717.36 741.155L714.481 744.575C713.894 745.271 714.069 746.327 714.849 746.798C715.297 747.069 715.856 747.083 716.317 746.835Z" fill="#2C2770"/>
<path d="M758.274 637.984L756.048 622.602C754.864 614.419 740.339 606.636 740.339 606.636L748.603 591.892L764.015 601.659L773.571 604.475L760.548 637.805L758.274 637.984Z" fill="#FFAE64"/>
<path d="M760.771 635.357L770.668 604.795C774.236 603.796 778.052 605.074 780.297 608.021L784.539 613.586L778.228 625.248L775.042 624.309L773.569 631.356C772.961 634.264 771.835 637.039 770.244 639.549L764.614 648.432C763.844 649.647 762.486 650.362 761.048 650.309C758.827 650.228 757.088 648.371 757.152 646.15L757.596 630.534L757.881 634.995C757.939 635.903 758.796 636.545 759.685 636.346C760.196 636.231 760.609 635.855 760.771 635.357Z" fill="#2C2770"/>
<path d="M715.038 719.209L738.676 713.092L715.975 594.344L754.195 512.464C757.639 505.087 759.229 496.98 758.827 488.848L757.256 457.055L690.425 462.24L646.242 492.331L624.252 509.208C611.707 518.834 615.486 538.642 630.693 542.974L692.64 526.268L676.82 573.484C673.364 583.798 673.366 594.956 676.825 605.268L715.038 719.209Z" fill="#2C2770"/>
<path d="M753.084 593.338L660.351 523.524L623.62 539.812L743.996 616.82L753.084 593.338Z" fill="#2C2770"/>
<path d="M749.978 480.406L709.309 584.172C706.814 590.538 706.297 597.507 707.823 604.171L733.103 714.525" stroke="white"/>
<path d="M695.296 518.309L658.546 529.914L686.012 549.614" stroke="white"/>
<path d="M751.512 595.767L723.811 576.508" stroke="white"/>
<path d="M784.532 386.04L771.918 378.678L743.09 369.145C729.484 364.646 714.824 364.431 701.092 368.529L666.806 378.763L669.629 415.703L697.399 406.416L694.971 423.451L686.268 456.467C685.172 460.622 687.554 464.899 691.665 466.156L753.961 485.202C758.913 486.716 763.977 483.198 764.286 478.029L765.585 456.288L775.016 444.501L777.894 460.051L804.804 462.326L802.337 415.249C801.703 403.134 795.01 392.155 784.532 386.04Z" fill="#FFE071"/>
<mask id="mask8" mask-type="alpha" maskUnits="userSpaceOnUse" x="666" y="366" width="139" height="118">
<path d="M784.532 386.04L771.918 378.678L740.825 369.172C727.814 365.194 713.925 365.094 700.858 368.885L666.806 378.763L669.629 415.703L697.399 406.416L694.971 423.451L681.734 453.554C679.777 458.007 682.213 463.162 686.896 464.476L754.932 483.573C759.954 484.984 764.961 481.286 765.091 476.071L765.585 456.288L775.016 444.501L777.894 460.051L804.804 462.326L802.337 415.249C801.703 403.134 795.009 392.155 784.532 386.04Z" fill="white"/>
</mask>
<g mask="url(#mask8)">
<path d="M711.285 350.011C703.098 347.508 694.433 352.116 691.93 360.302C689.427 368.488 694.035 377.154 702.221 379.657C710.407 382.159 719.073 377.552 721.575 369.366C724.078 361.179 719.471 352.514 711.285 350.011Z" stroke="#D7BE67" stroke-width="5"/>
<path d="M807.256 405.495C802.767 404.122 798.015 406.649 796.642 411.138C795.27 415.628 797.796 420.38 802.286 421.752C806.775 423.125 811.527 420.598 812.899 416.109C814.272 411.619 811.745 406.867 807.256 405.495Z" stroke="#D7BE67" stroke-width="5"/>
<path d="M757.869 416.538C754.965 415.65 751.89 417.285 751.002 420.19C750.114 423.095 751.748 426.17 754.653 427.058C757.558 427.946 760.633 426.311 761.521 423.406C762.409 420.501 760.774 417.426 757.869 416.538Z" stroke="#D7BE67" stroke-width="3"/>
<path d="M734.059 463.635C726.401 461.293 718.295 465.604 715.953 473.262C713.612 480.92 717.922 489.026 725.58 491.368C733.239 493.709 741.345 489.399 743.686 481.741C746.028 474.082 741.717 465.976 734.059 463.635Z" stroke="#D7BE67" stroke-width="3"/>
<path d="M677.406 399.258C669.748 396.917 661.641 401.227 659.3 408.885C656.959 416.543 661.269 424.649 668.927 426.991C676.585 429.332 684.691 425.022 687.033 417.364C689.374 409.705 685.064 401.599 677.406 399.258Z" stroke="#D7BE67" stroke-width="3"/>
</g>
<path d="M746.133 311.335C749.833 303.073 758.538 304.364 762.428 306.043C765.076 305.385 771.192 301.383 780.177 305.598C789.163 309.813 798.26 318.465 791.882 329.725C791.882 329.725 787.022 353.676 769.844 348.424C768.195 353.817 746.399 377.1 751.41 360.71C756.421 344.32 754.945 357.369 747.814 341.689C741.851 337.251 741.508 321.663 746.133 311.335Z" fill="#2C2770"/>
<path d="M759.547 306.731C750.833 304.066 745.928 294.842 748.592 286.128C751.257 277.413 760.481 272.508 769.195 275.173C777.91 277.837 782.815 287.061 780.15 295.776C777.486 304.49 768.262 309.395 759.547 306.731Z" fill="#2C2770"/>
<path d="M749.972 322.783L748.74 326.81C747.088 325.815 743.536 324.631 742.551 327.853C741.32 331.88 743.183 335.385 746.278 334.863C745.348 339.154 745.073 348.101 750.713 353.589C749.509 356.671 747.423 360.985 744.782 363.761C741.321 367.4 736.603 368.11 734.676 368.01C736.404 371.963 742.005 380.525 750.596 383.152C759.186 385.778 767.724 381.538 770.918 379.09C769.713 378.233 766.743 375.465 764.506 371.259C762.745 367.948 764.105 361.77 765.582 357.394C772.307 355.347 776.309 348.342 778.493 344.713C780.146 345.707 783.78 346.622 785.093 342.327C786.407 338.032 782.434 336.622 780.955 336.659L782.187 332.632C779.365 332.259 772.44 329.946 767.31 323.681C762.18 317.415 761.172 314.954 761.309 314.507C760.625 316.744 758.379 320.561 756.162 321.74C752.656 323.603 751.003 322.609 749.972 322.783Z" fill="#FFAE64"/>
<path d="M755.594 344.594L760.768 349.515C760.064 350.254 758.322 350.961 756.441 349.623C754.561 348.285 755.004 346.004 755.594 344.594Z" fill="white"/>
<path d="M774.282 330.274L778.644 331.607C779.367 331.828 779.774 332.593 779.553 333.316C779.332 334.039 778.567 334.446 777.844 334.225L773.482 332.891C772.759 332.67 772.352 331.905 772.573 331.182C772.794 330.46 773.559 330.053 774.282 330.274Z" fill="#2C2770"/>
<path d="M756.833 324.939L761.195 326.273C761.918 326.494 762.325 327.259 762.104 327.982C761.883 328.704 761.118 329.111 760.395 328.89L756.033 327.556C755.31 327.335 754.903 326.57 755.124 325.848C755.345 325.125 756.11 324.718 756.833 324.939Z" fill="#2C2770"/>
<path d="M757.317 332.719C756.594 332.498 756.187 331.733 756.408 331.01C756.629 330.287 757.394 329.881 758.117 330.102C758.84 330.323 759.246 331.088 759.025 331.81C758.804 332.533 758.039 332.94 757.317 332.719Z" fill="black"/>
<path d="M768.95 330.552L764.149 346.256L760.223 345.056" stroke="black"/>
<path d="M773.893 337.787C773.17 337.566 772.764 336.801 772.985 336.078C773.205 335.355 773.971 334.949 774.693 335.169C775.416 335.39 775.823 336.155 775.602 336.878C775.381 337.601 774.616 338.008 773.893 337.787Z" fill="black"/>
<path d="M745.672 328.682C744.925 329.567 744.189 331.663 747.223 332.972" stroke="black"/>
<path d="M782.966 340.084C783.091 341.235 782.529 343.385 779.282 342.773" stroke="black"/>
<mask id="mask9" mask-type="alpha" maskUnits="userSpaceOnUse" x="734" y="314" width="52" height="70">
<path d="M749.972 322.783L748.74 326.81C747.088 325.815 743.536 324.631 742.551 327.853C741.32 331.88 743.183 335.385 746.278 334.863C745.348 339.154 745.073 348.101 750.713 353.589C749.509 356.671 747.423 360.985 744.782 363.761C741.321 367.4 736.603 368.11 734.676 368.01C736.404 371.963 742.005 380.525 750.596 383.152C759.186 385.778 767.724 381.538 770.918 379.09C769.713 378.233 766.743 375.465 764.506 371.259C762.745 367.948 764.105 361.77 765.582 357.394C772.307 355.347 776.309 348.342 778.493 344.713C780.146 345.707 783.78 346.622 785.093 342.327C786.407 338.032 782.434 336.622 780.955 336.659L782.187 332.632C779.365 332.259 772.44 329.946 767.31 323.681C762.18 317.415 761.172 314.954 761.309 314.507C760.625 316.744 758.379 320.561 756.162 321.74C752.656 323.603 751.003 322.609 749.972 322.783Z" fill="white"/>
</mask>
<g mask="url(#mask9)">
<path d="M767.019 357.15C765.634 357.522 761.333 358.274 757.494 357.1C753.85 355.986 750.804 353.765 749.871 352.941L749.74 352.821C749.777 352.857 749.821 352.897 749.871 352.941L764.655 366.444L767.019 357.15Z" fill="#FF8282"/>
</g>
<path d="M726.669 455.832L724.463 405.963C724.417 404.914 723.566 404.078 722.516 404.052L687.272 403.174C686.095 403.144 685.148 404.132 685.227 405.307L688.58 455.204C688.65 456.235 689.493 457.044 690.525 457.07L724.621 457.919C725.779 457.948 726.72 456.99 726.669 455.832Z" fill="#2C2770"/>
<path d="M741.61 440.601L777.682 459.705L803.129 461.746L799.837 482.076C798.278 491.703 787.068 496.249 779.244 490.427L732.61 455.725L725.729 454.004C725.526 453.954 725.326 453.886 725.133 453.805L716.808 450.262C716.736 450.231 716.661 450.206 716.585 450.187L703.812 447.095C702.754 446.839 702.061 445.823 702.209 444.744C702.367 443.583 703.438 442.769 704.599 442.928L714.907 444.336L703.221 440.218C702.353 439.912 701.869 438.984 702.116 438.097C702.362 437.214 703.247 436.669 704.146 436.848L715.618 439.131L703.901 433.238C702.97 432.769 702.543 431.672 702.915 430.698C703.296 429.7 704.384 429.166 705.406 429.477L718.721 433.527L706.32 426.974C705.113 426.336 704.76 424.771 705.575 423.676C706.168 422.881 707.214 422.574 708.142 422.922L725.105 429.294L724.671 422.074L734.427 428.661C735.556 429.423 736.471 430.46 737.086 431.675L741.61 440.601Z" fill="#FFAE64"/>
<path d="M631.629 319.384L666.991 379.866L669.55 412.541L668.034 412.541C657.622 412.539 648.302 406.085 644.637 396.34L617.854 325.107L599.42 315.288L584.933 311.83C584.404 311.704 584.171 311.082 584.486 310.639C585.22 309.607 586.417 309.003 587.683 309.027L618.415 309.593L618.046 306.204C617.747 303.444 618.011 300.652 618.823 297.998C619.067 297.198 620.159 297.1 620.542 297.844L631.629 319.384Z" fill="#FFAE64"/>
<path d="M301.329 484L276.757 498.187C271.974 500.948 270.335 507.064 273.097 511.847L287.284 536.42C290.045 541.202 296.161 542.841 300.944 540.08L325.516 525.893C330.299 523.131 331.938 517.016 329.176 512.233L314.99 487.66C312.228 482.877 306.112 481.239 301.329 484Z" fill="#FFE071"/>
<path d="M424.691 631.315C433.543 629.628 442.086 635.436 443.773 644.288C445.46 653.14 439.651 661.683 430.8 663.37C421.948 665.056 413.405 659.248 411.718 650.396C410.031 641.545 415.84 633.002 424.691 631.315Z" fill="#54B7FF"/>
<path d="M401.238 599.752C416.458 596.852 431.146 606.839 434.046 622.058C436.946 637.277 426.96 651.966 411.741 654.866C396.522 657.766 381.833 647.779 378.933 632.56C376.033 617.341 386.019 602.653 401.238 599.752Z" stroke="#7268F5"/>
</svg>
