<?xml version="1.0" standalone="no"?><!DOCTYPE svg PUBLIC "-//W3C//DTD SVG 1.1//EN" "http://www.w3.org/Graphics/SVG/1.1/DTD/svg11.dtd"><svg t="1633052089015" class="icon" viewBox="0 0 1024 1024" version="1.1" xmlns="http://www.w3.org/2000/svg" p-id="50579" xmlns:xlink="http://www.w3.org/1999/xlink" width="200" height="200"><defs><style type="text/css"></style></defs><path d="M765.1328 944.9472l-208.5376-120.8832a87.00928 87.00928 0 0 0-87.8592 0.3584L267.264 943.2576c-58.0096 34.2016-131.2256-7.6288-131.2256-74.9568V229.376c0-82.4832 66.8672-149.2992 149.2992-149.2992h461.1584c82.4832 0 149.2992 66.8672 149.2992 149.2992v640.256c0 67.072-72.6528 108.9024-130.6624 75.3152z" fill="#4F44E0" p-id="50580"></path><path d="M736.5632 874.5472l-184.6272-106.8544c-24.064-13.9264-53.8112-13.824-77.7728 0.3072l-178.3808 105.1136c-51.3536 30.2592-116.1728-6.7072-116.1728-66.304V241.8176c0-72.9088 59.1872-132.0448 132.1984-132.0448h408.2688c73.0112 0 132.1984 59.136 132.1984 132.0448V807.936c-0.0512 59.3408-64.3584 96.3584-115.712 66.6112z" fill="#634FED" p-id="50581"></path><path d="M708.9664 814.08l-161.4848-94.9248c-21.0432-12.3904-47.0528-12.288-68.0448 0.256l-156.0576 93.3376c-44.9536 26.88-101.632-5.9904-101.632-58.88V252.2112c0-64.768 51.7632-117.248 115.6608-117.248h357.1712c63.8464 0 115.6608 52.48 115.6608 117.248v502.7328c-0.1024 52.6848-56.3712 85.5552-101.2736 59.136z" fill="#756AF6" p-id="50582"></path><path d="M671.5392 702.8224l-130.2016-73.9328a55.38816 55.38816 0 0 0-54.8864 0.2048l-125.8496 72.704c-36.2496 20.9408-81.9712-4.6592-81.9712-45.824V265.1648c0-50.432 41.728-91.3408 93.2352-91.3408h288c51.5072 0 93.2352 40.9088 93.2352 91.3408v391.5776c0.0512 41.0112-45.312 66.6112-81.5616 46.08z" fill="#7F73F4" p-id="50583"></path><path d="M749.0048 391.7824c-12.6464-38.9632-45.6704-66.7648-86.2208-72.6528l-35.328-5.12-15.7696-32c-18.1248-36.7104-54.784-59.5456-95.744-59.5456s-77.6192 22.784-95.744 59.5456l-15.8208 32-35.328 5.12c-40.4992 5.888-73.5232 33.7408-86.2208 72.6528-12.6464 38.912-2.304 80.896 27.0336 109.4656l25.5488 24.9344-6.0416 35.1744c-6.912 40.3456 9.3696 80.384 42.496 104.448 18.7392 13.6192 40.6016 20.5312 62.6688 20.5312 16.9472 0 34.048-4.096 49.7664-12.3904l31.5904-16.64 31.5904 16.64c15.36 8.0896 32.5632 12.3392 49.7664 12.3392 22.5792 0 44.2368-7.0656 62.6688-20.48 33.1264-24.064 49.408-64.0512 42.496-104.448l-6.0416-35.1744L721.92 501.248c29.3888-28.5696 39.7312-70.5024 27.0848-109.4656z m-193.024 62.72c-8.704 14.2848-13.9776 30.4128-15.3088 47.104a106.02496 106.02496 0 0 0-49.4592 0c-1.3312-16.6912-6.6048-32.8192-15.3088-47.104 15.4112-6.4 29.1328-16.384 40.0384-29.0816 10.8544 12.6976 24.576 22.6816 40.0384 29.0816z" fill="#6360EF" p-id="50584"></path><path d="M597.2992 659.8656c-12.7488 0-25.6-3.072-37.4784-9.3184l-43.8784-23.0912-43.8784 23.0912c-27.2896 14.336-59.6992 11.9808-84.6336-6.144-24.9344-18.1248-37.1712-48.2304-31.9488-78.592l8.3968-48.896-35.5328-34.6112c-22.0672-21.504-29.8496-53.0944-20.3264-82.3808 9.5232-29.2864 34.3552-50.2784 64.8704-54.6816l49.1008-7.1168 21.9648-44.4416c13.6192-27.648 41.2672-44.8 72.0384-44.8 30.8224 0 58.4192 17.152 72.0384 44.8l21.9648 44.4416 49.0496 7.1168c30.5152 4.4544 55.3472 25.3952 64.8704 54.6816 9.5232 29.2864 1.7408 60.8768-20.3264 82.3808l-35.4816 34.6112 8.3968 48.896c5.2224 30.3616-7.0656 60.4672-31.9488 78.592-14.1824 10.24-30.6688 15.4624-47.2576 15.4624z m-81.3568-134.7584c12.8512 0 25.7024 3.072 37.4272 9.2672l18.0224 9.472-3.4304-20.0704a80.384 80.384 0 0 1 23.0912-71.1168l14.592-14.2336-20.1728-2.9184c-26.1632-3.7888-48.7936-20.224-60.5184-43.9296l-9.0112-18.2784-9.0112 18.2784a80.56832 80.56832 0 0 1-60.5184 43.9808l-20.1728 2.9184 14.592 14.2336c18.944 18.4832 27.5968 45.056 23.0912 71.1168l-3.4304 20.0704 18.0224-9.472c11.7248-6.2464 24.576-9.3184 37.4272-9.3184z m-17.5104-187.2896c0.0512 0.0512 0.0512 0.0512 0 0z" fill="#F7BC00" p-id="50585"></path><path d="M597.248 642.3552c-9.984 0-20.0192-2.4064-29.3376-7.2704l-52.0192-27.3408-52.0192 27.3408a62.6432 62.6432 0 0 1-66.2528-4.7616 62.56128 62.56128 0 0 1-25.0368-61.4912l9.9328-57.9072-42.0864-41.0112a62.58176 62.58176 0 0 1-15.9232-64.4608c7.424-22.9376 26.88-39.3216 50.7904-42.8032l58.1632-8.448 26.0096-52.6848c10.7008-21.6064 32.3072-35.072 56.3712-35.072 24.1152 0 45.7216 13.4144 56.3712 35.072l26.0096 52.6848 58.1632 8.448c23.8592 3.4816 43.3152 19.8656 50.7904 42.8032 7.424 22.9376 1.3312 47.616-15.9232 64.4608l-42.0864 41.0112 9.9328 57.9072c4.096 23.7568-5.5296 47.3088-25.0368 61.4912a62.5408 62.5408 0 0 1-36.8128 12.032z m-81.3056-99.7888c10.0352 0 20.1216 2.4064 29.2864 7.2192l49.3568 25.9584-9.4208-54.9888c-3.4816-20.3776 3.2768-41.216 18.0736-55.6544l39.936-38.912-55.1936-8.0384c-20.48-2.9696-38.1952-15.8208-47.36-34.4064l-24.6784-50.0224-24.6784 50.0224a62.848 62.848 0 0 1-47.36 34.4064l-55.1936 8.0384 39.936 38.912c14.7968 14.4384 21.5552 35.2768 18.0736 55.6544l-9.4208 54.9888 49.3568-25.9584c9.1648-4.8128 19.2-7.2192 29.2864-7.2192z" fill="#FFD029" p-id="50586"></path><path d="M597.248 627.3536c-7.6288 0-15.2576-1.8432-22.3232-5.5808L521.984 593.92c-3.7888-1.9968-8.2944-1.9968-12.0832 0l-52.9408 27.8528a47.64672 47.64672 0 0 1-50.4832-3.6352 47.61088 47.61088 0 0 1-19.0464-46.848l10.1376-58.9824c0.7168-4.1984-0.6656-8.4992-3.7376-11.4688l-42.8544-41.7792a47.57504 47.57504 0 0 1-12.1344-49.1008c5.6832-17.4592 20.48-29.952 38.656-32.6144l59.2384-8.6016c4.1984-0.6144 7.8848-3.2768 9.7792-7.1168l26.4704-53.6576a47.60064 47.60064 0 0 1 42.9568-26.7264c18.3808 0 34.816 10.24 42.9568 26.7264l26.4704 53.6576a12.9536 12.9536 0 0 0 9.7792 7.1168l59.1872 8.6016c18.176 2.6624 33.024 15.1552 38.656 32.6144 5.6832 17.4592 1.024 36.3008-12.1344 49.1008l-42.8544 41.7792c-3.072 2.9696-4.4544 7.2704-3.7376 11.4688l10.1376 58.9824c3.1232 18.1248-4.1984 36.0448-19.0464 46.848a47.4624 47.4624 0 0 1-28.1088 9.216z m-81.3056-69.8368c7.68 0 15.3088 1.8432 22.3232 5.5296l52.9408 27.8528c6.4512 3.3792 11.7248 0.4096 13.6704-0.9728 1.9456-1.4336 6.4-5.5296 5.1712-12.6976l-10.1376-58.9824c-2.6624-15.5648 2.4576-31.3856 13.7728-42.3936l42.8544-41.7792c5.2224-5.0688 4.0448-11.008 3.2768-13.312-0.768-2.304-3.2768-7.7824-10.496-8.8064l-59.1872-8.6016a47.98464 47.98464 0 0 1-36.096-26.2144l-26.4704-53.6576c-3.2256-6.5024-9.216-7.2192-11.6224-7.2192s-8.3968 0.7168-11.6224 7.2192l-26.4704 53.6576c-6.9632 14.1312-20.48 23.9616-36.096 26.2144l-59.1872 8.6016c-7.2192 1.024-9.728 6.5024-10.4448 8.8064-0.768 2.304-1.9456 8.2432 3.2768 13.312l42.8544 41.7792a47.85152 47.85152 0 0 1 13.7728 42.3936l-10.1376 58.9824c-1.2288 7.168 3.2256 11.264 5.1712 12.6976 1.9456 1.4336 7.2192 4.352 13.6704 0.9728l52.9408-27.8528a47.36 47.36 0 0 1 22.272-5.5296z" fill="#FFE576" p-id="50587"></path></svg>