<?xml version="1.0" standalone="no"?><!DOCTYPE svg PUBLIC "-//W3C//DTD SVG 1.1//EN" "http://www.w3.org/Graphics/SVG/1.1/DTD/svg11.dtd"><svg t="1633052125037" class="icon" viewBox="0 0 1024 1024" version="1.1" xmlns="http://www.w3.org/2000/svg" p-id="50723" xmlns:xlink="http://www.w3.org/1999/xlink" width="200" height="200"><defs><style type="text/css"></style></defs><path d="M119.0912 71.5264h255.5392c17.8688 0 34.4064 9.5744 43.264 25.088l115.3536 202.0352-278.9376 159.9488-178.432-312.576c-18.9952-33.1776 5.0176-74.496 43.2128-74.496z" fill="#DD3E3A" p-id="50724"></path><path d="M154.368 109.0048H360.448c14.4384 0 27.7504 7.7312 34.8672 20.2752l93.0304 162.9184-225.024 129.024-143.872-252.16c-15.2576-26.7776 4.096-60.0576 34.9184-60.0576z" fill="#E2463E" p-id="50725"></path><path d="M180.1216 136.3456h169.984c11.8784 0 22.8864 6.4 28.7744 16.6912l76.6976 134.3488-185.5488 106.4448-118.6816-207.9232c-12.6464-22.1184 3.328-49.5616 28.7744-49.5616z" fill="#E54945" p-id="50726"></path><path d="M205.824 163.6864h133.888c9.3696 0 18.0224 5.0176 22.6816 13.1584l60.416 105.8304-146.176 83.7632-93.44-163.7376c-9.9328-17.3568 2.6112-39.0144 22.6304-39.0144z" fill="#E65D57" p-id="50727"></path><path d="M903.7312 71.5264H648.192c-17.8688 0-34.4064 9.5744-43.264 25.088L489.5744 298.6496l278.9888 159.9488 178.432-312.576c18.944-33.1776-5.0688-74.496-43.264-74.496z" fill="#DD3E3A" p-id="50728"></path><path d="M866.4064 109.0048h-206.1312c-14.4384 0-27.7504 7.7312-34.8672 20.2752l-93.0304 162.9184 225.024 129.024 143.9232-252.1088c15.2576-26.8288-4.0448-60.1088-34.9184-60.1088z" fill="#E2463E" p-id="50729"></path><path d="M840.704 136.3456H670.72c-11.8784 0-22.8864 6.4-28.7744 16.6912L565.248 287.3856l185.5488 106.3936 118.6816-207.9232c12.5952-22.0672-3.3792-49.5104-28.7744-49.5104z" fill="#E54945" p-id="50730"></path><path d="M814.9504 163.6864h-133.888c-9.3696 0-18.0224 5.0176-22.6816 13.1584l-60.416 105.8304 146.1248 83.8144 93.4912-163.7376c9.9328-17.408-2.6112-39.0656-22.6304-39.0656z" fill="#E65D57" p-id="50731"></path><path d="M512.9216 574.208m-386.2528 0a386.2528 386.2528 0 1 0 772.5056 0 386.2528 386.2528 0 1 0-772.5056 0Z" fill="#DD3E3A" p-id="50732"></path><path d="M512.9216 563.5584m-333.4656 0a333.4656 333.4656 0 1 0 666.9312 0 333.4656 333.4656 0 1 0-666.9312 0Z" fill="#E2463E" p-id="50733"></path><path d="M512.9216 557.7216m-296.3456 0a296.3456 296.3456 0 1 0 592.6912 0 296.3456 296.3456 0 1 0-592.6912 0Z" fill="#E54945" p-id="50734"></path><path d="M512.9216 548.096m-255.4368 0a255.4368 255.4368 0 1 0 510.8736 0 255.4368 255.4368 0 1 0-510.8736 0Z" fill="#E65D57" p-id="50735"></path><path d="M512.9216 348.928c-124.2112 0-225.28 101.0688-225.28 225.28s101.0688 225.28 225.28 225.28 225.28-101.0688 225.28-225.28-101.0688-225.28-225.28-225.28z m0 282.2656c-31.3856 0-56.9344-25.5488-56.9344-56.9344s25.5488-56.9344 56.9344-56.9344c31.3856 0 56.9344 25.5488 56.9344 56.9344s-25.5488 56.9344-56.9344 56.9344z" fill="#DD3E3A" p-id="50736"></path><path d="M512.9216 768.9216c-107.3664 0-194.7136-87.3472-194.7136-194.7136s87.3472-194.7136 194.7136-194.7136 194.7136 87.3472 194.7136 194.7136-87.3472 194.7136-194.7136 194.7136z m0-282.2656c-48.2816 0-87.552 39.2704-87.552 87.552 0 48.2816 39.2704 87.552 87.552 87.552 48.2816 0 87.552-39.2704 87.552-87.552 0-48.2304-39.2704-87.552-87.552-87.552z" fill="#F7BC00" p-id="50737"></path><path d="M512.9216 748.4928c-96.1024 0-174.2848-78.1824-174.2848-174.2848s78.1824-174.2848 174.2848-174.2848 174.2848 78.1824 174.2848 174.2848-78.1824 174.2848-174.2848 174.2848z m0-282.2144c-59.5456 0-107.9808 48.4352-107.9808 107.9808s48.4352 107.9808 107.9808 107.9808 107.9808-48.4352 107.9808-107.9808-48.4352-107.9808-107.9808-107.9808z" fill="#FFD029" p-id="50738"></path><path d="M512.9216 733.2352c-87.6544 0-158.976-71.3216-158.976-158.976s71.3216-158.976 158.976-158.976 158.976 71.3216 158.976 158.976-71.3216 158.976-158.976 158.976z m0-282.2656c-67.9936 0-123.2896 55.296-123.2896 123.2896s55.296 123.2896 123.2896 123.2896 123.2896-55.296 123.2896-123.2896-55.3472-123.2896-123.2896-123.2896z" fill="#FFE576" p-id="50739"></path></svg>