<?xml version="1.0" encoding="utf-8"?>
<!-- Generator: Adobe Illustrator 15.0.1, SVG Export Plug-In . SVG Version: 6.00 Build 0)  -->
<!DOCTYPE svg PUBLIC "-//W3C//DTD SVG 1.1//EN" "http://www.w3.org/Graphics/SVG/1.1/DTD/svg11.dtd">
<svg version="1.1" xmlns="http://www.w3.org/2000/svg" xmlns:xlink="http://www.w3.org/1999/xlink" x="0px" y="0px" width="900px"
	 height="900px" viewBox="0 0 900 900" enable-background="new 0 0 900 900" xml:space="preserve">
<g id="Layer_1" display="none">
	<rect display="inline" fill="#FFFFFF" width="900" height="900"/>
</g>
<g id="background">
	<linearGradient id="SVGID_1_" gradientUnits="userSpaceOnUse" x1="201.7715" y1="153.2905" x2="667.9931" y2="619.5121">
		<stop  offset="0" style="stop-color:#DBEFFF"/>
		<stop  offset="1" style="stop-color:#F7EBFF"/>
	</linearGradient>
	<path fill="url(#SVGID_1_)" d="M538,80.501c61,1,147.5,26,171,88c25.262,66.646,22.275,80.9,63.5,153.5
		c41.168,72.498,19.168,174.498-24.832,217.831c-62.324,61.379-116.506,46.145-227.168,45.669c-77.5-0.333-164.099,55.867-208,70.5
		c-29.5,9.833-92.5,20.5-132.5-20.5c-44.171-45.275-34.333-129-42-161c-8.031-33.521-61.214-152.046-4-244.5
		C203,118.501,356.98,77.533,538,80.501z"/>
	<linearGradient id="SVGID_2_" gradientUnits="userSpaceOnUse" x1="626.5986" y1="791.9678" x2="626.5986" y2="746.8525">
		<stop  offset="0" style="stop-color:#F7EBFF"/>
		<stop  offset="1" style="stop-color:#DBEFFF"/>
	</linearGradient>
	<path fill="url(#SVGID_2_)" d="M629.447,754.408c22.018-3.996,103.557-20.321,107.221,12.76c3.082,27.833-63.029,25.507-94.668,24
		c-40.25-1.917-122.383,6.848-125.477-9.827c-1.855-10.007,22.645-15.34,47.93-16.833
		C585.24,763.28,597.199,760.261,629.447,754.408z"/>
	<linearGradient id="SVGID_3_" gradientUnits="userSpaceOnUse" x1="261.4277" y1="816.5088" x2="261.4277" y2="775.0801">
		<stop  offset="0" style="stop-color:#F7EBFF"/>
		<stop  offset="1" style="stop-color:#DBEFFF"/>
	</linearGradient>
	<path fill="url(#SVGID_3_)" d="M260.14,779.547c-20.139-2.273-105.315-15.361-101.14,17.621
		c3.333,26.334,66.169,16.033,94.667,18.334c40.25,3.25,108.967-1.027,110.315-17.881c0.809-10.113-21.677-13.526-44.54-13.053
		C300.648,784.957,289.636,782.877,260.14,779.547z"/>
</g>
<g id="graph_x5F_5">
	<g>
		<linearGradient id="SVGID_4_" gradientUnits="userSpaceOnUse" x1="388.3457" y1="497.9609" x2="412.2396" y2="521.8548">
			<stop  offset="0" style="stop-color:#FF57BD"/>
			<stop  offset="1" style="stop-color:#FE6A77"/>
		</linearGradient>
		<path fill="url(#SVGID_4_)" d="M387.792,499.294c0-1.042,0.845-1.887,1.887-1.887h21.227c1.042,0,1.887,0.845,1.887,1.887v21.227
			c0,1.042-0.845,1.887-1.887,1.887h-21.227c-1.042,0-1.887-0.845-1.887-1.887V499.294z"/>
		<g>
			<path fill="#FDE1A7" d="M399.417,517.22c-0.311,0-0.604-0.145-0.794-0.393l-6.125-8c-0.336-0.438-0.252-1.065,0.186-1.401
				c0.437-0.335,1.066-0.254,1.402,0.187l5.247,6.853l7.11-11.399c0.293-0.469,0.91-0.61,1.378-0.319
				c0.469,0.292,0.611,0.909,0.319,1.378l-7.875,12.625c-0.174,0.278-0.473,0.454-0.801,0.47
				C399.449,517.22,399.433,517.22,399.417,517.22z"/>
		</g>
	</g>
	<g>
		<linearGradient id="SVGID_5_" gradientUnits="userSpaceOnUse" x1="388.3447" y1="534.8193" x2="412.24" y2="558.7146">
			<stop  offset="0" style="stop-color:#FF57BD"/>
			<stop  offset="1" style="stop-color:#FE6A77"/>
		</linearGradient>
		<path fill="url(#SVGID_5_)" d="M387.792,536.153c0-1.042,0.845-1.887,1.887-1.887h21.227c1.042,0,1.887,0.845,1.887,1.887v21.227
			c0,1.042-0.845,1.887-1.887,1.887h-21.227c-1.042,0-1.887-0.845-1.887-1.887V536.153z"/>
		<g>
			<path fill="#FDE1A7" d="M399.417,554.079c-0.311,0-0.604-0.145-0.794-0.393l-6.125-8c-0.336-0.438-0.252-1.065,0.186-1.401
				c0.437-0.335,1.066-0.254,1.402,0.187l5.247,6.853l7.11-11.399c0.293-0.468,0.91-0.611,1.378-0.319
				c0.469,0.292,0.611,0.909,0.319,1.378l-7.875,12.625c-0.174,0.278-0.473,0.454-0.801,0.47
				C399.449,554.079,399.433,554.079,399.417,554.079z"/>
		</g>
	</g>
	<g>
		<linearGradient id="SVGID_6_" gradientUnits="userSpaceOnUse" x1="388.3457" y1="571.6797" x2="412.2396" y2="595.5735">
			<stop  offset="0" style="stop-color:#FF57BD"/>
			<stop  offset="1" style="stop-color:#FE6A77"/>
		</linearGradient>
		<path fill="url(#SVGID_6_)" d="M387.792,573.013c0-1.042,0.845-1.887,1.887-1.887h21.227c1.042,0,1.887,0.845,1.887,1.887v21.227
			c0,1.042-0.845,1.887-1.887,1.887h-21.227c-1.042,0-1.887-0.845-1.887-1.887V573.013z"/>
		<g>
			<path fill="#FDE1A7" d="M399.417,590.938c-0.311,0-0.604-0.145-0.794-0.393l-6.125-8c-0.336-0.438-0.252-1.065,0.186-1.401
				c0.437-0.335,1.066-0.254,1.402,0.187l5.247,6.853l7.11-11.399c0.293-0.469,0.91-0.611,1.378-0.319
				c0.469,0.292,0.611,0.909,0.319,1.378l-7.875,12.625c-0.174,0.278-0.473,0.454-0.801,0.47
				C399.449,590.938,399.433,590.938,399.417,590.938z"/>
		</g>
	</g>
</g>
<g id="graph_x5F_4">
	<linearGradient id="SVGID_7_" gradientUnits="userSpaceOnUse" x1="351.6572" y1="355.0332" x2="485.2196" y2="488.5956">
		<stop  offset="0" style="stop-color:#706AED"/>
		<stop  offset="1" style="stop-color:#271068"/>
	</linearGradient>
	<rect x="347.813" y="358.876" fill="url(#SVGID_7_)" width="141.25" height="125.875"/>
	<g>
		<linearGradient id="SVGID_8_" gradientUnits="userSpaceOnUse" x1="362.188" y1="372.0845" x2="415.1055" y2="372.0845">
			<stop  offset="0" style="stop-color:#FFFFFF"/>
			<stop  offset="1" style="stop-color:#F1D1F8"/>
		</linearGradient>
		<rect x="362.188" y="369.584" fill="url(#SVGID_8_)" width="52.917" height="5"/>
	</g>
	<g>
		<g>
			<linearGradient id="SVGID_9_" gradientUnits="userSpaceOnUse" x1="466.6875" y1="471.001" x2="466.6875" y2="374.0015">
				<stop  offset="0" style="stop-color:#FDE1A7"/>
				<stop  offset="1" style="stop-color:#F9A144"/>
			</linearGradient>
			<path fill="url(#SVGID_9_)" d="M474.688,376.001c0-1.104-0.895-2-2-2h-12c-1.104,0-2,0.896-2,2v95h16V376.001z"/>
			<linearGradient id="SVGID_10_" gradientUnits="userSpaceOnUse" x1="458.6875" y1="393.0845" x2="474.6875" y2="393.0845">
				<stop  offset="0" style="stop-color:#00E2EC"/>
				<stop  offset="1" style="stop-color:#0090B2"/>
			</linearGradient>
			<path fill="url(#SVGID_10_)" d="M474.688,412.168v-36.167c0-1.104-0.895-2-2-2h-12c-1.104,0-2,0.896-2,2v36.167H474.688z"/>
		</g>
		<g>
			<linearGradient id="SVGID_11_" gradientUnits="userSpaceOnUse" x1="418.438" y1="471.001" x2="418.438" y2="395.2515">
				<stop  offset="0" style="stop-color:#1AA9E8"/>
				<stop  offset="0.4223" style="stop-color:#3D80EF"/>
				<stop  offset="0.7909" style="stop-color:#5662F4"/>
				<stop  offset="1" style="stop-color:#5F57F6"/>
			</linearGradient>
			<path fill="url(#SVGID_11_)" d="M426.438,397.251c0-1.104-0.896-2-2-2h-12c-1.104,0-2,0.896-2,2v73.75h16V397.251z"/>
			<linearGradient id="SVGID_12_" gradientUnits="userSpaceOnUse" x1="410.438" y1="417.543" x2="426.438" y2="417.543">
				<stop  offset="0" style="stop-color:#00E2EC"/>
				<stop  offset="1" style="stop-color:#0090B2"/>
			</linearGradient>
			<path fill="url(#SVGID_12_)" d="M426.438,439.834v-42.583c0-1.104-0.896-2-2-2h-12c-1.104,0-2,0.896-2,2v42.583H426.438z"/>
		</g>
		<g>
			<linearGradient id="SVGID_13_" gradientUnits="userSpaceOnUse" x1="442.563" y1="471.001" x2="442.563" y2="409.2515">
				<stop  offset="0" style="stop-color:#FF57BD"/>
				<stop  offset="1" style="stop-color:#FE6A77"/>
			</linearGradient>
			<path fill="url(#SVGID_13_)" d="M450.563,411.251c0-1.104-0.896-2-2-2h-12c-1.104,0-2,0.896-2,2v59.75h16V411.251z"/>
			<linearGradient id="SVGID_14_" gradientUnits="userSpaceOnUse" x1="434.563" y1="424.543" x2="450.563" y2="424.543">
				<stop  offset="0" style="stop-color:#00E2EC"/>
				<stop  offset="1" style="stop-color:#0090B2"/>
			</linearGradient>
			<path fill="url(#SVGID_14_)" d="M450.563,439.834v-28.583c0-1.104-0.896-2-2-2h-12c-1.104,0-2,0.896-2,2v28.583H450.563z"/>
		</g>
		<g>
			<linearGradient id="SVGID_15_" gradientUnits="userSpaceOnUse" x1="394.313" y1="471.001" x2="394.313" y2="381.7515">
				<stop  offset="0" style="stop-color:#C7A0F6"/>
				<stop  offset="1" style="stop-color:#FF57BD"/>
			</linearGradient>
			<path fill="url(#SVGID_15_)" d="M402.313,383.751c0-1.104-0.896-2-2-2h-12c-1.104,0-2,0.896-2,2v87.25h16V383.751z"/>
			<linearGradient id="SVGID_16_" gradientUnits="userSpaceOnUse" x1="386.313" y1="398.2095" x2="402.313" y2="398.2095">
				<stop  offset="0" style="stop-color:#00E2EC"/>
				<stop  offset="1" style="stop-color:#0090B2"/>
			</linearGradient>
			<path fill="url(#SVGID_16_)" d="M402.313,414.668v-30.917c0-1.104-0.896-2-2-2h-12c-1.104,0-2,0.896-2,2v30.917H402.313z"/>
		</g>
		<g>
			<linearGradient id="SVGID_17_" gradientUnits="userSpaceOnUse" x1="370.188" y1="471.001" x2="370.188" y2="425.7515">
				<stop  offset="0" style="stop-color:#FDE1A7"/>
				<stop  offset="1" style="stop-color:#F9A144"/>
			</linearGradient>
			<path fill="url(#SVGID_17_)" d="M378.188,427.751c0-1.104-0.896-2-2-2h-12c-1.104,0-2,0.896-2,2v43.25h16V427.751z"/>
			<linearGradient id="SVGID_18_" gradientUnits="userSpaceOnUse" x1="362.188" y1="439.376" x2="378.188" y2="439.376">
				<stop  offset="0" style="stop-color:#00E2EC"/>
				<stop  offset="1" style="stop-color:#0090B2"/>
			</linearGradient>
			<path fill="url(#SVGID_18_)" d="M378.188,453.001v-25.25c0-1.104-0.896-2-2-2h-12c-1.104,0-2,0.896-2,2v25.25H378.188z"/>
		</g>
		<g>
			<path fill="#1AA9E8" d="M474.688,472.001h-112.25c-0.552,0-1-0.447-1-1s0.448-1,1-1h112.25c0.553,0,1,0.447,1,1
				S475.24,472.001,474.688,472.001z"/>
		</g>
	</g>
</g>
<g id="graph_x5F_1">
	<g>
		<linearGradient id="SVGID_19_" gradientUnits="userSpaceOnUse" x1="172.876" y1="155.6265" x2="285.8756" y2="268.6261">
			<stop  offset="0" style="stop-color:#00E2EC"/>
			<stop  offset="1" style="stop-color:#0090B2"/>
		</linearGradient>
		<rect x="158.5" y="170.001" fill="url(#SVGID_19_)" width="141.75" height="84.25"/>
		<polygon fill="#00E2EC" points="177.81,241.751 219.167,241.751 219.167,189.168 		"/>
		<polygon fill="#00E2EC" points="257.5,229.001 257.5,241.751 283,241.751 283,198.668 		"/>
		<polygon fill="#0090B2" points="219.167,189.168 219.167,241.751 257.5,241.751 257.5,229.001 		"/>
		<polygon fill="#0090B2" points="295.334,215.126 283,198.668 283,241.751 295.334,241.751 		"/>
		<g>
			<linearGradient id="SVGID_20_" gradientUnits="userSpaceOnUse" x1="235.7505" y1="183.501" x2="290.0005" y2="183.501">
				<stop  offset="0" style="stop-color:#FFFFFF"/>
				<stop  offset="1" style="stop-color:#F1D1F8"/>
			</linearGradient>
			<rect x="235.75" y="181.001" fill="url(#SVGID_20_)" width="54.25" height="5"/>
		</g>
		<g>
			<path fill="#1AA9E8" d="M204.386,228.344c-0.334,0-0.661-0.167-0.85-0.472l-23.66-38.047c-0.292-0.469-0.148-1.086,0.321-1.377
				c0.469-0.292,1.085-0.148,1.377,0.321l23.66,38.047c0.292,0.469,0.148,1.086-0.321,1.377
				C204.749,228.295,204.566,228.344,204.386,228.344z"/>
		</g>
		<circle fill="#F95FC3" cx="180.725" cy="189.297" r="5.375"/>
		<circle fill="#FFFFFF" cx="204.385" cy="227.344" r="3.427"/>
	</g>
</g>
<g id="diagram">
	<g>
		<path fill="#FFFFFF" d="M318.03,272.86c-4.555-11.369-6.001-24.135-3.459-37.047c3.737-18.975,15.302-34.415,30.677-43.635
			l-14.387-28.273c-23.731,13.518-41.669,36.89-47.36,65.789c-3.92,19.905-1.467,39.585,5.938,56.936L318.03,272.86z"/>
		<path fill="#FFFFFF" d="M353.264,188.087c11.709-5.001,24.99-6.661,38.425-4.016c19.49,3.838,35.239,15.943,44.36,31.946
			l28.595-13.772c-13.34-24.664-37.178-43.403-66.837-49.244c-20.671-4.071-41.101-1.271-58.93,6.814L353.264,188.087z"/>
		<path fill="#FFFFFF" d="M468.553,210.352l-28.59,13.77c4.562,11.375,6.011,24.148,3.467,37.068
			c-7.008,35.583-41.535,58.749-77.118,51.741c-19.499-3.84-35.252-15.953-44.372-31.965l-28.594,13.772
			c13.337,24.672,37.18,43.42,66.847,49.263c52.743,10.387,103.92-23.95,114.307-76.692
			C478.422,247.395,475.965,227.707,468.553,210.352z"/>
	</g>
	<g>
		<linearGradient id="SVGID_21_" gradientUnits="userSpaceOnUse" x1="281.6665" y1="239.0088" x2="335.001" y2="239.0088">
			<stop  offset="0" style="stop-color:#FDE1A7"/>
			<stop  offset="1" style="stop-color:#F9A144"/>
		</linearGradient>
		<path fill="url(#SVGID_21_)" d="M323.885,284.182c-6.666-10.275-10.552-22.521-10.552-35.681c0-19.339,8.363-36.723,21.667-48.74
			l-19.579-24.96c-20.672,17.849-33.756,44.246-33.756,73.7c0,20.288,6.21,39.123,16.828,54.716L323.885,284.182z"/>
		<linearGradient id="SVGID_22_" gradientUnits="userSpaceOnUse" x1="322.498" y1="178.3867" x2="454.0918" y2="178.3867">
			<stop  offset="0" style="stop-color:#5A55F8"/>
			<stop  offset="1" style="stop-color:#8C6AE2"/>
		</linearGradient>
		<path fill="url(#SVGID_22_)" d="M342.076,194.198c10.522-7.169,23.232-11.364,36.925-11.364c19.865,0,37.656,8.833,49.697,22.772
			l25.394-19.038c-17.853-21.621-44.863-35.401-75.091-35.401c-21.068,0-40.572,6.695-56.502,18.072L342.076,194.198z"/>
		<linearGradient id="SVGID_23_" gradientUnits="userSpaceOnUse" x1="303.895" y1="269.8008" x2="476.334" y2="269.8008">
			<stop  offset="0" style="stop-color:#FF57BD"/>
			<stop  offset="1" style="stop-color:#FE6A77"/>
		</linearGradient>
		<path fill="url(#SVGID_23_)" d="M459.494,193.767l-25.391,19.035c6.673,10.279,10.564,22.531,10.564,35.699
			c0,36.267-29.4,65.667-65.667,65.667c-19.873,0-37.67-8.84-49.712-22.789l-25.394,19.037
			c17.853,21.631,44.869,35.418,75.105,35.418c53.756,0,97.333-43.578,97.333-97.334
			C476.334,228.206,470.119,209.363,459.494,193.767z"/>
	</g>
	<linearGradient id="SVGID_24_" gradientUnits="userSpaceOnUse" x1="340.9312" y1="268.834" x2="410.1421" y2="268.834">
		<stop  offset="0" style="stop-color:#C7A0F6"/>
		<stop  offset="1" style="stop-color:#FF57BD"/>
	</linearGradient>
	<path fill="url(#SVGID_24_)" d="M340.931,262.813c5.792,15.397,20.648,26.355,38.069,26.355c12.502,0,23.682-5.646,31.142-14.523
		L379,248.501L340.931,262.813z"/>
	<linearGradient id="SVGID_25_" gradientUnits="userSpaceOnUse" x1="379.0005" y1="242.5605" x2="419.667" y2="242.5605">
		<stop  offset="0" style="stop-color:#994574"/>
		<stop  offset="1" style="stop-color:#43256F"/>
	</linearGradient>
	<path fill="url(#SVGID_25_)" d="M393.424,210.476L379,248.501l31.142,26.144c5.941-7.07,9.525-16.187,9.525-26.144
		C419.667,231.122,408.761,216.297,393.424,210.476z"/>
	<linearGradient id="SVGID_26_" gradientUnits="userSpaceOnUse" x1="350.2627" y1="219.7295" x2="379.0179" y2="248.4847">
		<stop  offset="0" style="stop-color:#1AA9E8"/>
		<stop  offset="0.4223" style="stop-color:#3D80EF"/>
		<stop  offset="0.7909" style="stop-color:#5662F4"/>
		<stop  offset="1" style="stop-color:#5F57F6"/>
	</linearGradient>
	<path fill="url(#SVGID_26_)" d="M393.424,210.476c-4.484-1.702-9.343-2.642-14.423-2.642c-22.459,0-40.667,18.207-40.667,40.667
		c0,5.038,0.922,9.859,2.597,14.312L379,248.501L393.424,210.476z"/>
</g>
<g id="graph_x5F_3">
	<linearGradient id="SVGID_27_" gradientUnits="userSpaceOnUse" x1="517.4766" y1="106.5112" x2="694.8312" y2="283.8659">
		<stop  offset="0" style="stop-color:#C91C91"/>
		<stop  offset="1" style="stop-color:#FE6A77"/>
	</linearGradient>
	<rect x="497.111" y="126.876" fill="url(#SVGID_27_)" width="218.084" height="136.625"/>
	<g>
		<g>
			<circle fill="#FDE1A7" cx="519.193" cy="149.263" r="5.375"/>
			<circle fill="#00E2EC" cx="548.033" cy="149.263" r="5.375"/>
			<circle fill="#C7A0F6" cx="576.873" cy="149.263" r="5.375"/>
		</g>
		<g>
			<linearGradient id="SVGID_28_" gradientUnits="userSpaceOnUse" x1="513.8184" y1="166.1675" x2="582.25" y2="166.1675">
				<stop  offset="0" style="stop-color:#FFFFFF"/>
				<stop  offset="1" style="stop-color:#F1D1F8"/>
			</linearGradient>
			<rect x="513.818" y="163.667" fill="url(#SVGID_28_)" width="68.432" height="5"/>
		</g>
	</g>
	<linearGradient id="SVGID_29_" gradientUnits="userSpaceOnUse" x1="611.9863" y1="239.8345" x2="611.9863" y2="148.3281">
		<stop  offset="0" style="stop-color:#994574"/>
		<stop  offset="1" style="stop-color:#9F36AD"/>
	</linearGradient>
	<path fill="url(#SVGID_29_)" d="M698.486,160.604c-3.313-6.522-8.281-12.5-15.334-12.27c-15.332,0.5-25.334,40.5-36,41
		s-7-40.333-20.666-40c-17.166,0.419-17.834,79.5-39.334,81.333s-26.334-42.5-36-41.833s-13.822,34.761-15.5,42.167
		s-10.166,8.833-10.166,8.833h173V160.604z"/>
	<linearGradient id="SVGID_30_" gradientUnits="userSpaceOnUse" x1="513.8184" y1="200.001" x2="698.4863" y2="200.001">
		<stop  offset="0" style="stop-color:#FE6A77"/>
		<stop  offset="1" style="stop-color:#FF57BD"/>
	</linearGradient>
	<path fill="url(#SVGID_30_)" d="M698.486,160.167L698.486,160.167c-23.668,1-28.668,64.667-53,63.167
		c-20.186-1.244-16.834-35.5-34.5-36.5c-17.668-1-26,40.5-47.334,41.833c-10.373,0.648-18.666-5.833-28.166-5
		s-19.334,13.5-21.668,16.167h184.668V160.167z"/>
</g>
<g id="graph_x5F_2">
	<linearGradient id="SVGID_31_" gradientUnits="userSpaceOnUse" x1="378.3286" y1="123.418" x2="466.6621" y2="123.418">
		<stop  offset="0" style="stop-color:#FDE1A7"/>
		<stop  offset="1" style="stop-color:#F9A144"/>
	</linearGradient>
	<rect x="378.329" y="109.418" fill="url(#SVGID_31_)" width="88.333" height="28"/>
	<g>
		<path fill="#05C5DA" d="M458.561,128.293c-3.496,0-5.252-2.264-6.802-4.262c-1.452-1.872-2.706-3.488-5.221-3.488
			c-2.516,0-3.77,1.616-5.222,3.488c-1.55,1.998-3.306,4.262-6.802,4.262c-3.496,0-5.252-2.264-6.801-4.262
			c-1.452-1.872-2.706-3.488-5.221-3.488s-3.77,1.616-5.221,3.488c-1.549,1.998-3.306,4.262-6.801,4.262
			c-3.494,0-5.25-2.264-6.799-4.262c-1.451-1.872-2.705-3.488-5.219-3.488c-2.515,0-3.769,1.616-5.22,3.488
			c-1.549,1.998-3.305,4.262-6.801,4.262c-0.552,0-1-0.448-1-1s0.448-1,1-1c2.516,0,3.769-1.616,5.221-3.488
			c1.549-1.998,3.305-4.262,6.8-4.262c3.495,0,5.25,2.265,6.8,4.262c1.451,1.872,2.704,3.488,5.218,3.488
			c2.516,0,3.769-1.616,5.221-3.488c1.549-1.998,3.306-4.262,6.801-4.262s5.252,2.264,6.801,4.262
			c1.452,1.872,2.706,3.488,5.221,3.488c2.516,0,3.77-1.616,5.222-3.488c1.55-1.998,3.306-4.262,6.802-4.262
			c3.496,0,5.251,2.264,6.801,4.262c1.452,1.872,2.706,3.488,5.222,3.488c0.553,0,1,0.448,1,1S459.113,128.293,458.561,128.293z"/>
	</g>
	<g>
		<path fill="#1AA9E8" d="M390.743,168.316c-0.262,0-0.523-0.103-0.72-0.306c-0.383-0.398-0.372-1.031,0.025-1.414l31.007-29.898
			c0.397-0.383,1.03-0.373,1.414,0.025c0.383,0.398,0.372,1.031-0.025,1.414l-31.007,29.898
			C391.243,168.223,390.993,168.316,390.743,168.316z"/>
	</g>
	<circle fill="#FDE1A7" cx="390.743" cy="167.316" r="3.958"/>
</g>
<g id="girl_x5F_tablet">
	<linearGradient id="SVGID_32_" gradientUnits="userSpaceOnUse" x1="525.0791" y1="393.8413" x2="602.6514" y2="393.8413">
		<stop  offset="0" style="stop-color:#00E2EC"/>
		<stop  offset="1" style="stop-color:#0090B2"/>
	</linearGradient>
	<path fill="url(#SVGID_32_)" d="M551.488,422.988c0.787,1.343,2.512,1.794,3.855,1.009l45.912-20.729
		c1.344-0.785,1.795-2.51,1.01-3.854l-20.859-34.721c-0.785-1.343-2.51-1.794-3.854-1.009l-51.076,14.156
		c-1.344,0.785-1.797,2.51-1.012,3.854L551.488,422.988z"/>
	<linearGradient id="SVGID_33_" gradientUnits="userSpaceOnUse" x1="536.7393" y1="364.1782" x2="590.2432" y2="417.6822">
		<stop  offset="0" style="stop-color:#994574"/>
		<stop  offset="1" style="stop-color:#43256F"/>
	</linearGradient>
	<path fill="url(#SVGID_33_)" d="M604.764,399.992l-22.215-36.979c-0.838-1.431-2.676-1.911-4.105-1.075l-54.4,15.077
		c-1.43,0.836-1.912,2.674-1.076,4.104l27.717,43.979c0.838,1.43,2.676,1.911,4.105,1.075l48.9-22.077
		C605.119,403.26,605.602,401.422,604.764,399.992z M554.49,418.847L531,380.876l47.75-14.375l20.375,33.375L554.49,418.847z"/>
	<g>
		<polygon fill="#FDE1A7" points="586.938,388.376 550.66,402.692 547.721,398.479 584.545,384.697 		"/>
	</g>
	<circle fill="#F95FC3" cx="562.166" cy="384.813" r="4.032"/>
	<circle fill="#FE687E" cx="548.43" cy="390.093" r="4.032"/>
	<circle fill="#00E2EC" cx="575.062" cy="380.104" r="3.628"/>
</g>
<g id="girl_x5F_right_leg">
	<linearGradient id="SVGID_34_" gradientUnits="userSpaceOnUse" x1="598.7383" y1="685.0693" x2="638.9893" y2="685.0693">
		<stop  offset="0" style="stop-color:#F4BEA3"/>
		<stop  offset="1" style="stop-color:#E8878E"/>
	</linearGradient>
	<path fill="url(#SVGID_34_)" d="M635.834,660.667c-1.174-19.972,3.316-44.463,3.15-52.129l-32.65-1.871
		c0,0-0.629,23.362-0.334,43.584c0.334,22.834,5.084,88.334,3.668,98.583c-0.883,6.388-6.1,10.51-10.93,13.553
		c2.32,1.188,6.43,2.006,12.307-0.902c6.648-3.29,14.137-6.967,19.418-7.15c-0.213-3.449-0.428-6.677-0.463-8.833
		C629.834,735.084,637.25,684.751,635.834,660.667z"/>
	<linearGradient id="SVGID_35_" gradientUnits="userSpaceOnUse" x1="584.6963" y1="763.5596" x2="630.9092" y2="763.5596">
		<stop  offset="0" style="stop-color:#706AED"/>
		<stop  offset="1" style="stop-color:#271068"/>
	</linearGradient>
	<path fill="url(#SVGID_35_)" d="M611.045,761.484c-5.877,2.908-9.986,2.091-12.307,0.902c-1.258,0.792-2.49,1.515-3.611,2.181
		c-4.273,2.538-11.117,3.535-10.375,6.184c0.582,2.083,16.725,3.03,25.375,0.566c4.084-1.163,11.082-4.917,11.082-4.917l0.271,5.104
		c0,0,7.76,0.578,8.594-0.339c1.266-1.394,0.832-9.603,0.389-16.832C625.182,754.518,617.693,758.194,611.045,761.484z"/>
</g>
<g id="girl_x5F_left_leg">
	<linearGradient id="SVGID_36_" gradientUnits="userSpaceOnUse" x1="656.75" y1="687.6621" x2="694.8574" y2="687.6621">
		<stop  offset="0" style="stop-color:#F4BEA3"/>
		<stop  offset="1" style="stop-color:#E8878E"/>
	</linearGradient>
	<path fill="url(#SVGID_36_)" d="M674.752,762.168c6.943-3.437,14.803-7.292,20.105-7.15c-0.217-3.445-0.471-6.68-0.607-8.85
		c-0.416-6.666-0.582-18.166,0.252-42.333s-3.5-41.166-5-55.5s-1.5-29.5-1.668-37.166l-31.084,3.832c0,0,2.391,22.887,4.5,43
		c1.994,19.001,14.084,79.917,12.668,90.166c-0.871,6.3-7.109,11.459-11.74,14.766C664.443,764.192,668.648,765.188,674.752,762.168
		z"/>
	<linearGradient id="SVGID_37_" gradientUnits="userSpaceOnUse" x1="649" y1="764.3594" x2="695.2393" y2="764.3594">
		<stop  offset="0" style="stop-color:#706AED"/>
		<stop  offset="1" style="stop-color:#271068"/>
	</linearGradient>
	<path fill="url(#SVGID_37_)" d="M649,772.501c0,1.417,16.184,1.964,24.834-0.5c4.084-1.163,11.082-4.917,11.082-4.917l0.271,5.104
		c0,0,8.313,0.313,9.146-0.604c1.26-1.388,0.973-9.431,0.523-16.566c-5.303-0.142-13.162,3.714-20.105,7.15
		c-6.104,3.021-10.309,2.024-12.574,0.765c-1.287,0.919-2.457,1.702-3.344,2.318C654.75,768.084,649,769.751,649,772.501z"/>
</g>
<g id="girl_x5F_skirt">
	<linearGradient id="SVGID_38_" gradientUnits="userSpaceOnUse" x1="600.0654" y1="519.6025" x2="701.5601" y2="621.0972">
		<stop  offset="0" style="stop-color:#FF57BD"/>
		<stop  offset="1" style="stop-color:#FE6A77"/>
	</linearGradient>
	<path fill="url(#SVGID_38_)" d="M678,491.668c3.5,5.333,13.002,22.334,16.5,40.083c3.229,16.373,3,25.75,4.75,38.5
		s10.75,40.75,10.25,42.5s-4.5,4.375-12.332,4.584c-5.854,0.156-10.166-0.333-20.666,3.167s-22.334,5.5-36.668,4
		c-14.332-1.5-25.666-7.5-32.832-7.667c-7.168-0.167-16.668-0.167-17.668-2.167s5.508-17.468,6.916-27.167
		c1.592-10.949,5.084-31.834,12.75-52.5c7.186-19.37,17.334-41.667,17.334-41.667s14.916-0.083,25.666-0.333
		S678,491.668,678,491.668z"/>
	<g>
		<path fill="#CFAEFF" d="M649.416,618.516c-3.172,0-6.392-0.174-9.687-0.52c-7.909-0.827-15.038-3.046-20.766-4.829
			c-4.757-1.48-8.865-2.76-11.985-2.832l-1.976-0.043c-5.563-0.114-11.867-0.243-14.725-1.292c-0.519-0.189-0.784-0.765-0.594-1.283
			c0.189-0.518,0.762-0.786,1.283-0.594c2.543,0.933,8.938,1.064,14.076,1.17l1.981,0.042c3.4,0.079,7.633,1.396,12.533,2.922
			c5.938,1.849,12.667,3.943,20.38,4.751c12.658,1.324,24.18,0.067,36.247-3.954c9.199-3.066,13.772-3.121,18.614-3.179
			c0.765-0.009,1.538-0.019,2.342-0.04c7.015-0.188,9.938-2.276,10.666-2.913c0.415-0.362,1.046-0.321,1.411,0.097
			c0.362,0.416,0.319,1.048-0.097,1.411c-1.097,0.957-4.455,3.205-11.928,3.405c-0.813,0.021-1.597,0.03-2.371,0.04
			c-4.682,0.056-9.103,0.108-18.005,3.075C667.61,617.02,658.716,618.516,649.416,618.516z"/>
	</g>
	<g>
		<path fill="#CFAEFF" d="M652.607,611.853c-3.981,0-8.156-0.23-12.544-0.69c-8.29-0.867-15.666-3.143-22.174-5.149
			c-4.704-1.451-8.767-2.704-11.986-3.016c-2.659-0.256-5.075-0.043-7.205,0.146c-2.522,0.225-4.704,0.419-6.521-0.249
			c-0.519-0.19-0.784-0.765-0.594-1.283c0.19-0.518,0.762-0.785,1.283-0.594c1.396,0.514,3.372,0.338,5.655,0.134
			c2.216-0.197,4.728-0.42,7.575-0.145c3.421,0.33,7.574,1.611,12.382,3.095c6.421,1.98,13.698,4.225,21.794,5.072
			c14.167,1.479,26.043,0.539,36.304-2.879c9.114-3.037,11.658-2.957,15.493-2.841c0.649,0.02,1.338,0.041,2.107,0.048
			c7.296,0.068,10.329-1.851,11.984-3.296c0.415-0.363,1.046-0.32,1.411,0.097c0.362,0.416,0.319,1.048-0.097,1.411
			c-1.872,1.634-5.245,3.79-12.95,3.79c-0.121,0-0.242-0.001-0.366-0.002c-0.785-0.007-1.488-0.028-2.151-0.049
			c-3.757-0.116-6.024-0.187-14.799,2.738C669.87,610.639,661.747,611.852,652.607,611.853z"/>
	</g>
</g>
<g id="girl_x5F_right_hand">
	<linearGradient id="SVGID_39_" gradientUnits="userSpaceOnUse" x1="580.4365" y1="390.9629" x2="591.6777" y2="390.9629">
		<stop  offset="0" style="stop-color:#C16846"/>
		<stop  offset="0.2653" style="stop-color:#D27565"/>
		<stop  offset="0.5308" style="stop-color:#DE7F7B"/>
		<stop  offset="0.7814" style="stop-color:#E58589"/>
		<stop  offset="1" style="stop-color:#E8878E"/>
	</linearGradient>
	<path fill="url(#SVGID_39_)" d="M584.084,385.376c-1.52,0.506-4.084,1.875-3.584,4.375s5.004,6.89,6.504,7.556
		s0.498-3.306-0.836-5.056s2.387,2.232,3.582,1.833c0.875-0.292,1.168-1.958,0.209-4.583c-0.854-2.335,2.959-4.5,1.291-4.833
		C589.584,384.334,586.084,384.709,584.084,385.376z"/>
	<linearGradient id="SVGID_40_" gradientUnits="userSpaceOnUse" x1="607.4941" y1="428.1699" x2="645.4111" y2="428.1699">
		<stop  offset="0" style="stop-color:#FDE1A7"/>
		<stop  offset="1" style="stop-color:#F9A144"/>
	</linearGradient>
	<path fill="url(#SVGID_40_)" d="M607.533,414.302c0.432-0.566,12.59-8.994,13.492-9.324c1.268-0.463,20.975,25.272,23.725,28.147
		s-3.635,17.221-8.885,18.221S606.396,415.793,607.533,414.302z"/>
	<linearGradient id="SVGID_41_" gradientUnits="userSpaceOnUse" x1="572.5664" y1="398.5547" x2="621.5" y2="398.5547">
		<stop  offset="0" style="stop-color:#F4BEA3"/>
		<stop  offset="1" style="stop-color:#E8878E"/>
	</linearGradient>
	<path fill="url(#SVGID_41_)" d="M572.75,384.251c1.768-1.768,10.584-0.75,11.75-0.417c1.168,0.333,4.084-2.083,5.834-2.167
		s7.104,0.896,10.25,2.667c3.486,1.963,20.916,21.167,20.916,21.167s-0.248,5-4.625,8c-4.387,3.007-7.201,1.632-7.201,1.632
		s-6.174-11.257-8.299-12.632s-7.375,0.938-11.697-0.122c-4.076-0.999-9.74-6.253-8.176-7.628c1.66-1.46,5.629,1.909,7.416,2.5
		c2.645,0.875,7.604-0.175,7.707-2.188c0.125-2.438-7.775-4.699-13.75-6.5C578.65,387.29,571.313,385.688,572.75,384.251z"/>
	<g>
		<path fill="#1AA9E8" d="M611.192,416.44c-2.675,0-4.213-1.294-4.314-1.383c-0.417-0.362-0.462-0.994-0.1-1.411
			c0.362-0.417,0.996-0.46,1.41-0.099c0.115,0.095,3.027,2.434,8.143-0.885c3.938-2.556,4.168-7.152,4.17-7.198
			c0.022-0.551,0.487-0.987,1.036-0.96c0.551,0.02,0.981,0.481,0.962,1.032c-0.008,0.23-0.247,5.669-5.08,8.805
			C614.954,415.939,612.854,416.44,611.192,416.44z"/>
	</g>
</g>
<g id="girl_x5F_body">
	<linearGradient id="SVGID_42_" gradientUnits="userSpaceOnUse" x1="618.334" y1="444.6953" x2="683.3662" y2="444.6953">
		<stop  offset="0" style="stop-color:#FDE1A7"/>
		<stop  offset="1" style="stop-color:#F9A144"/>
	</linearGradient>
	<path fill="url(#SVGID_42_)" d="M671.334,391.501c2.666,5.5,12.666,24.666,12,39.5s-4.668,30.167-5.168,41.667s-0.166,19-0.166,19
		s-10.998,6.833-27.666,6.333c-16.16-0.484-24-4.667-24-4.667s-0.479-17.641-2.5-29.666c-1.584-9.417-5.459-14.917-5.5-25.5
		c-0.055-13.543,20.791-31.042,27-40.5C650.438,389.893,671.334,391.501,671.334,391.501z"/>
	<g>
		<path fill="#1AA9E8" d="M652.102,499.027c-0.592,0-1.19-0.009-1.798-0.026c-16.208-0.486-24.112-4.609-24.44-4.785
			c-0.486-0.259-0.671-0.863-0.412-1.351s0.865-0.673,1.353-0.414c0.076,0.041,7.876,4.08,23.561,4.55
			c16.144,0.497,27.001-6.116,27.108-6.183c0.469-0.291,1.086-0.146,1.377,0.323c0.291,0.469,0.146,1.085-0.322,1.376
			C678.085,492.793,667.86,499.027,652.102,499.027z"/>
	</g>
</g>
<g id="girl_x5F_hairs">
	<linearGradient id="SVGID_43_" gradientUnits="userSpaceOnUse" x1="679.1484" y1="344.7109" x2="738.9618" y2="404.5243">
		<stop  offset="0" style="stop-color:#5A55F8"/>
		<stop  offset="1" style="stop-color:#8C6AE2"/>
	</linearGradient>
	<path fill="url(#SVGID_43_)" d="M687.25,336.626c2.5,0.125,10.154-1.858,15.875-3.125c11.293-2.5,22.391-2.351,25.25,5.5
		c2.459,6.75-1.631,12.355-0.957,17.083c0.916,6.417,20.084,11.833,20.457,24.667c0.359,12.304-9.75,16.75-12.5,22.125
		s-8.225,21.687-27.25,20.375c-10.873-0.75-13.873-7.167-13.875-11.625c0-5.724,5.5-10.125,2.875-14.25s-11.039-1.393-12.875-6.25
		c-1.998-5.292,2.5-9.625,5.875-12.25s8.375-5.375,7.25-9.25s-8-4.851-7.75-8.75c0.293-4.542,8.633-7.913,7.25-12.5
		c-1.041-3.458-7-2.75-12.125-3.75S687.25,336.626,687.25,336.626z"/>
</g>
<g id="girl_x5F_head">
	<linearGradient id="SVGID_44_" gradientUnits="userSpaceOnUse" x1="645.334" y1="382.0449" x2="671.334" y2="382.0449">
		<stop  offset="0" style="stop-color:#F4BEA3"/>
		<stop  offset="1" style="stop-color:#E8878E"/>
	</linearGradient>
	<path fill="url(#SVGID_44_)" d="M668.834,368.834c-0.646,5.792,2.5,22.667,2.5,22.667s-7.834,8.125-19.334,8.667
		c-5.643,0.266-6.666-2.5-6.666-2.5l2.334-23.167c0,0,3.514-6.593,10.666-9.333c7.15-2.741,9.834-0.167,9.834-0.167L668.834,368.834
		z"/>
	<linearGradient id="SVGID_45_" gradientUnits="userSpaceOnUse" x1="627.9004" y1="350.5342" x2="674.1445" y2="350.5342">
		<stop  offset="0" style="stop-color:#F4BEA3"/>
		<stop  offset="1" style="stop-color:#E8878E"/>
	</linearGradient>
	<path fill="url(#SVGID_45_)" d="M665.668,326.834c-10.168-4.333-17.742-4.145-17.742-4.145
		c-7.926,4.311-28.998,43.724-15.758,53.311c8.172,5.918,22.191-0.119,31.508-8.164c0.57,0.179,1.178,0.277,1.809,0.277
		c3.246,0,5.875-2.546,5.875-5.688c0-0.897-0.221-1.742-0.602-2.497c0.859-1.353,1.52-2.678,1.91-3.929
		C674.963,348.629,675.834,331.168,665.668,326.834z"/>
	<g>
		<path fill="#0090B2" d="M649.875,350.689c-0.149,0-0.302-0.022-0.452-0.07c-0.789-0.249-1.228-1.092-0.979-1.882
			c0.462-1.461,2.142-4.181,3.209-5.198c0.599-0.569,1.55-0.547,2.121,0.053c0.571,0.6,0.547,1.549-0.053,2.121
			c-0.691,0.657-2.114,2.97-2.416,3.927C651.104,350.28,650.513,350.689,649.875,350.689z"/>
	</g>
	<g>
		<path fill="#0090B2" d="M635.689,342.772c-0.124,0-0.251-0.019-0.376-0.059c-0.659-0.208-1.023-0.91-0.816-1.568
			c0.445-1.41,1.798-3.594,2.837-4.583c0.498-0.475,1.291-0.457,1.767,0.044c0.477,0.5,0.456,1.292-0.044,1.768
			c-0.724,0.688-1.862,2.533-2.175,3.524C636.713,342.431,636.221,342.772,635.689,342.772z"/>
	</g>
	<g>
		<path fill="#9F36AD" d="M649.958,356.6c-1.04,0-2.016-0.239-2.897-0.711c-1.845-0.986-3.055-2.861-3.407-5.28
			c-0.341-2.335,0.164-4.914,1.42-7.263c1.957-3.661,5.347-6.026,8.637-6.026c1.04,0,2.016,0.239,2.897,0.711
			c3.728,1.993,4.62,7.62,1.989,12.544C656.64,354.234,653.249,356.6,649.958,356.6z M653.71,338.819
			c-2.701,0-5.641,2.104-7.314,5.233c-1.105,2.068-1.553,4.319-1.258,6.339c0.282,1.936,1.216,3.417,2.63,4.173
			c0.662,0.354,1.399,0.534,2.19,0.534c2.703,0,5.643-2.103,7.316-5.232c2.24-4.195,1.624-8.911-1.374-10.514
			C655.238,338.999,654.501,338.819,653.71,338.819z"/>
	</g>
	<g>
		<path fill="#9F36AD" d="M633.188,347.163c-0.742,0-1.435-0.168-2.057-0.5c-2.996-1.603-3.444-6.414-1.019-10.952
			c1.835-3.433,4.896-5.738,7.616-5.738c0.743,0,1.435,0.168,2.057,0.501c1.487,0.794,2.391,2.412,2.544,4.555
			c0.145,2.016-0.397,4.288-1.525,6.396C638.971,344.857,635.909,347.163,633.188,347.163z M637.729,331.472
			c-2.148,0-4.736,2.034-6.294,4.945c-1.961,3.67-1.776,7.756,0.403,8.922c0.402,0.214,0.856,0.323,1.35,0.323
			c2.15,0,4.738-2.033,6.294-4.945c0.996-1.862,1.476-3.845,1.352-5.583c-0.115-1.611-0.738-2.797-1.755-3.339
			C638.676,331.581,638.222,331.472,637.729,331.472z"/>
	</g>
	<linearGradient id="SVGID_46_" gradientUnits="userSpaceOnUse" x1="627.0645" y1="346.7734" x2="643.0283" y2="346.7734">
		<stop  offset="0" style="stop-color:#FF57BD"/>
		<stop  offset="1" style="stop-color:#EC9895"/>
	</linearGradient>
	<path fill="url(#SVGID_46_)" d="M642.252,339.667c-3.939,3.271-14.871,8.668-15.168,10.583c-0.396,2.563,5.461,3.991,6.795,3.991
		s2.309-3.616,5.873-8.575C641.76,342.873,644.346,337.928,642.252,339.667z"/>
	<g>
		<path fill="#9F36AD" d="M646.232,343.598c-0.298,0-0.579-0.178-0.696-0.471c-1.029-2.572-2.347-3.34-4.558-2.653
			c-0.397,0.125-0.816-0.098-0.938-0.493c-0.123-0.396,0.098-0.816,0.493-0.939c2.984-0.928,5.074,0.227,6.396,3.528
			c0.154,0.385-0.033,0.821-0.418,0.975C646.42,343.581,646.325,343.598,646.232,343.598z"/>
	</g>
	<path fill="#954374" d="M628.904,359.894c0.141,0.588,0.504,1.194,0.922,1.694c0.426,0.503,0.943,0.914,1.516,1.169
		c1.145,0.534,2.477,0.331,3.662-0.252c0.373-0.184,0.822-0.032,1.006,0.34s0.031,0.822-0.34,1.005
		c-0.016,0.007-0.033,0.016-0.049,0.022c-0.74,0.303-1.541,0.535-2.383,0.557c-0.838,0.036-1.703-0.147-2.449-0.538
		c-0.748-0.386-1.371-0.951-1.857-1.592c-0.477-0.651-0.867-1.352-1.029-2.203c-0.053-0.277,0.129-0.545,0.406-0.599
		c0.27-0.052,0.531,0.119,0.594,0.383L628.904,359.894z"/>
	<g>
		<path fill="#1AA9E8" d="M651.264,401.185c-5.627,0-6.817-3.036-6.867-3.17c-0.192-0.518,0.072-1.093,0.591-1.285
			c0.518-0.189,1.093,0.073,1.284,0.591c0.028,0.062,0.956,2.07,5.682,1.848c10.976-0.517,18.585-8.283,18.661-8.362
			c0.384-0.397,1.016-0.41,1.414-0.025c0.397,0.383,0.409,1.016,0.025,1.414c-0.331,0.343-8.245,8.417-20.007,8.971
			C651.777,401.179,651.516,401.185,651.264,401.185z"/>
	</g>
	<linearGradient id="SVGID_47_" gradientUnits="userSpaceOnUse" x1="637.4238" y1="338.7939" x2="688.9844" y2="338.7939">
		<stop  offset="0" style="stop-color:#5A55F8"/>
		<stop  offset="1" style="stop-color:#8C6AE2"/>
	</linearGradient>
	<path fill="url(#SVGID_47_)" d="M663.887,356.956c-1.061,0.26-2.58-0.206-2.469-2.372c0.207-4.083,7.215-10.344,7.043-16.125
		c-0.211-7.021-13.398-8.584-22.461-12.125c-9.758-3.813-9.625-15.085-7.188-18.771c2.688-4.063,7.438-2.729,9.438-0.729
		s2.916,4.221,4.668,4.167c2.02-0.063,1.27-4,4.332-4c3.102,0,5.787,5.721,7.918,8.083c3.645,4.042,22.775,10.349,23.748,24.083
		c1.336,18.833-17.414,33.5-19.498,33.5c-3.549,0.001-3.361-4.106-1.846-4.928c1.518-0.822,4.375-2.557,3.652-6.523
		C670.5,357.251,666.25,356.376,663.887,356.956z"/>
	<path fill="#9F36AD" d="M667.604,357.126c1.672,0.626,2.975,1.968,3.502,3.642c0.125-0.178,0.184-0.403,0.119-0.63
		c-1.201-4.299-7.465-8.118-10.828-10.169c-0.711-0.433-1.324-0.807-1.686-1.063c-0.338-0.239-0.807-0.158-1.045,0.18
		c-0.24,0.338-0.16,0.806,0.18,1.045c0.402,0.285,1.006,0.652,1.77,1.118C661.807,352.586,665.297,354.714,667.604,357.126z"/>
</g>
<g id="girl_x5F_left_hand">
	<linearGradient id="SVGID_48_" gradientUnits="userSpaceOnUse" x1="537.9502" y1="426.9854" x2="574.6553" y2="426.9854">
		<stop  offset="0" style="stop-color:#F4BEA3"/>
		<stop  offset="1" style="stop-color:#E8878E"/>
	</linearGradient>
	<path fill="url(#SVGID_48_)" d="M549.621,404.662c2.023-0.395,4.316,6.214,5.316,9.964s1.725,10.098,5.396,14.292
		c3.354,3.833,14.084,7.333,14.084,7.333s1.166,6.25-1.668,9.75c-2.832,3.5-7.014,3.323-7.014,3.323s-12.318-12.24-17.486-15.823
		c-5.166-3.583-8.332-8.417-9.125-11.875c-0.848-3.7-1.457-5.542-1.041-9.625c0.225-2.216,1.096-5.159,1.096-5.159
		s7.672,12.174,9.654,15.326c2.084-0.417,1.084-6.167,0.834-8.5S547.563,405.063,549.621,404.662z"/>
	<linearGradient id="SVGID_49_" gradientUnits="userSpaceOnUse" x1="564.6523" y1="441.3511" x2="676.459" y2="441.3511">
		<stop  offset="0" style="stop-color:#FDE1A7"/>
		<stop  offset="1" style="stop-color:#F9A144"/>
	</linearGradient>
	<path fill="url(#SVGID_49_)" d="M658.002,407.767c8.748-1.516,13.885,2.424,16.623,8.359c3,6.5,2.375,14.542-2.291,19.208
		s-34.715,40.375-50.543,39.922c-17.666-0.506-56.729-22.804-57.123-25.089c-0.396-2.285,6.895-14.93,7.918-14.562
		c1.021,0.368,41.412,15.627,47.414,14.011C626,448.001,651.922,408.821,658.002,407.767z"/>
	<g>
		<path fill="#1AA9E8" d="M564.657,451.147c-0.476,0-0.891-0.326-0.975-0.809c-0.46-2.653,6.012-13.763,7.874-15.327
			c0.465-0.391,0.923-0.507,1.368-0.347c0.52,0.187,0.789,0.76,0.603,1.279c-0.123,0.34-0.411,0.574-0.741,0.642
			c-1.544,1.295-7.354,11.672-7.133,13.414c0.069,0.539-0.303,1.056-0.84,1.136C564.761,451.144,564.708,451.147,564.657,451.147z"
			/>
	</g>
</g>
<g id="guy_x5F_tablet">
	<linearGradient id="SVGID_50_" gradientUnits="userSpaceOnUse" x1="284.6777" y1="581.21" x2="340.2927" y2="636.8249">
		<stop  offset="0" style="stop-color:#00E2EC"/>
		<stop  offset="1" style="stop-color:#0090B2"/>
	</linearGradient>
	<path fill="url(#SVGID_50_)" d="M278.598,629.583c0,1.549,1.256,2.804,2.805,2.804h62.165c1.549,0,2.805-1.255,2.805-2.804V588.45
		c0-1.549-1.256-2.804-2.805-2.804h-62.165c-1.549,0-2.805,1.255-2.805,2.804V629.583z"/>
	<linearGradient id="SVGID_51_" gradientUnits="userSpaceOnUse" x1="282.7388" y1="579.2705" x2="342.2317" y2="638.7635">
		<stop  offset="0" style="stop-color:#706AED"/>
		<stop  offset="1" style="stop-color:#271068"/>
	</linearGradient>
	<path fill="url(#SVGID_51_)" d="M345.735,584.017h-66.5c-1.657,0-3,1.343-3,3v44c0,1.657,1.343,3,3,3h66.5c1.657,0,3-1.343,3-3v-44
		C348.735,585.359,347.392,584.017,345.735,584.017z M343.735,629.017h-62.5v-40h62.5V629.017z"/>
	<g>
		<rect x="279.188" y="612.085" fill="#FDE1A7" width="52.918" height="5"/>
	</g>
	<polygon fill="#00E2EC" points="325.237,600.271 332.106,608.298 318.409,608.335 	"/>
	<circle fill="#F95FC3" cx="307" cy="604.303" r="4.032"/>
</g>
<g id="guy_x5F_left_leg">
	<linearGradient id="SVGID_52_" gradientUnits="userSpaceOnUse" x1="204.0952" y1="773.0967" x2="236.4826" y2="805.4841">
		<stop  offset="0" style="stop-color:#706AED"/>
		<stop  offset="1" style="stop-color:#271068"/>
	</linearGradient>
	<path fill="url(#SVGID_52_)" d="M220.075,779.637c1.843,4.614,9.727,6.548,16.342,8.114c7.129,1.688,12.207,2.662,11.917,5.5
		c-0.333,3.25-15.833,4.333-27.083,4s-19.4-1.659-21.066-2.909c-1.76-1.32-1.683-13.258-1.267-15.924
		S220.075,779.637,220.075,779.637z"/>
	<linearGradient id="SVGID_53_" gradientUnits="userSpaceOnUse" x1="147.5557" y1="569.4463" x2="290.5563" y2="712.4469">
		<stop  offset="0" style="stop-color:#994574"/>
		<stop  offset="1" style="stop-color:#43256F"/>
	</linearGradient>
	<path fill="url(#SVGID_53_)" d="M208.334,508.668c-1.5,5.5-5.333,18.167-6.667,42.167S202,648.502,202,666.502
		s-4.333,49.999-4.667,71.666s-0.763,42.041,0.5,42.833c2.792,1.75,18.792,3,24.167,0c0.938-0.523,9.667-76.166,15.667-107.833
		C241.625,652.276,257,538.833,258,522.167S208.334,508.668,208.334,508.668z"/>
	<g>
		<path fill="#CD218F" d="M211.821,775.933c-7.418,0-13.15-1.482-15.244-2.539c-0.493-0.249-0.691-0.85-0.442-1.343
			c0.248-0.493,0.849-0.692,1.343-0.442c2.902,1.464,13.369,3.782,25.568,1.13c0.541-0.118,1.072,0.226,1.189,0.766
			c0.117,0.539-0.225,1.072-0.765,1.189C219.343,775.591,215.387,775.933,211.821,775.933z"/>
	</g>
</g>
<g id="guy_x5F_right_leg">
	<linearGradient id="SVGID_54_" gradientUnits="userSpaceOnUse" x1="285.5854" y1="780.2607" x2="316.4792" y2="811.1545">
		<stop  offset="0" style="stop-color:#706AED"/>
		<stop  offset="1" style="stop-color:#271068"/>
	</linearGradient>
	<path fill="url(#SVGID_54_)" d="M301.25,785.418c1.583,2.834,8.634,6.351,15.25,7.917c7.129,1.688,12.207,2.662,11.917,5.5
		c-0.333,3.25-15.833,4.333-27.083,4s-18.833-0.75-20.5-2c-1.76-1.32-2.667-10.751-2.25-13.417S301.25,785.418,301.25,785.418z"/>
	<linearGradient id="SVGID_55_" gradientUnits="userSpaceOnUse" x1="187.2974" y1="559.1729" x2="359.0262" y2="730.9017">
		<stop  offset="0" style="stop-color:#994574"/>
		<stop  offset="1" style="stop-color:#43256F"/>
	</linearGradient>
	<path fill="url(#SVGID_55_)" d="M287.75,520.501c0.75,10,7.5,131.25,9,151.25s8.082,112.32,7.25,114.084
		c-1.375,2.916-22.625,6.166-25.875,3.291c-2.079-1.839-8.792-48.624-14.125-79.291s-17-85-23-106.333s-17-56.251-10.75-87.251
		c5.75-6.5,18.505-6.354,32.5-3.75C277.16,515.182,287.75,520.501,287.75,520.501z"/>
	<path fill="#CD218F" d="M245.607,623.675c-1.16-4.703-2.347-9.398-3.603-14.072c-1.242-4.676-2.651-9.303-4.008-13.961
		c-2.729-9.307-5.295-18.688-7.25-28.228c-0.111-0.541,0.237-1.069,0.779-1.181c0.541-0.111,1.069,0.237,1.181,0.778
		c0,0.004,0.002,0.014,0.003,0.018c1.77,9.489,4.158,18.868,6.719,28.207c1.271,4.67,2.605,9.342,3.769,14.056
		c1.177,4.709,2.282,9.431,3.36,14.158c0.06,0.263-0.104,0.524-0.368,0.584C245.93,624.094,245.671,623.933,245.607,623.675z"/>
	<g>
		<path fill="#CD218F" d="M231.716,568.158c-0.13,0-0.262-0.025-0.389-0.079c-2.925-1.234-9.555-6.016-11.184-8.73
			c-0.284-0.474-0.131-1.088,0.343-1.372c0.473-0.284,1.087-0.131,1.372,0.343c1.31,2.183,7.407,6.718,10.248,7.918
			c0.509,0.215,0.747,0.801,0.532,1.31C232.476,567.929,232.106,568.158,231.716,568.158z"/>
	</g>
	<g>
		<path fill="#CD218F" d="M284.128,783.279c-3.926,0-7.102-0.427-8.461-0.936c-0.518-0.193-0.78-0.77-0.586-1.287
			c0.193-0.517,0.771-0.776,1.287-0.586c3.204,1.198,18.276,1.84,26.938-3.583c0.469-0.294,1.085-0.151,1.378,0.317
			c0.293,0.468,0.151,1.085-0.317,1.378C298.611,782.186,290.409,783.279,284.128,783.279z"/>
	</g>
</g>
<g id="guy_x5F_left_hand">
	<linearGradient id="SVGID_56_" gradientUnits="userSpaceOnUse" x1="224.3857" y1="296.9795" x2="295.5815" y2="296.9795">
		<stop  offset="0" style="stop-color:#F4BEA3"/>
		<stop  offset="1" style="stop-color:#E8878E"/>
	</linearGradient>
	<path fill="url(#SVGID_56_)" d="M250.958,344.559c6-12,30.209-63.891,32.709-67.058s4.462-3.789,5.167-8.583
		c0.585-3.98,0.27-6.729,1-9.833c1-4.25,7.032-15.598,5.5-18.917c-1-2.167-5,3.584-6.5,5.417s-5.955,8.993-7.019,8.33
		c-0.283-2.788,0.083-12.163,0.083-12.163c-1.897,2.25-4.522,8-6.022,14s-1.042,8.083-4.375,14.917s-30.75,36.833-44.75,68.083
		c-0.81,1.807-1.596,3.652-2.365,5.525c5.917,4.149,13.825,8.334,23.351,9.996C248.734,350.234,249.821,346.832,250.958,344.559z"/>
</g>
<g id="guy_x5F_body">
	<linearGradient id="SVGID_57_" gradientUnits="userSpaceOnUse" x1="181.2314" y1="387.4321" x2="301.026" y2="507.2267">
		<stop  offset="0" style="stop-color:#1AA9E8"/>
		<stop  offset="0.4223" style="stop-color:#3D80EF"/>
		<stop  offset="0.7909" style="stop-color:#5662F4"/>
		<stop  offset="1" style="stop-color:#5F57F6"/>
	</linearGradient>
	<path fill="url(#SVGID_57_)" d="M260.917,405.751c-17.765-4.986-16.015-2.286-17.954-3.153c-2.127-2.128,0.505-31.052,4.773-48.326
		c-9.526-1.662-17.433-5.846-23.351-9.996c-12.56,30.607-19.664,69.599-20.135,100.225c-0.5,32.5,0.75,65,1,66.5
		s22.99,15.499,48.25,15.75c25.167,0.25,34.25-6.25,34.25-6.25s5.044-89.098,4.23-91.591S278.682,410.737,260.917,405.751z"/>
	<g>
		<path fill="#05C5DA" d="M257.042,520.693c-0.773,0-1.559-0.007-2.366-0.021c-29.848-0.515-48.36-13.678-50.524-16.078
			c-0.37-0.41-0.337-1.043,0.073-1.413c0.41-0.369,1.042-0.336,1.412,0.073c1.75,1.941,20.005,14.917,49.073,15.418
			c24.532,0.425,32.728-5.931,32.808-5.995c0.43-0.345,1.061-0.276,1.406,0.154c0.346,0.431,0.277,1.061-0.154,1.406
			C288.432,514.51,280.443,520.693,257.042,520.693z"/>
	</g>
	<g>
		<path fill="#05C5DA" d="M276.06,425.424c-0.36,0-0.708-0.194-0.886-0.535c-3.126-5.953-13.81-14.264-18.608-16.131
			c-0.515-0.2-0.77-0.78-0.57-1.294c0.2-0.515,0.78-0.77,1.294-0.57c5.184,2.016,16.282,10.645,19.654,17.065
			c0.257,0.489,0.069,1.093-0.42,1.35C276.375,425.388,276.216,425.424,276.06,425.424z"/>
	</g>
	<g>
		<path fill="#05C5DA" d="M226.391,395.042c-0.478,0-0.899-0.342-0.984-0.829c-2.044-11.745,4.502-30.583,7.648-39.635
			c0.68-1.958,1.218-3.504,1.43-4.303c0.141-0.534,0.689-0.852,1.223-0.709c0.534,0.142,0.852,0.689,0.709,1.223
			c-0.231,0.872-0.752,2.371-1.474,4.446c-3.091,8.894-9.522,27.401-7.567,38.636c0.095,0.544-0.27,1.062-0.814,1.157
			C226.505,395.037,226.447,395.042,226.391,395.042z"/>
	</g>
	<g>
		<path fill="#05C5DA" d="M214.251,399.251c-0.278,0-0.555-0.116-0.753-0.341c-0.364-0.416-0.322-1.047,0.094-1.411
			c2.003-1.752,12.803-7.692,25.297-2.419c0.509,0.215,0.748,0.801,0.533,1.31c-0.214,0.509-0.8,0.748-1.31,0.533
			c-11.607-4.897-21.697,0.763-23.203,2.081C214.719,399.169,214.484,399.251,214.251,399.251z"/>
	</g>
</g>
<g id="guy_x5F_head">
	<g>
		<linearGradient id="SVGID_58_" gradientUnits="userSpaceOnUse" x1="268.7344" y1="344.5176" x2="281.4395" y2="344.5176">
			<stop  offset="0" style="stop-color:#EC9895"/>
			<stop  offset="1" style="stop-color:#FF57BD"/>
		</linearGradient>
		<path fill="url(#SVGID_58_)" d="M269.366,336.126c3.808,6.306,11.384,7.5,12.009,9.625s-3.5,6.375-4.75,7.125
			s-7.25-11.5-7.75-12.875S269.366,336.126,269.366,336.126z"/>
		<linearGradient id="SVGID_59_" gradientUnits="userSpaceOnUse" x1="226.6084" y1="345.6523" x2="273.8119" y2="392.8559">
			<stop  offset="0" style="stop-color:#F4BEA3"/>
			<stop  offset="1" style="stop-color:#E8878E"/>
		</linearGradient>
		<path fill="url(#SVGID_59_)" d="M258.813,322.939c0,0-17.313,5.062-25.813,16.896c-4.693,6.534,1.133,18.043,7.292,27.045
			c-2.063,1.762-3.125,3.788-3.125,3.788l-0.792,2.208c-0.458,5.042-5.945,22.401-7.945,27.568
			c-0.744,1.922,4.466,8.989,15.82,9.557c10,0.5,16.667-4.25,16.667-4.25l0.958-21.938c0,0,0.336-1.373,0.698-3.242
			c4.836-0.616,10.335-2.512,14.927-7.237C289,361.501,265.25,328.126,258.813,322.939z"/>
		<linearGradient id="SVGID_60_" gradientUnits="userSpaceOnUse" x1="221.1572" y1="339.793" x2="271.605" y2="339.793">
			<stop  offset="0" style="stop-color:#CB2090"/>
			<stop  offset="1" style="stop-color:#43256F"/>
		</linearGradient>
		<path fill="url(#SVGID_60_)" d="M255.334,353.334c1.267-0.857,0.917-3.5-2.083-6.5s-6.167-5.667-5.583-8.833
			c0.579-3.141,10.921-6.489,15.776-10.088c7.974-5.912,10.557-20.246,5.724-21.162c-6.631-1.257-8.748,7.833-10.5,7.833
			c-2.083,0-1.017-4.859-4.005-4.508c-4.329,0.508-5.996,6.675-8.495,8.591c-3.746,2.872-23.667,9-24.917,23.833
			c-1.018,12.075,6.545,18.941,9.875,23.25c3.542,4.583,4.635,6.94,5.25,7.125c1.104,0.332,5.965-0.392,10.125-2.125
			c4.5-1.875,7.25-4.25,6.375-5.375s-7.417-2.381-7.875-7.875c-0.333-4,2.375-5.75,4.5-5.375S253.917,354.293,255.334,353.334z"/>
		<linearGradient id="SVGID_61_" gradientUnits="userSpaceOnUse" x1="257.5176" y1="357.4326" x2="279.2148" y2="379.1299">
			<stop  offset="0" style="stop-color:#CB2090"/>
			<stop  offset="1" style="stop-color:#43256F"/>
		</linearGradient>
		<path fill="url(#SVGID_61_)" d="M258.375,357.376c0.783,0.024,1.375,5.333,4.438,6.063c2.04,0.485,8.604-4.063,11.563-5.375
			c1.797-0.797,5.001-1.343,5.207-0.521s0.668,3.834,1.793,6.521c0.95,2.269,3.125,4.354,2.063,9
			c-1.56,6.823-13.438,11.938-21.563,10.75c-0.188-1.938-0.459-4.943-1.813-10.375c-1.563-6.271-3.996-11.979-3.938-13.125
			C256.209,358.668,257.042,357.334,258.375,357.376z"/>
		<g>
			<path fill="#0090B2" d="M267.083,346.168c-0.657,0-1.26-0.435-1.444-1.099c-0.344-1.24-1.917-3.97-2.232-4.389
				c-0.493-0.655-0.379-1.598,0.269-2.1c0.647-0.501,1.568-0.406,2.08,0.234c0.403,0.503,2.289,3.704,2.774,5.453
				c0.222,0.798-0.246,1.625-1.044,1.847C267.351,346.15,267.215,346.168,267.083,346.168z"/>
		</g>
		<path fill="#F1D2F8" d="M274.906,362.5c0.177,0.297,0.721,0.661,1.206,0.855c0.506,0.208,1.052,0.309,1.576,0.25
			c1.063-0.093,1.957-0.956,2.509-2.029c0.1-0.197,0.34-0.275,0.537-0.175c0.187,0.095,0.266,0.321,0.186,0.512
			c-0.264,0.621-0.609,1.236-1.116,1.755c-0.496,0.523-1.184,0.918-1.925,1.07c-0.743,0.155-1.507,0.082-2.206-0.133
			c-0.703-0.245-1.353-0.498-1.972-1.213l-0.011-0.013c-0.272-0.314-0.238-0.791,0.076-1.063s0.791-0.238,1.063,0.077
			C274.857,362.425,274.884,362.464,274.906,362.5z"/>
		<g>
			<linearGradient id="SVGID_62_" gradientUnits="userSpaceOnUse" x1="228.3608" y1="401.8101" x2="261.2661" y2="401.8101">
				<stop  offset="0" style="stop-color:#1AA9E8"/>
				<stop  offset="0.4223" style="stop-color:#3D80EF"/>
				<stop  offset="0.7909" style="stop-color:#5662F4"/>
				<stop  offset="1" style="stop-color:#5F57F6"/>
			</linearGradient>
			<path fill="url(#SVGID_62_)" d="M244.25,410.001c10,0.5,16.667-4.25,16.667-4.25l0.349-7.993
				c-2.518,1.354-7.953,3.683-15.114,3.325c-8.692-0.435-13.77-4.673-15.346-7.501c-0.944,2.902-1.803,5.383-2.375,6.862
				C227.687,402.366,232.896,409.433,244.25,410.001z"/>
			<g>
				<path fill="#05C5DA" d="M245.741,411.038c-0.505,0-1.018-0.012-1.541-0.039c-8.391-0.419-13.806-4.324-15.894-7.54
					c-0.855-1.317-1.142-2.516-0.809-3.377c0.2-0.515,0.779-0.771,1.293-0.572c0.513,0.199,0.769,0.774,0.574,1.288
					c-0.029,0.124,0.034,0.795,0.871,1.935c2.05,2.792,6.822,5.906,14.064,6.268c9.543,0.469,15.972-4.02,16.037-4.066
					c0.449-0.321,1.073-0.216,1.395,0.234c0.32,0.45,0.216,1.074-0.234,1.395C261.228,406.757,255.105,411.038,245.741,411.038z"/>
			</g>
		</g>
	</g>
</g>
<g id="guy_x5F_right_hand">
	<linearGradient id="SVGID_63_" gradientUnits="userSpaceOnUse" x1="268.5098" y1="532.832" x2="319.2881" y2="532.832">
		<stop  offset="0" style="stop-color:#F4BEA3"/>
		<stop  offset="1" style="stop-color:#E8878E"/>
	</linearGradient>
	<path fill="url(#SVGID_63_)" d="M310.938,569.313c-2.834-8.671-5.82-64.987-10.883-104.153
		c-14.052,0.372-25.483,3.893-31.545,6.791c1.427,6.59,3.482,15.213,6.741,26.55c8.917,31.022,20.875,66.375,21.083,74
		c0.123,4.498-3.706,9.778-4.194,16.421c-0.327,4.454,1.485,11.704,3.194,11.579c2.167-0.158,1.986-6.757,2.854-9.875
		c1.375-4.938,4.313-6.625,4.313-6.625s6.25,0.016,16.788,0.016C317.809,578.704,312.173,573.094,310.938,569.313z"/>
	<linearGradient id="SVGID_64_" gradientUnits="userSpaceOnUse" x1="260.1289" y1="447.7715" x2="300.0547" y2="447.7715">
		<stop  offset="0" style="stop-color:#1AA9E8"/>
		<stop  offset="0.4223" style="stop-color:#3D80EF"/>
		<stop  offset="0.7909" style="stop-color:#5662F4"/>
		<stop  offset="1" style="stop-color:#5F57F6"/>
	</linearGradient>
	<path fill="url(#SVGID_64_)" d="M291.167,427.834c-10-10.667-29.167,0.5-31,14.5c-0.392,2.993,2.333,6.501,4.333,11.667
		c1.186,3.063,1.93,8.347,4.009,17.95c6.062-2.898,17.493-6.419,31.545-6.791C297.636,446.45,294.744,431.649,291.167,427.834z"/>
	<g>
		<path fill="#05C5DA" d="M268.51,472.951c-0.373,0-0.731-0.21-0.903-0.568c-0.238-0.499-0.027-1.096,0.471-1.334
			c3.138-1.5,14.718-6.432,31.95-6.889c0.554,0.003,1.012,0.422,1.026,0.974c0.015,0.552-0.421,1.012-0.973,1.026
			c-13.378,0.354-24.858,3.689-31.14,6.693C268.802,472.92,268.655,472.951,268.51,472.951z"/>
	</g>
	<g>
		<path fill="#05C5DA" d="M260.168,443.334c-0.043,0-0.087-0.003-0.131-0.008c-0.547-0.072-0.934-0.574-0.862-1.122
			c1.062-8.107,7.947-15.959,16.371-18.671c6.326-2.037,12.286-0.719,16.351,3.618c0.378,0.403,0.357,1.036-0.045,1.414
			c-0.402,0.378-1.036,0.358-1.414-0.045c-4.812-5.133-11.012-4.135-14.279-3.082c-7.726,2.487-14.034,9.648-15,17.027
			C261.093,442.967,260.663,443.334,260.168,443.334z"/>
	</g>
</g>
<g id="joints_x5F_4">
	<g>
		<polygon fill="#F95FC3" points="592.861,327.984 582.336,327.067 592.086,317.447 		"/>
		<g>
			<path fill="#1AA9E8" d="M555.668,360.168c-0.421,0-0.813-0.268-0.95-0.689c-5.132-15.68,5-25.397,21.785-41.498
				c3.466-3.324,7.395-7.092,11.455-11.185c23.899-24.09,19.233-48.553,17.233-55.477c-0.153-0.53,0.153-1.085,0.684-1.238
				c0.533-0.151,1.085,0.153,1.238,0.684c2.076,7.188,6.932,32.576-17.735,57.439c-4.078,4.11-8.016,7.888-11.49,11.22
				c-16.22,15.557-26.01,24.947-21.27,39.432c0.172,0.525-0.114,1.09-0.64,1.261C555.876,360.152,555.771,360.168,555.668,360.168z"
				/>
		</g>
		<g>
			<path fill="#00E2EC" d="M603.129,313.377l-3.549-3.521c9.082-9.155,14.912-19.351,17.33-30.304l4.883,1.078
				C619.168,292.522,612.889,303.54,603.129,313.377z"/>
		</g>
		<circle fill="#FDE1A7" cx="606.153" cy="251.043" r="3.958"/>
	</g>
</g>
<g id="joints_x5F_3">
	<g>
		<g>
			<path fill="#1AA9E8" d="M546.665,364.168c-0.155,0-0.314-0.037-0.462-0.115c-0.293-0.154-7.163-3.904-5.525-15.36
				c0.927-6.492,5.158-11.953,9.638-17.734c5.825-7.518,11.849-15.292,11.021-26.048c-0.32-4.167-2.459-7.829-6.357-10.886
				c-20.878-16.375-85.336-11.966-101.713-9.259c-0.553,0.085-1.06-0.279-1.149-0.824c-0.091-0.545,0.278-1.06,0.823-1.15
				c16.569-2.738,81.868-7.129,103.273,9.659c4.357,3.417,6.752,7.558,7.117,12.307c0.887,11.525-5.659,19.973-11.435,27.426
				c-4.313,5.566-8.387,10.824-9.238,16.792c-1.429,9.995,4.238,13.179,4.479,13.31c0.484,0.262,0.669,0.866,0.41,1.352
				C547.368,363.975,547.022,364.168,546.665,364.168z"/>
		</g>
		<g>
			<path fill="#C7A0F6" d="M529.24,296.448c-9.563-1.572-20.971-2.379-33.91-2.397l0.008-5c13.207,0.019,24.885,0.847,34.713,2.463
				L529.24,296.448z"/>
		</g>
		<circle fill="#FDE1A7" cx="453.103" cy="283.779" r="3.958"/>
	</g>
</g>
<g id="joints_x5F_2">
	<g>
		<polygon fill="#F95FC3" points="166.698,375.969 163.078,385.895 156.321,373.983 		"/>
		<g>
			<path fill="#1AA9E8" d="M270.296,458.94c-0.791,0-1.579-0.006-2.37-0.018c-39.961-0.604-75.531-16.148-100.157-43.77
				c-28.965-32.489-42.714-73.667-36.78-110.151c4.456-27.393,19.57-49.73,42.559-62.898c0.479-0.275,1.09-0.109,1.365,0.371
				s0.108,1.09-0.371,1.365c-22.456,12.862-37.222,34.698-41.579,61.484c-5.839,35.895,7.73,76.455,36.299,108.499
				c51.457,57.717,145.058,57.829,213.092,0.25c11.769-9.96,21.803-20.232,31.507-30.166c23.083-23.629,43.019-44.037,73.263-44.796
				c28.253-0.708,42.284,13.88,49.085,26.243c0.267,0.484,0.09,1.092-0.394,1.358c-0.485,0.268-1.093,0.09-1.358-0.394
				c-6.533-11.877-20.026-25.886-47.282-25.208c-29.433,0.739-49.104,20.877-71.883,44.194
				c-9.737,9.967-19.805,20.273-31.646,30.294C350.559,443.601,310.394,458.939,270.296,458.94z"/>
		</g>
		<g>
			<path fill="#C7A0F6" d="M152.561,364.925c-4.686-13.327-7.18-26.798-7.412-40.039l4.999-0.088
				c0.223,12.705,2.622,25.647,7.13,38.468L152.561,364.925z"/>
		</g>
		<g>
			<path fill="#00E2EC" d="M306.065,446.951l-1.092-4.879c11.689-2.617,23.255-6.552,34.377-11.697l2.099,4.538
				C330.006,440.208,318.101,444.258,306.065,446.951z"/>
		</g>
		<circle fill="#FDE1A7" cx="174.046" cy="242.972" r="3.958"/>
	</g>
</g>
<g id="joints_x5F_1">
	<g>
		<polygon fill="#00E2EC" points="507.633,524.75 497.25,526.71 504.039,514.813 		"/>
		<g>
			<path fill="#1AA9E8" d="M431.22,547.87c-1.38,0-2.711-0.037-3.982-0.109c-0.551-0.03-0.973-0.503-0.942-1.055
				c0.032-0.551,0.516-0.968,1.055-0.941c19.284,1.094,52.447-5.934,64.763-29.724c5.512-10.647,7.058-25.914,8.693-42.077
				c2.712-26.787,5.516-54.484,26.338-67.314c0.47-0.291,1.085-0.143,1.376,0.327c0.289,0.47,0.144,1.086-0.327,1.376
				c-19.98,12.311-22.734,39.51-25.396,65.813c-1.656,16.358-3.221,31.81-8.908,42.796
				C481.955,540.013,451.333,547.87,431.22,547.87z"/>
		</g>
		<g>
			<path fill="#F95FC3" d="M511.037,505.397l-4.865-1.154c2.041-8.596,3.037-18.447,4.094-28.878
				c0.297-2.933,0.596-5.888,0.922-8.841l4.971,0.549c-0.324,2.938-0.623,5.878-0.918,8.796
				C514.168,486.469,513.154,496.479,511.037,505.397z"/>
		</g>
		<circle fill="#C7A0F6" cx="427.293" cy="546.763" r="3.958"/>
	</g>
</g>
</svg>
