<?xml version="1.0" standalone="no"?><!DOCTYPE svg PUBLIC "-//W3C//DTD SVG 1.1//EN" "http://www.w3.org/Graphics/SVG/1.1/DTD/svg11.dtd"><svg t="1633051965073" class="icon" viewBox="0 0 1024 1024" version="1.1" xmlns="http://www.w3.org/2000/svg" p-id="27645" xmlns:xlink="http://www.w3.org/1999/xlink" width="200" height="200"><defs><style type="text/css"></style></defs><path d="M797.8496 940.2368H230.5024c-50.8928 0-92.16-41.2672-92.16-92.16V262.8608c0-50.8928 41.2672-92.16 92.16-92.16h567.3472c50.8928 0 92.16 41.2672 92.16 92.16v585.216c0 50.8928-41.2672 92.16-92.16 92.16z" fill="#4B26D3" p-id="27646"></path><path d="M760.1152 901.5808H251.8016c-50.8928 0-92.16-41.2672-92.16-92.16V284.672c0-50.8928 41.2672-92.16 92.16-92.16h508.3136c50.8928 0 92.16 41.2672 92.16 92.16v524.8c0 50.8928-41.2672 92.1088-92.16 92.1088z" fill="#5935DB" p-id="27647"></path><path d="M729.344 860.0064H272.3328c-50.8928 0-92.16-41.2672-92.16-92.16V295.5776c0-50.8928 41.2672-92.16 92.16-92.16h457.0112c50.8928 0 92.16 41.2672 92.16 92.16v472.2688c0 50.8928-41.2672 92.16-92.16 92.16z" fill="#6241EF" p-id="27648"></path><path d="M697.9584 827.9552h-404.48c-50.8928 0-92.16-41.2672-92.16-92.16V317.3376c0-50.8928 41.2672-92.16 92.16-92.16h404.48c50.8928 0 92.16 41.2672 92.16 92.16v418.4576c0 50.8928-41.2672 92.16-92.16 92.16z" fill="#6A5BF1" p-id="27649"></path><path d="M249.4464 170.7008v106.9568c0 35.328 28.6208 63.8976 63.8976 63.8976h397.6704c35.328 0 63.8976-28.6208 63.8976-63.8976V170.7008H249.4464z" fill="#3D10C6" p-id="27650"></path><path d="M326.912 83.7632h370.5856c28.7232 0 51.968 23.2448 51.968 51.968v126.1568c0 28.7232-23.2448 51.968-51.968 51.968H326.912c-28.7232 0-51.968-23.2448-51.968-51.968V135.7312c0-28.7232 23.296-51.968 51.968-51.968z" fill="#FAB001" p-id="27651"></path><path d="M334.6432 88.0128h344.8832c28.7232 0 51.968 23.2448 51.968 51.968v107.4176c0 28.7232-23.2448 51.968-51.968 51.968H334.6432c-28.7232 0-51.968-23.2448-51.968-51.968V139.9808c0-28.672 23.296-51.968 51.968-51.968z" fill="#F7BD2D" p-id="27652"></path><path d="M344.064 95.0784h313.9584c28.7232 0 51.968 23.2448 51.968 51.968v90.2144c0 28.7232-23.2448 51.968-51.968 51.968H344.064c-28.7232 0-51.968-23.2448-51.968-51.968V147.0464c0-28.672 23.296-51.968 51.968-51.968z" fill="#FCD430" p-id="27653"></path><path d="M635.7504 736.9728H484.7616c-33.9456 0-61.44-27.4944-61.44-61.44V474.4704c0-33.9456 27.4944-61.44 61.44-61.44s61.44 27.4944 61.44 61.44v139.6224h89.5488c33.9456 0 61.44 27.4944 61.44 61.44s-27.4944 61.44-61.44 61.44z" fill="#4B26D3" p-id="27654"></path><path d="M644.7104 713.1136H486.0416c-20.7872 0-37.632-16.4352-37.632-36.7104V470.3744c0-20.2752 16.8448-36.7104 37.632-36.7104s37.632 16.4352 37.632 36.7104v169.2672h120.9856c20.7872 0 37.632 16.4352 37.632 36.7104 0.0512 20.3264-16.7936 36.7616-37.5808 36.7616z" fill="#5FF7FF" p-id="27655"></path><path d="M635.7504 701.1328H484.7616c-14.1312 0-25.6-11.4688-25.6-25.6V474.4704c0-14.1312 11.4688-25.6 25.6-25.6s25.6 11.4688 25.6 25.6v175.4624h125.3888c14.1312 0 25.6 11.4688 25.6 25.6s-11.4688 25.6-25.6 25.6z" fill="#AFFBFF" p-id="27656"></path></svg>