<?xml version="1.0" standalone="no"?><!DOCTYPE svg PUBLIC "-//W3C//DTD SVG 1.1//EN" "http://www.w3.org/Graphics/SVG/1.1/DTD/svg11.dtd"><svg t="1633052137538" class="icon" viewBox="0 0 1024 1024" version="1.1" xmlns="http://www.w3.org/2000/svg" p-id="51023" xmlns:xlink="http://www.w3.org/1999/xlink" width="200" height="200"><defs><style type="text/css"></style></defs><path d="M723.2 931.2256H299.2128c-93.8496 0-169.9328-76.0832-169.9328-169.9328V255.2832c0-93.8496 76.0832-169.9328 169.9328-169.9328h423.9872c93.8496 0 169.9328 76.0832 169.9328 169.9328v506.0096c0 93.8496-76.0832 169.9328-169.9328 169.9328z" fill="#4058E2" p-id="51024"></path><path d="M687.4624 875.7248H334.8992c-93.8496 0-169.9328-76.0832-169.9328-169.9328V294.8608c0-93.8496 76.0832-169.9328 169.9328-169.9328h352.5632c93.8496 0 169.9328 76.0832 169.9328 169.9328v410.9312c0 93.8496-76.0832 169.9328-169.9328 169.9328z" fill="#5565E9" p-id="51025"></path><path d="M648.8064 823.7568H373.6064c-93.8496 0-169.9328-76.0832-169.9328-169.9328V329.4208c0-93.8496 76.0832-169.9328 169.9328-169.9328h275.2c93.8496 0 169.9328 76.0832 169.9328 169.9328v324.4032c0 93.8496-76.0832 169.9328-169.9328 169.9328z" fill="#6675FE" p-id="51026"></path><path d="M613.0176 771.84H409.344c-93.8496 0-169.9328-76.0832-169.9328-169.9328V362.4448c0-93.8496 76.0832-169.9328 169.9328-169.9328h203.6736c93.8496 0 169.9328 76.0832 169.9328 169.9328v239.5136c0 93.7984-76.0832 169.8816-169.9328 169.8816z" fill="#7084FC" p-id="51027"></path><path d="M704 200.4992H300.7488c-47.9744 0-87.04 39.0656-87.04 87.04s39.0656 87.04 87.04 87.04h403.3024c47.9744 0 87.04-39.0656 87.04-87.04s-39.0656-87.04-87.0912-87.04zM463.0016 376.9344H300.7488c-47.9744 0-87.04 39.0656-87.04 87.04s39.0656 87.04 87.04 87.04h162.2528c47.9744 0 87.04-39.0656 87.04-87.04s-39.0656-87.04-87.04-87.04zM334.3872 553.3696h-33.6384c-47.9744 0-87.04 39.0656-87.04 87.04s39.0656 87.04 87.04 87.04h33.6384c47.9744 0 87.04-39.0656 87.04-87.04s-39.0144-87.04-87.04-87.04z" fill="#4058E2" p-id="51028"></path><path d="M704 343.8592H300.7488c-31.1296 0-56.32-25.1904-56.32-56.32s25.1904-56.32 56.32-56.32h403.3024c31.1296 0 56.32 25.1904 56.32 56.32s-25.2416 56.32-56.3712 56.32zM465.7664 520.2944H300.7488c-31.1296 0-56.32-25.1904-56.32-56.32s25.1904-56.32 56.32-56.32h165.0176c31.1296 0 56.32 25.1904 56.32 56.32s-25.1904 56.32-56.32 56.32zM333.1072 696.7296h-32.3584c-31.1296 0-56.32-25.1904-56.32-56.32s25.1904-56.32 56.32-56.32h32.3584c31.1296 0 56.32 25.1904 56.32 56.32 0 31.0784-25.2416 56.32-56.32 56.32z" fill="#F9B900" p-id="51029"></path><path d="M881.664 822.6304l-15.0528-15.9232a224.5376 224.5376 0 0 0 23.9104-100.9664c0-124.3648-101.1712-225.536-225.536-225.536s-225.536 101.1712-225.536 225.536c0 123.904 100.4544 224.768 224.2048 225.4848h2.4064c19.5072-0.1024 38.7584-2.6624 57.4464-7.68l7.0656 7.5264c68.9664-2.9696 127.2832-47.0528 151.0912-108.4416z m-216.7296-75.6736c-22.7328 0-41.216-18.4832-41.216-41.216 0-22.7328 18.4832-41.216 41.216-41.216 22.7328 0 41.216 18.4832 41.216 41.216 0 22.7328-18.4832 41.216-41.216 41.216z" fill="#4058E2" p-id="51030"></path><path d="M865.0752 857.2928l-42.9568-45.4656a188.5184 188.5184 0 0 0 32.512-106.0864c0-104.6016-85.0944-189.696-189.696-189.696s-189.696 85.0944-189.696 189.696 85.0944 189.696 189.696 189.696c24.32 0 47.5136-4.6592 68.9152-13.0048l49.3056 52.224c11.0592 11.7248 26.0096 17.664 40.96 17.664 13.8752 0 27.8016-5.12 38.656-15.36 22.6304-21.4528 23.6544-57.088 2.304-79.6672z m-277.1968-151.552c0-42.496 34.56-77.056 77.056-77.056s77.056 34.56 77.056 77.056-34.56 77.056-77.056 77.056-77.056-34.6112-77.056-77.056z" fill="#F9B900" p-id="51031"></path><path d="M704 320.8192H300.7488a33.28 33.28 0 1 1 0-66.56h403.3024c18.3808 0 33.28 14.8992 33.28 33.28s-14.9504 33.28-33.3312 33.28zM465.7664 497.2544H300.7488a33.28 33.28 0 1 1 0-66.56h165.0176a33.28 33.28 0 1 1 0 66.56zM333.1072 673.6896h-32.3584a33.28 33.28 0 1 1 0-66.56h32.3584a33.28 33.28 0 1 1 0 66.56zM848.3328 873.1136l-56.3712-59.648c24.6784-29.0816 39.6288-66.6624 39.6288-107.7248 0-91.904-74.752-166.656-166.656-166.656s-166.656 74.752-166.656 166.656 74.752 166.656 166.656 166.656c26.7776 0 52.0704-6.4 74.496-17.6128l60.5184 64.0512c6.5536 6.912 15.36 10.4448 24.2176 10.4448 8.192 0 16.4352-3.0208 22.8352-9.1136 13.312-12.6464 13.9264-33.6896 1.3312-47.0528z m-283.4944-167.3728c0-55.1936 44.9024-100.096 100.096-100.096s100.096 44.9024 100.096 100.096-44.9024 100.096-100.096 100.096-100.096-44.9024-100.096-100.096z" fill="#F9C633" p-id="51032"></path><path d="M704 302.8992H300.7488c-8.4992 0-15.36-6.8608-15.36-15.36s6.8608-15.36 15.36-15.36h403.3024c8.4992 0 15.36 6.8608 15.36 15.36s-6.912 15.36-15.4112 15.36zM465.7664 479.3344H300.7488c-8.4992 0-15.36-6.8608-15.36-15.36s6.8608-15.36 15.36-15.36h165.0176c8.4992 0 15.36 6.8608 15.36 15.36s-6.8608 15.36-15.36 15.36zM333.1072 655.7696h-32.3584c-8.4992 0-15.36-6.8608-15.36-15.36s6.8608-15.36 15.36-15.36h32.3584c8.4992 0 15.36 6.8608 15.36 15.36s-6.912 15.36-15.36 15.36zM835.2768 885.4016l-67.6864-72.2432c28.3648-27.0848 46.08-65.2288 46.08-107.4688 0-82.0224-66.7136-148.736-148.736-148.736s-148.736 66.7136-148.736 148.736 66.7136 148.736 148.736 148.736c28.7232 0 55.552-8.192 78.336-22.3744l69.6832 74.3936a15.36 15.36 0 0 0 21.7088 0.6144 15.2576 15.2576 0 0 0 0.6144-21.6576z m-288.3584-179.6608c0-65.0752 52.9408-118.016 118.016-118.016s118.016 52.9408 118.016 118.016-52.9408 118.016-118.016 118.016-118.016-52.9408-118.016-118.016z" fill="#FFD68D" p-id="51033"></path></svg>