<?xml version="1.0" standalone="no"?><!DOCTYPE svg PUBLIC "-//W3C//DTD SVG 1.1//EN" "http://www.w3.org/Graphics/SVG/1.1/DTD/svg11.dtd"><svg t="1633493407692" class="icon" viewBox="0 0 1024 1024" version="1.1" xmlns="http://www.w3.org/2000/svg" p-id="77847" xmlns:xlink="http://www.w3.org/1999/xlink" width="200" height="200"><defs><style type="text/css"></style></defs><path d="M886.4256 639.0272l56.5248 71.2192c26.4704 33.3312 2.7136 82.4832-39.8336 82.4832H126.6176c-42.9056 0-66.56-49.8688-39.3728-83.0464l57.5488-70.3488c11.9808-14.6432 18.4832-32.9216 18.4832-51.8144V416.2048c0-194.7648 157.9008-352.6656 352.6656-352.6656 194.7648 0 352.6656 157.9008 352.6656 352.6656v171.9296c0.1024 18.4832 6.3488 36.4032 17.8176 50.8928z" fill="#0068FF" p-id="77848"></path><path d="M845.4144 620.9024l51.0464 65.2288c23.9104 30.5152 2.4576 75.52-35.9936 75.52H159.1808c-38.7584 0-60.1088-45.6704-35.5328-76.0832l51.968-64.4608c10.8032-13.4144 16.6912-30.1568 16.6912-47.4624V416.768c0-178.432 142.592-323.072 318.5152-323.072s318.5152 144.64 318.5152 323.072v157.4912c0.0512 16.9472 5.7344 33.3824 16.0768 46.6432z" fill="#0070FF" p-id="77849"></path><path d="M809.3696 608.0512l46.336 59.1872c21.6576 27.6992 2.2016 68.5568-32.6656 68.5568H186.624c-35.1744 0-54.528-41.4208-32.256-69.0688l47.1552-58.4704c9.8304-12.1344 15.1552-27.392 15.1552-43.1104v-142.336c0-161.8944 129.4336-293.1712 289.0752-293.1712s289.0752 131.2768 289.0752 293.1712v142.9504c0 15.36 5.12 30.2592 14.5408 42.2912z" fill="#0D7EF9" p-id="77850"></path><path d="M748.6464 583.8336l38.6048 51.0464c18.0736 23.8592 1.8432 59.0848-27.2384 59.0848H229.4272c-29.3376 0-45.4656-35.7376-26.88-59.4944l39.3216-50.432a60.3648 60.3648 0 0 0 12.6464-37.12V424.192c0-139.5712 107.9296-252.672 240.9984-252.672 133.12 0 240.9984 113.1008 240.9984 252.672v123.1872c0 13.2096 4.3008 26.0608 12.1344 36.4544z" fill="#118BF7" p-id="77851"></path><path d="M353.5872 832.256s16.7936 127.8976 154.4704 127.8976 168.448-127.8976 168.448-127.8976H353.5872z" fill="#FCAB08" p-id="77852"></path><path d="M372.2752 838.7072s14.2848 105.0624 131.6352 105.0624 143.5648-105.0624 143.5648-105.0624H372.2752z" fill="#FFB839" p-id="77853"></path><path d="M401.8688 851.456s10.9056 73.8816 100.5568 73.8816 109.6704-73.8816 109.6704-73.8816H401.8688z" fill="#FEC943" p-id="77854"></path><path d="M679.7824 507.0848c-31.1296 0-56.32-25.1904-56.32-56.32V305.1008c0-31.1296 25.1904-56.32 56.32-56.32s56.32 25.1904 56.32 56.32v145.7152c0 31.0784-25.2416 56.2688-56.32 56.2688z" fill="#0068FF" p-id="77855"></path><path d="M679.7824 491.7248c-23.7568 0-42.9568-18.3296-42.9568-40.96V305.1008c0-22.6304 19.2512-40.96 42.9568-40.96 23.7568 0 42.9568 18.3296 42.9568 40.96v145.7152c0 22.5792-19.2512 40.9088-42.9568 40.9088z" fill="#FFB839" p-id="77856"></path><path d="M679.7824 478.0032c-16.9472 0-30.72-13.312-30.72-29.696v-140.8c0-16.384 13.7728-29.696 30.72-29.696s30.72 13.312 30.72 29.696v140.8c0 16.384-13.7728 29.696-30.72 29.696z" fill="#FEC943" p-id="77857"></path></svg>