<?xml version="1.0" standalone="no"?><!DOCTYPE svg PUBLIC "-//W3C//DTD SVG 1.1//EN" "http://www.w3.org/Graphics/SVG/1.1/DTD/svg11.dtd"><svg t="1633066520083" class="icon" viewBox="0 0 1024 1024" version="1.1" xmlns="http://www.w3.org/2000/svg" p-id="23995" xmlns:xlink="http://www.w3.org/1999/xlink" width="200" height="200"><defs><style type="text/css"></style></defs><path d="M662.4256 937.8816H209.5616c-65.6896 0-118.9376-53.248-118.9376-118.9376V206.592c0-65.6896 53.248-118.9376 118.9376-118.9376h344.1152l227.6352 225.2288v506.0608c0.0512 65.6896-53.1968 118.9376-118.8864 118.9376z" fill="#F2942F" p-id="23996"></path><path d="M178.0224 903.7312h452.864c65.6896 0 118.9376-53.248 118.9376-118.9376V281.6512l-196.096-193.9968H209.5616c-65.6896 0-118.9376 53.248-118.9376 118.9376v612.352c0 22.7328 6.4 43.9296 17.408 62.0032a118.6816 118.6816 0 0 0 69.9904 22.784z" fill="#FAB001" p-id="23997"></path><path d="M556.4416 100.1472H217.8048c-64.6144 0-117.0432 52.3776-117.0432 117.0432v602.5728c0 13.6192 2.3552 26.6752 6.6048 38.8096 16.5888 8.96 35.5328 14.08 55.7056 14.08h445.6448c64.6144 0 117.0432-52.3776 117.0432-117.0432v-487.936l-169.3184-167.5264z" fill="#F7BD2D" p-id="23998"></path><path d="M555.776 121.8048h-325.12c-62.0544 0-112.384 50.3296-112.384 112.384v578.56c0 6.0416 0.512 11.9296 1.3824 17.7152 11.4688 3.9424 23.7056 6.0928 36.5056 6.0928h427.8784c62.0544 0 112.384-50.3296 112.384-112.384V260.9152l-140.6464-139.1104z" fill="#FCD430" p-id="23999"></path><path d="M622.5408 883.5072l-95.3344 51.2c-15.2576 8.192-33.6896-3.1232-33.28-20.4288l2.4064-104.9088c0.256-10.7008 3.1744-21.1456 8.5504-30.4128l303.1552-525.1072a22.00576 22.00576 0 0 1 30.0544-8.0384l103.7824 59.904a22.00576 22.00576 0 0 1 8.0384 30.0544L647.68 859.2896a64.93696 64.93696 0 0 1-25.1392 24.2176z" fill="#39AFDA" p-id="24000"></path><path d="M926.2592 320.0512c2.2528-3.8912 3.1232-8.1408 2.816-12.288a5.376 5.376 0 0 0-2.6624-4.4032l-91.1872-52.6336c-10.496-6.0928-23.9616-2.4576-30.0544 8.0384L504.832 778.9056a63.56992 63.56992 0 0 0-8.5504 30.4128l-2.4064 104.9088c0.9216 0.9728 1.4848 1.536 2.4064 2.5088 3.3792-0.1024 6.8096-0.9216 10.0864-2.6624l95.3344-51.2a64 64 0 0 0 25.088-24.32l299.4688-518.5024z" fill="#9CE4F3" p-id="24001"></path><path d="M613.7856 856.8832L549.632 890.88c-11.4176 8.4992-22.9376 1.2288-20.6336-13.0048l3.4816-66.2016c1.4336-8.8064 4.6592-17.7152 9.4208-25.9584l279.7568-486.4512c5.376-9.3184 15.0016-13.8752 21.504-10.1376l63.9488 36.9152c6.4512 3.7376 7.3728 14.336 1.9456 23.6544l-267.1104 466.0736c-5.2736 9.1136-20.3264 35.2768-28.16 41.1136z" fill="#52C5F8" p-id="24002"></path><path d="M584.4992 346.9312H232.3968c-28.672 0-51.8656-23.2448-51.8656-51.8656 0-28.672 23.2448-51.8656 51.8656-51.8656h352.1024c28.672 0 51.8656 23.2448 51.8656 51.8656 0 28.672-23.2448 51.8656-51.8656 51.8656zM485.7856 581.7856h-253.44c-28.672 0-51.8656-23.2448-51.8656-51.8656 0-28.672 23.2448-51.8656 51.8656-51.8656h253.44c28.672 0 51.8656 23.2448 51.8656 51.8656 0 28.672-23.1936 51.8656-51.8656 51.8656z" fill="#F2942F" p-id="24003"></path><path d="M483.0208 563.5584H231.5264c-23.6032 0-42.752-19.1488-42.752-42.752 0-23.6032 19.1488-42.752 42.752-42.752h251.4944c23.6032 0 42.752 19.1488 42.752 42.752 0 23.6032-19.1488 42.752-42.752 42.752zM579.7888 328.704H231.5264c-23.6032 0-42.752-19.1488-42.752-42.752 0-23.6032 19.1488-42.752 42.752-42.752h348.2624c23.6032 0 42.752 19.1488 42.752 42.752 0 23.6032-19.1488 42.752-42.752 42.752z" fill="#9CE4F3" p-id="24004"></path><path d="M574.72 312.2688H223.2832c-19.0464 0-34.5088-15.4624-34.5088-34.5088s15.4624-34.5088 34.5088-34.5088h351.4368c19.0464 0 34.5088 15.4624 34.5088 34.5088 0.0512 19.0464-15.4112 34.5088-34.5088 34.5088zM481.1264 547.1232H223.488c-19.0464 0-34.5088-15.4624-34.5088-34.5088s15.4624-34.5088 34.5088-34.5088h257.5872c19.0464 0 34.5088 15.4624 34.5088 34.5088 0.0512 19.0464-15.4112 34.5088-34.4576 34.5088z" fill="#FFFFFF" p-id="24005"></path></svg>