<?xml version="1.0" standalone="no"?><!DOCTYPE svg PUBLIC "-//W3C//DTD SVG 1.1//EN" "http://www.w3.org/Graphics/SVG/1.1/DTD/svg11.dtd"><svg t="1633066738138" class="icon" viewBox="0 0 1024 1024" version="1.1" xmlns="http://www.w3.org/2000/svg" p-id="24308" xmlns:xlink="http://www.w3.org/1999/xlink" width="200" height="200"><defs><style type="text/css"></style></defs><path d="M800.256 765.0816h-71.936c-8.8576 0-17.408 3.5328-23.6544 9.8304l-140.1344 141.312c-26.1632 26.368-69.0688 25.344-93.952-2.2016l-124.672-137.984a33.3824 33.3824 0 0 0-24.7296-10.9568H224.1024c-90.6752 0-164.1984-73.5232-164.1984-164.1984V266.1888c0-90.6752 73.5232-164.1984 164.1984-164.1984H800.256c90.6752 0 164.1984 73.5232 164.1984 164.1984v334.6432c0.0512 90.7264-73.472 164.2496-164.1984 164.2496z" fill="#5A6EFF" p-id="24309"></path><path d="M774.7072 737.4848h-65.9456c-8.1408 0-15.9232 3.2256-21.6576 8.96l-128.4608 128.4096c-23.9616 23.9616-63.3344 23.04-86.1184-1.9968l-114.2784-125.44a30.6688 30.6688 0 0 0-22.6304-9.984H246.4768c-83.1488 0-150.5792-66.816-150.5792-149.248v-304.128c0-82.432 67.4304-149.248 150.5792-149.248h528.2304c83.1488 0 150.5792 66.816 150.5792 149.248v304.1792c0 82.432-67.4304 149.248-150.5792 149.248z" fill="#5F73FA" p-id="24310"></path><path d="M743.0144 719.1552H682.496c-7.4752 0-14.6432 3.0208-19.8656 8.448l-117.8624 120.832c-22.016 22.528-58.112 21.7088-79.0528-1.8944l-104.8576-118.016a27.7504 27.7504 0 0 0-20.7872-9.3696H258.3552c-76.288 0-138.1376-62.8736-138.1376-140.4416v-286.208c0-77.568 61.8496-140.4416 138.1376-140.4416h484.6592c76.288 0 138.1376 62.8736 138.1376 140.4416v286.208c0 77.568-61.8496 140.4416-138.1376 140.4416z" fill="#6680FF" p-id="24311"></path><path d="M713.472 689.3568h-55.1936c-6.8096 0-13.3632 2.7648-18.1248 7.6288l-107.52 109.6192a49.26976 49.26976 0 0 1-72.0896-1.6896l-95.744-107.0592a25.40032 25.40032 0 0 0-18.944-8.4992H271.3088c-69.5808 0-126.0032-57.0368-126.0032-127.4368V302.2848c0-70.3488 56.4224-127.4368 126.0032-127.4368h442.1632c69.5808 0 126.0032 57.0368 126.0032 127.4368v259.6352c0 70.4-56.4224 127.4368-126.0032 127.4368z" fill="#6E8DFF" p-id="24312"></path><path d="M707.6352 410.6752H319.3856c-36.7616 0-66.56-29.7984-66.56-66.56s29.7984-66.56 66.56-66.56h388.2496c36.7616 0 66.56 29.7984 66.56 66.56s-29.7984 66.56-66.56 66.56zM553.7792 578.56H319.3856c-36.7616 0-66.56-29.7984-66.56-66.56s29.7984-66.56 66.56-66.56h234.3936c36.7616 0 66.56 29.7984 66.56 66.56s-29.7984 66.56-66.56 66.56z" fill="#5A6EFF" p-id="24313"></path><path d="M707.6352 387.6352H319.3856c-24.0128 0-43.52-19.5072-43.52-43.52s19.5072-43.52 43.52-43.52h388.2496c24.0128 0 43.52 19.5072 43.52 43.52s-19.5072 43.52-43.52 43.52zM553.7792 555.52H319.3856c-24.0128 0-43.52-19.5072-43.52-43.52s19.5072-43.52 43.52-43.52h234.3936c24.0128 0 43.52 19.5072 43.52 43.52s-19.5072 43.52-43.52 43.52z" fill="#FCB830" p-id="24314"></path><path d="M707.6352 374.8352H319.3856c-16.9472 0-30.72-13.7728-30.72-30.72s13.7728-30.72 30.72-30.72h388.2496c16.9472 0 30.72 13.7728 30.72 30.72s-13.7728 30.72-30.72 30.72zM553.7792 542.72H319.3856c-16.9472 0-30.72-13.7728-30.72-30.72s13.7728-30.72 30.72-30.72h234.3936c16.9472 0 30.72 13.7728 30.72 30.72s-13.7728 30.72-30.72 30.72z" fill="#FFD629" p-id="24315"></path></svg>