<?xml version="1.0" encoding="UTF-8"?>
<svg width="600px" height="400px" viewBox="0 0 600 400" version="1.1" xmlns="http://www.w3.org/2000/svg" xmlns:xlink="http://www.w3.org/1999/xlink">
    <title>协作难题</title>
    <g id="协作难题" stroke="none" stroke-width="1" fill="none" fill-rule="evenodd">
        <rect fill="#FFFFFF" x="0" y="0" width="600" height="400"></rect>
        <g id="chevron_arrow_1_" transform="translate(186.142857, 72.688347)" fill-rule="nonzero">
            <polygon id="Path" fill="#F3F9FF" points="24.683068 14.4469485 10.3937704 28.7382439 0.247406463 28.7382439 14.5376037 14.4469485 0.247406463 0.156552846 10.3937704 0.156552846"></polygon>
            <polygon id="Path" fill="#E7F4FE" points="42.5458146 14.4469485 28.2556173 28.7382439 18.1092534 28.7382439 32.3994507 14.4469485 18.1092534 0.156552846 28.2556173 0.156552846"></polygon>
            <polygon id="Path" fill="#DCEEFD" points="60.4076616 14.4469485 46.1183639 28.7382439 35.972 28.7382439 50.2621973 14.4469485 35.972 0.156552846 46.1183639 0.156552846"></polygon>
            <polygon id="Path" fill="#D0E7FE" points="78.2704082 14.4469485 63.9802109 28.7382439 53.8347466 28.7382439 68.1240442 14.4469485 53.8347466 0.156552846 63.9802109 0.156552846"></polygon>
        </g>
        <g id="cog_1_" transform="translate(39.498299, 96.081301)" fill-rule="nonzero">
            <path d="M148.308929,91.0858645 C144.508765,88.4442602 142.242522,84.1093659 142.242522,79.4811599 C142.242522,74.8529539 144.506066,70.5144607 148.30623,67.8728564 C157.286634,61.6314363 161.415173,55.0220271 158.104425,47.027935 C154.793677,39.0347425 147.202347,37.280271 136.440616,39.2164878 C131.885638,40.0361409 127.219102,38.5731816 123.946139,35.3008672 C120.673177,32.0285528 119.206731,27.3598591 120.026321,22.8045312 C121.963289,12.0401734 120.209852,4.44736043 112.216374,1.13635772 C104.221997,-2.17554472 97.6130952,1.95421138 91.3721548,10.9353062 C88.7307534,14.7366612 84.3943929,17.0039783 79.7656429,17.0030786 C75.1368929,17.0021789 70.8032313,14.7339621 68.1609303,10.932607 C61.9208895,1.95331165 55.3128878,-2.17374526 47.3194099,1.13725745 C39.3268316,4.44826016 37.5724949,12.0401734 39.5085629,22.801832 C40.3281531,27.3571599 38.8653061,32.0249539 35.5932432,35.2972683 C32.3211803,38.5704824 27.6528452,40.0379404 23.0978673,39.2173875 C12.3343367,37.280271 4.74210714,39.0338428 1.43045918,47.0288347 C-1.88028912,55.0229268 2.24825,61.632336 11.2286548,67.8737561 C15.0297177,70.5153604 17.2968605,74.8520542 17.2959609,79.4811599 C17.2950612,84.1102656 15.0270187,88.4442602 11.2259558,91.0867642 C2.24735034,97.3272846 -1.88028912,103.936694 1.43045918,111.929886 C4.74120748,119.923978 12.3343367,121.67845 23.0969677,119.740434 C27.6528452,118.919881 32.3211803,120.38374 35.5941429,123.657854 C38.8671054,126.931967 40.3272534,131.600661 39.5076633,136.156889 C37.5715952,146.919447 39.325932,154.51136 47.3185102,157.822363 C55.3119881,161.133366 61.9208895,157.004509 68.1618299,148.022515 C70.8032313,144.22116 75.1395918,141.953843 79.7683418,141.954743 C84.3970918,141.955642 88.7316531,144.223859 91.3730544,148.025214 C97.6130952,157.004509 104.221997,161.132466 112.214575,157.821463 C120.207153,154.510461 121.96149,146.918547 120.025422,136.155989 C119.205832,131.600661 120.668679,126.932867 123.940741,123.659653 C127.212804,120.386439 131.881139,118.918981 136.436117,119.739534 C147.199648,121.67665 154.791878,119.923079 158.103526,111.928986 C161.415173,103.935794 157.287534,97.3263848 148.308929,91.0858645 Z" id="Path" fill="#F3F9FF"></path>
            <ellipse id="Oval" fill="#DCEEFD" cx="79.7674422" cy="79.4784607" rx="42.3955714" ry="42.3988293"></ellipse>
            <path d="M122.163014,79.4784607 C122.163014,102.868715 103.1559,121.87729 79.7674422,121.87729 C67.1901973,121.87729 55.8139983,116.36555 48.1120102,107.603089 C55.5315051,114.315967 65.4232653,118.344054 76.2344779,118.344054 C99.6229354,118.344054 118.630049,99.3354797 118.630049,75.9452249 C118.630049,65.1331816 114.602272,55.2406612 107.88991,47.8205962 C116.651697,55.5231762 122.163014,66.9002493 122.163014,79.4784607 Z" id="Path" fill="#FFFFFF"></path>
            <path d="M111.422874,51.353832 C104.003379,44.6409539 94.111619,40.6128672 83.3004065,40.6128672 C59.911949,40.6128672 40.904835,59.6214417 40.904835,83.0116965 C40.904835,93.8228401 44.9326122,103.71626 51.6449745,111.136325 C42.8831871,103.433745 37.3718707,92.0566721 37.3718707,79.4784607 C37.3718707,56.088206 56.3789847,37.0796314 79.7674422,37.0796314 C92.3455867,37.0796314 103.720886,42.5913713 111.422874,51.353832 Z" id="Path" fill="#D0E7FE"></path>
        </g>
        <g id="cog" transform="translate(293.202381, 34.000000)" fill="#F3F9FF" fill-rule="nonzero">
            <path d="M135.79556,36.3463523 C134.686279,33.6678591 131.840655,32.1446179 128.99683,32.7078482 L120.015526,34.484813 C117.897726,34.9040867 115.707054,34.1672087 114.275696,32.5503957 C112.760668,30.8391111 111.155675,29.2276965 109.466114,27.7233496 C107.855723,26.2900813 107.126099,24.1100379 107.543541,21.9947751 L109.31767,13.0271762 C109.879957,10.1831328 108.356833,7.3381897 105.679446,6.22882385 L92.4184592,0.735078591 C89.7401718,-0.374287263 86.6516395,0.561430894 85.0385493,2.97000542 L79.9527721,10.5646179 C78.7553248,12.3532791 76.6924048,13.3816694 74.5431173,13.256607 C72.2849711,13.1252466 70.010631,13.1297453 67.7290935,13.2692033 C65.5717092,13.4005637 63.5060901,12.3748726 62.3023452,10.5781138 L57.2075714,2.97000542 C55.5944813,0.561430894 52.505949,-0.374287263 49.8276616,0.735078591 L36.5666752,6.22792412 C33.8883878,7.33728997 32.3661633,10.1822331 32.9284507,13.0271762 L34.7052789,22.0091707 C35.1245204,24.1271328 34.3867993,26.3179729 32.7710102,27.7494417 C31.0598571,29.2645854 29.4485663,30.8697019 27.944335,32.559393 C26.5111769,34.1699079 24.3304014,34.8995881 22.2162007,34.4821138 L13.2492908,32.7078482 C10.405466,32.1455176 7.5607415,33.6687588 6.45146088,36.3463523 L0.958137755,49.6083577 C-0.151142857,52.2868509 0.784503401,55.3756206 3.19289286,56.9888347 L10.7878214,62.0750027 C12.5763452,63.2734417 13.6037568,65.3356206 13.4787041,67.4850732 C13.3473537,69.743393 13.351852,72.0179079 13.4912993,74.2996206 C13.6226497,76.4580705 12.5970374,78.5238482 10.8004167,79.7267859 L3.19289286,84.8219512 C0.784503401,86.4351653 -0.151142857,89.523935 0.958137755,92.2024282 L6.45056122,105.464434 C7.55984184,108.142927 10.405466,109.665268 13.2492908,109.102938 L22.2305952,107.325973 C24.3483946,106.906699 26.5390663,107.643577 27.9704252,109.26039 C29.4854524,110.971675 31.0904456,112.583989 32.7800068,114.087436 C34.390398,115.520705 35.1209218,117.700748 34.7025799,119.816011 L32.9284507,128.78271 C32.3661633,131.626753 33.8883878,134.472596 36.5666752,135.581962 L49.8276616,141.074808 C52.505949,142.184173 55.5944813,141.249355 57.2075714,138.839881 L62.2933486,131.245268 C63.4916956,129.456607 65.553716,128.428217 67.7030034,128.553279 C69.9611497,128.68464 72.2354898,128.680141 74.5170272,128.541583 C76.6744116,128.410222 78.7400306,129.435913 79.9428759,131.231772 L85.0376497,138.839881 C86.6507398,141.248455 89.7392721,142.184173 92.4175595,141.074808 L105.678546,135.581962 C108.356833,134.472596 109.879058,131.626753 109.31677,128.78271 L107.539942,119.799816 C107.1216,117.681854 107.858422,115.491014 109.474211,114.060444 C111.186264,112.545301 112.797554,110.940184 114.300886,109.250493 C115.734044,107.639978 117.91482,106.910298 120.02902,107.328672 L128.995031,109.102938 C131.838855,109.666168 134.68448,108.142927 135.792861,105.464434 L141.286184,92.2024282 C142.395464,89.523935 141.459818,86.4351653 139.051429,84.8219512 L131.4565,79.7357832 C129.667976,78.5373442 128.640565,76.4751653 128.765617,74.3257127 C128.896968,72.067393 128.892469,69.792878 128.753022,67.5111653 C128.621672,65.3536152 129.647284,63.2869377 131.443905,62.084 L139.051429,56.9888347 C141.459818,55.3756206 142.395464,52.2868509 141.286184,49.6083577 L135.79556,36.3463523 Z M82.7597109,98.9980813 C67.2459762,105.424846 49.4597007,98.0569648 43.0334303,82.5420379 C36.6071599,67.0271111 43.9744745,49.2394688 59.4882092,42.8127046 C75.0019439,36.3859404 92.7882194,43.7538211 99.2144898,59.268748 C105.64166,74.7836748 98.2743452,92.5713171 82.7597109,98.9980813 Z" id="Shape"></path>
        </g>
        <g id="plant_5_" transform="translate(453.341837, 117.674797)" fill-rule="nonzero">
            <path d="M12.6240272,122.713138 C12.6240272,122.713138 7.08572109,-8.87042818 106.349692,1.47285637 C117.733988,5.69438482 97.8353112,20.1314363 87.2265221,23.2193062 C73.4995119,27.2150027 82.571682,42.1532033 67.7218963,48.1256043 C49.5055833,55.4511978 54.0587619,65.7189051 51.8554949,82.3953821 C50.2684949,94.3932683 19.6017891,102.046363 12.6240272,122.713138 Z" id="Path" fill="#F3F9FF"></path>
            <path d="M15.647784,152.846862 C15.647784,152.846862 10.090585,24.7155556 93.8309252,42.7623198 C101.119969,44.8892791 90.3582381,57.319935 79.088199,59.7087154 C67.8181599,62.0974959 73.9511412,79.1392629 67.0183622,90.0394797 C59.3226718,102.138136 41.9079558,103.01807 41.1054592,119.821409 C40.5278776,131.911068 20.8739082,131.66994 15.647784,152.846862 Z" id="Path" fill="#DCEEFD"></path>
            <path d="M0.556889456,177.229518 C1.78852381,165.130862 -1.18215306,147.745398 15.7386497,144.059209 C32.6594524,140.373019 27.9065493,129.051729 32.1916293,116.176607 C36.4767092,103.301485 53.4200034,103.529117 58.6164388,99.7169648 C63.4557092,96.1666341 60.5588044,87.6426016 64.6459592,79.0699837 C73.6668486,60.1495827 93.3091224,57.5709593 99.8442517,77.1076748 C103.750575,88.7852575 87.8301939,99.4578428 85.8194541,104.158027 C81.4812942,114.298873 87.3434779,119.418331 86.3853401,127.1569 C83.4236599,151.070797 67.5662551,150.788282 64.9833316,158.627621 C62.4004082,166.466959 69.2900034,172.825344 62.3419303,188.892705 C55.3938571,204.960065 32.1304524,214.418016 22.1640204,209.877084 C15.3949796,206.792813 -1.75343707,199.927881 0.556889456,177.229518 Z" id="Path" fill="#F3F9FF"></path>
            <path d="M68.2868827,106.17432 C69.7425323,101.72606 71.2233724,97.2148184 72.9408231,93.2011274 C74.2489286,93.1894309 79.3356054,92.9608997 82.6499524,90.2068293 C82.8406803,90.0475772 82.8667704,89.7641626 82.7084303,89.5734201 C82.5491905,89.3817778 82.2657976,89.3556856 82.0750697,89.5149377 C79.2933214,91.8272412 74.9902483,92.2222222 73.3357738,92.2879024 C75.252949,87.9916965 77.4751088,84.3468943 80.2856463,82.1029702 C80.4799728,81.9482168 80.5114609,81.6648022 80.3567194,81.4704607 C80.2019779,81.277019 79.918585,81.243729 79.7242585,81.3993821 C76.6501207,83.8538428 74.279517,87.8594363 72.250784,92.5335285 C72.2372891,92.5569214 72.2273929,92.5812141 72.2183963,92.6073062 C70.4397687,96.718168 68.9220425,101.339176 67.4322058,105.894504 C65.5672109,111.593388 63.6401395,117.487512 61.2461446,122.227285 C58.8053673,127.060629 54.2845765,132.626352 49.4552024,138.519577 C48.623017,135.610753 45.9969099,125.306157 47.922182,117.106027 C47.9788605,116.864 47.829517,116.621973 47.5875085,116.56529 C47.3455,116.510407 47.1034915,116.658862 47.0468129,116.900889 C44.880432,126.12671 48.1983776,137.536173 48.7642636,139.364423 C40.9282262,148.924943 32.1430476,159.727989 29.221852,170.74607 C28.7189422,172.642699 28.1125714,174.576217 27.4387262,176.516932 C25.5935238,175.66129 18.4916088,171.582818 19.223932,159.733388 C19.2392262,159.485062 19.0511973,159.271827 18.8028912,159.256531 C18.554585,159.241236 18.3413656,159.429279 18.3260714,159.677604 C17.5604609,172.053377 25.2678469,176.475545 27.1427381,177.363577 C21.419102,193.367957 11.0487228,209.580173 10.9299677,209.764618 C10.7959184,209.973355 10.8561956,210.252271 11.0649167,210.386331 C11.1314915,210.429518 11.2061633,210.452011 11.2799354,210.4574 C11.4373759,210.466407 11.5948163,210.393528 11.6865816,210.251371 C11.8071361,210.064228 22.3889354,193.518211 28.1233673,177.280802 C28.124267,177.278103 28.126966,177.277203 28.1278656,177.275404 C28.129665,177.270905 28.1287653,177.266407 28.129665,177.262808 C28.875483,175.149344 29.5430306,173.042179 30.0909235,170.976401 C30.2267721,170.465355 30.3878112,169.954309 30.5488503,169.443263 C31.525881,169.803154 33.9513639,170.585019 37.0578895,170.776661 C41.0748707,171.024986 46.2191259,170.285409 50.8028929,166.367089 C50.9918214,166.205138 51.0143129,165.921724 50.8523741,165.73278 C50.691335,165.543837 50.4070425,165.523144 50.2181139,165.683295 C42.3946718,172.370981 32.8330867,169.336195 30.8250459,168.587621 C34.2914354,158.448575 42.4585476,148.474179 49.7340969,139.599252 C53.0034609,135.610753 56.1423741,131.77161 58.6488265,128.176293 C59.2992806,128.338244 60.9339626,128.699935 63.08325,128.833095 C66.4965595,129.044531 71.1612959,128.668444 75.0487262,125.963859 C75.2520493,125.822602 75.3024303,125.541886 75.1611837,125.337648 C75.0199371,125.135209 74.7401429,125.083024 74.5350204,125.226081 C68.9355374,129.123707 61.364,127.85329 59.1949201,127.377333 C60.3024014,125.740726 61.2830306,124.151805 62.0486412,122.633962 C64.4732245,117.831209 66.4119915,111.905593 68.2868827,106.17432 Z" id="Path" fill="#CCD5E5"></path>
        </g>
        <g id="puzzle_2_" transform="translate(241.022109, 114.975610)" fill-rule="nonzero">
            <path d="M121.454082,121.463415 L159.482704,121.463415 C161.757944,121.463415 163.842456,122.735631 164.883362,124.759122 C165.924269,126.782612 165.747935,129.219978 164.422736,131.069821 C160.643265,136.344932 156.879088,142.636737 156.879088,146.768293 C156.879088,157.949225 168.207605,167.012195 182.182022,167.012195 C196.156439,167.012195 207.484956,157.949225 207.484956,146.768293 C207.484956,142.636737 203.720779,136.345832 199.941308,131.069821 C198.615209,129.219079 198.435277,126.780813 199.477083,124.755523 C200.518889,122.730233 202.604301,121.462515 204.88134,121.462515 L242.908163,121.462515 L242.908163,20.2439024 C242.908163,9.06386992 233.84499,0 222.665816,0 L121.454082,0 L121.454082,121.463415 Z" id="Path" fill="#7266D5"></path>
            <path d="M43.4328793,118.170407 C44.4746854,116.145117 44.2947534,113.707751 42.9686548,111.856108 C39.1891837,106.580997 35.4250068,100.289192 35.4250068,96.1576369 C35.4250068,84.9767046 46.7535238,75.9137344 60.7279405,75.9137344 C74.7023571,75.9137344 86.0308741,84.9767046 86.0308741,96.1576369 C86.0308741,100.289192 82.2666973,106.580098 78.4872262,111.856108 C77.1620272,113.706851 76.9856939,116.143317 78.0266003,118.166808 C79.0675068,120.190298 81.1520187,121.463415 83.4272585,121.463415 L121.454082,121.463415 L121.454082,83.4309702 C121.454082,81.1555556 122.726201,79.0708835 124.749536,78.029897 C126.772871,76.9889106 129.210049,77.1652575 131.05975,78.4905583 C136.334456,82.2703198 142.625777,86.0347859 146.757015,86.0347859 C157.937088,86.0347859 166.999362,74.7053984 166.999362,60.7299079 C166.999362,46.7544173 157.937088,35.4250298 146.757015,35.4250298 C142.625777,35.4250298 136.335355,39.1894959 131.05975,42.9692575 C129.20915,44.295458 126.771071,44.4754038 124.745937,43.4335176 C122.720803,42.3916314 121.453182,40.3060596 121.453182,38.0288455 L121.453182,0 L20.2423469,0 C9.06317347,0 0,9.06386992 0,20.2439024 L0,121.463415 L38.0286224,121.463415 C40.3056616,121.463415 42.3919728,120.195696 43.4328793,118.170407 Z" id="Path" fill="#1B90FB"></path>
            <path d="M121.454082,121.238482 L121.454082,159.270027 C121.454082,161.545442 120.181963,163.630114 118.158628,164.6711 C116.135293,165.712087 113.698114,165.53574 111.848413,164.210439 C106.573707,160.430678 100.282386,156.666211 96.151148,156.666211 C84.9710748,156.666211 75.908801,167.995599 75.908801,181.971089 C75.908801,195.94658 84.9710748,207.275967 96.151148,207.275967 C100.282386,207.275967 106.572808,203.511501 111.848413,199.73174 C113.699014,198.405539 116.137092,198.225593 118.162226,199.26748 C120.187361,200.309366 121.454981,202.394938 121.454981,204.672152 L121.454981,242.703696 L222.666716,242.703696 C233.845889,242.703696 242.909063,233.639827 242.909063,222.459794 L242.909063,121.240282 L121.454082,121.240282 L121.454082,121.238482 Z" id="Path" fill="#61DDA0"></path>
        </g>
        <g id="man_2_" transform="translate(35.000000, 134.769648)" fill-rule="nonzero">
            <path d="M89.882318,91.429561 C89.882318,91.429561 92.1458622,97.8617236 94.7071939,102.75355 C97.2685255,107.645377 109.028879,114.392444 113.324755,115.848206 C116.695781,116.989962 120.633592,115.050146 125.310024,115.230992 C126.840345,115.290374 127.174119,116.833409 125.394592,117.764629 C124.083787,118.450222 121.844534,119.325659 122.30426,120.224488 C122.763986,121.123317 122.947517,121.441821 126.878131,124.30206 C130.808745,127.161398 125.632102,131.330743 122.645231,131.457604 C119.781614,131.579068 116.290934,126.905875 113.755692,124.483805 C110.446743,121.323057 97.0975901,119.306764 88.7712381,111.758038 C80.6563061,104.400954 77.096352,95.9129106 77.096352,95.9129106 C77.096352,95.9129106 82.5815782,90.7016802 89.882318,91.429561 Z" id="Path" fill="#F1B282"></path>
            <path d="M93.9208912,46.6680434 C93.9208912,46.6680434 90.5579626,43.8455935 87.6214728,42.7578211 C84.6840833,41.6700488 78.1282619,49.2061789 75.4409779,52.2616585 C73.6200663,54.331935 75.7081769,63.820477 72.2165969,71.3611057 C71.3133384,73.3126179 82.7651088,77.0626883 82.5608861,74.6163252 C82.3566633,72.1708618 84.0417262,68.1355772 84.0417262,68.1355772 C84.0417262,68.1355772 90.993398,70.5828401 93.5556293,63.8942547 C93.9280884,62.920748 94.2708588,61.9724336 94.5812415,61.0421138 C95.4719048,61.3327263 96.4840221,61.4892791 96.8285918,60.8657669 C97.3036122,60.0065257 96.3553707,57.7032195 95.7831871,56.47329 C96.4138486,52.884271 96.0701786,49.6362493 93.9208912,46.6680434 Z" id="Path" fill="#F1B282"></path>
            <path d="M214.280986,139.054016 C212.84243,137.288748 210.536602,136.478092 208.309044,136.953149 C201.962844,138.305442 194.690893,139.237561 190.905124,137.584759 C180.659798,133.110407 176.888423,119.100726 182.481609,106.293084 C188.074794,93.4854417 200.91294,86.7302764 211.159167,91.2055285 C214.944935,92.8592304 219.203925,98.8262331 222.52457,104.401854 C223.689629,106.356965 225.852412,107.493322 228.123153,107.350266 C230.394794,107.206309 232.393838,105.805431 233.304294,103.719859 L248.52384,68.8670569 L213.673716,53.6463415 C211.588304,52.7358157 210.187534,50.7357182 210.043588,48.4648022 C209.899643,46.1929864 211.036813,44.0309377 212.991774,42.8657886 C218.566066,39.5439892 224.53441,35.2846721 226.187085,31.4995122 C230.661094,21.2533984 223.907347,8.41336585 211.100689,2.81975068 C198.294031,-2.7738645 184.285427,0.997799458 179.811418,11.2439133 C178.157844,15.0299729 179.089891,22.3024824 180.44298,28.6491707 C180.918,30.876 180.106507,33.1820054 178.342274,34.6215718 C176.577141,36.0602385 174.158855,36.3877398 172.072544,35.4763144 L137.22242,20.2555989 L96.7161344,113.014959 C92.2421259,123.261073 96.9203571,135.194179 107.165684,139.668531 L199.917917,180.178829 L215.137463,145.326027 C216.047019,143.237756 215.720442,140.818385 214.280986,139.054016 Z" id="Path" fill="#234280"></path>
            <polygon id="Path" fill="#F1B282" points="10.3460884 202.439024 3.59863946 210.258569 9.67134354 215.03523 17.0935374 206.93497"></polygon>
            <polygon id="Path" fill="#F1B282" points="80.7264796 208.791111 79.3068163 217.809995 69.9305612 218.479393 71.988983 207.160802"></polygon>
            <path d="M55.7789116,135.859079 C58.58675,142.551263 57.666398,171.001593 46.8866735,185.176824 C36.106949,199.352054 21.1339099,212.328846 17.7403929,212.728325 C14.3468759,213.127805 8.29666327,205.835501 8.09693878,204.238482 C7.89721429,202.641463 29.2128554,185.02297 30.8097517,170.576022 C32.406648,156.129073 27.8894558,136.758808 36.1060493,128.672943 C39.230568,125.599469 52.9710731,129.166894 55.7789116,135.859079 Z" id="Path" fill="#0B224E"></path>
            <path d="M80.9693878,74.6775068 C80.9693878,74.6775068 91.7653061,90.8726287 92.7360391,96.5967046 C93.2119592,99.4029593 85.5162687,109.906396 84.3179218,109.806526 C83.1204745,109.706656 78.5681956,97.9310027 78.5681956,97.9310027 C78.5681956,97.9310027 76.876835,77.5728347 80.9693878,74.6775068 Z" id="Path" fill="#1EAF69"></path>
            <path d="M65.9180782,125.678645 C65.9180782,125.678645 93.0014388,157.825062 93.0014388,166.808856 C93.0014388,175.79265 84.9179949,210.332347 82.1227517,211.330146 C79.3275085,212.327946 70.3390068,211.929366 69.341284,210.332347 C68.3435612,208.735328 75.9321922,176.838136 74.7338452,170.576022 C73.536398,164.314808 37.9026701,151.433388 35.9063248,129.272163 L65.9180782,125.678645 Z" id="Path" fill="#102B5E"></path>
            <path d="M89.5530425,48.2974526 C94.4642857,48.2974526 102.079007,47.6991328 102.079007,41.2426775 C102.079007,34.1888022 95.3927347,33.5688889 95.3927347,33.5688889 C93.5646259,36.8888889 90.0298622,35.8497019 84.4816599,35.8497019 C76.8489456,35.8497019 69.2909031,41.885084 69.2909031,49.2484661 C69.2909031,58.4814851 72.0006786,65.0126179 74.3757806,65.7719892 C76.7508827,66.5313604 77.1872177,61.9220488 76.7508827,59.6574309 C76.3145476,57.3919133 76.8930289,52.75471 79.4507619,53.9360542 C82.6409558,55.4098103 82.0300867,63.6369322 82.7813027,64.268542 C83.5325187,64.9001518 85.2526684,58.6218428 83.841102,54.4992846 C82.4286361,50.377626 85.5441582,48.2974526 89.5530425,48.2974526 Z" id="Path" fill="#102B5E"></path>
            <path d="M75.3681054,117.358851 C75.1368929,117.948173 74.9029813,118.518602 74.6690697,119.070136 C73.578682,121.64336 72.4667024,123.80181 71.2215731,125.482504 C68.4587177,129.221778 65.1893537,134.404217 59.9416378,132.854883 C51.8222075,130.458905 46.2794031,127.981951 39.8459354,129.399924 C33.147068,130.876379 29.4530646,129.737322 32.2474082,124.280466 C35.0417517,118.82361 47.4192721,102.184921 50.6139643,90.7394688 C53.2301752,81.3642927 66.0935119,64.7579946 76.2866582,68.840065 C86.3673469,72.8780488 89.0663265,84.5745257 75.3681054,117.358851 Z" id="Path" fill="#2CCD7F"></path>
            <path d="M75.5714286,116.96477 C74.4810408,119.537995 72.467602,123.80181 71.2215731,125.482504 C68.2032143,118.908184 60.9303639,102.125539 64.6036752,90.4740488 C64.6036752,90.4740488 74.549415,115.754634 75.5714286,116.96477 Z" id="Path" fill="#1EAF69"></path>
            <path d="M82.3575629,98.4600434 C82.3575629,98.4600434 83.1762534,105.826125 84.6885816,111.635675 C86.2000102,117.445225 96.9977279,127.475404 101.190143,130.071122 C104.479299,132.107209 109.125143,131.019436 114.032787,132.359133 C115.63868,132.797301 115.61349,134.513084 113.500189,135.062818 C111.943777,135.467696 109.358155,135.844683 109.623554,136.909962 C109.889854,137.974341 110.00591,138.357626 113.466901,142.350623 C116.926993,146.343621 110.422452,149.488173 107.22866,148.888954 C104.166218,148.314927 101.616582,142.508976 99.5257721,139.322136 C96.7971037,135.162688 83.1555612,129.751718 76.1921939,119.714341 C69.4042602,109.931588 67.7182976,100.069659 67.7182976,100.069659 C67.7182976,100.069659 74.8049184,95.8976152 82.3575629,98.4600434 Z" id="Path" fill="#F1B282"></path>
            <path d="M78.8947721,214.382027 C79.3679932,213.862883 80.1399014,213.752217 80.7408741,214.114808 C82.8469779,215.384325 87.3254847,218.077214 87.5962823,218.177984 C89.9794813,219.067816 96.3427755,220.466894 96.3391784,222.862873 C96.3355782,225.374016 77.892551,224.690222 71.1424031,224.355523 C69.7740204,224.288043 68.6917296,223.167881 68.6746361,221.796694 L68.6052979,216.243566 C68.6017636,215.961051 68.7493078,215.697431 68.992216,215.553474 C69.2351241,215.408618 69.5374099,215.404119 69.7839167,215.542678 C70.9129898,216.175187 72.6682262,216.99574 74.2777177,217.069518 C76.0653418,217.150493 77.89525,215.476997 78.8947721,214.382027 Z" id="Path" fill="#102B5E"></path>
            <path d="M12.7850663,211.764715 C13.4544133,211.670244 14.0931718,212.061626 14.3171871,212.698634 C14.6095765,213.531783 15.0252194,214.714027 15.4381633,215.881875 C18.4601207,224.418504 23.9462466,223.86877 22.1064422,226.086602 C21.4820782,226.838775 18.0624711,226.818981 14.4881224,225.245355 C12.8588384,224.528271 11.4805595,224.052314 0.92664966,214.40452 C-0.0458826531,213.515588 -0.161039116,212.022038 0.665748299,210.995447 L4.01788095,206.8369 C4.18881633,206.625463 4.45871429,206.520195 4.72771259,206.562482 C4.99671088,206.60477 5.22252551,206.785615 5.32058844,207.039339 C5.76951871,208.199989 6.56751701,209.885182 7.71548299,210.925268 C9.60476871,212.637453 11.3735,211.963556 12.7850663,211.764715 Z" id="Path" fill="#102B5E"></path>
            <path d="M63.8758503,87.2737127 C63.8758503,87.2737127 66.2374575,107.482526 68.3741497,107.96748 C70.5108418,108.452434 83.8851854,106.60619 84.6768861,104.587198 C85.4676871,102.569106 83.6683673,87.2737127 83.6683673,87.2737127 L63.8758503,87.2737127 Z" id="Path" fill="#2CCD7F"></path>
        </g>
        <g id="check" transform="translate(118.668367, 55.593496)" fill-rule="nonzero">
            <ellipse id="Oval" fill="#D0F4E3" cx="31.9379252" cy="31.9403794" rx="31.3774371" ry="31.3798482"></ellipse>
            <ellipse id="Oval" fill="#B4EFD1" cx="31.9379252" cy="31.9403794" rx="24.4041735" ry="24.4060488"></ellipse>
            <ellipse id="Oval" fill="#61DDA0" cx="31.9379252" cy="31.9403794" rx="17.4318095" ry="17.4331491"></ellipse>
            <path d="M30.1215119,38.9132791 C30.0981207,38.9132791 30.0720306,38.9132791 30.0486395,38.9132791 C29.5655221,38.8925854 29.1120935,38.671252 28.7990119,38.3041626 L23.5692891,32.2022005 C22.9413265,31.4734201 23.0258946,30.3703523 23.7582177,29.7441409 C24.4923401,29.1242276 25.5899252,29.206103 26.2142891,29.9348835 L30.2285714,34.6161734 L39.503165,25.4668293 C40.1860068,24.7929322 41.2943878,24.8028293 41.968233,25.4839241 C42.6438776,26.1713171 42.6375799,27.2752846 41.9511395,27.9527805 L31.345949,38.4130298 C31.0193724,38.7324336 30.5794388,38.9132791 30.1215119,38.9132791 Z" id="Path" fill="#FFFFFF"></path>
        </g>
        <g id="woman_2_" transform="translate(213.132653, 186.953930)" fill-rule="nonzero">
            <path d="M52.1802721,42.2872629 C52.1802721,42.2872629 40.4846939,40.4878049 39.585034,44.0867209 C38.6853741,47.6856369 41.3843537,54.8834688 44.0833333,53.0840108 C46.7823129,51.2845528 52.1802721,46.7859079 52.1802721,46.7859079 L52.1802721,42.2872629 Z" id="Path" fill="#F1B282"></path>
            <polygon id="Path" fill="#F1B282" points="70.5072432 155.447079 65.3315 164.565832 57.9120051 157.824163 63.5627687 147.880358"></polygon>
            <polygon id="Path" fill="#F1B282" points="16.4340867 160.018602 9.49231122 163.919827 4.94812925 154.305322 12.9065204 150.09729"></polygon>
            <path d="M122.084743,5.22742547 C122.084743,5.22742547 134.329114,4.39157724 134.188767,19.6986667 C134.097901,29.6190786 126.089129,31.0757398 126.726088,43.545084 C127.210105,53.013832 137.443736,65.7944824 139.922299,74.945626 C144.65451,92.4210623 108.25967,96.7802493 107.70458,80.9531165 C107.340218,70.5774417 111.278029,67.4418862 110.998235,58.0172249 C110.71934,48.5925637 96.5964796,35.620271 98.962585,20.6937669 C101.32869,5.76726287 109.161129,5.22742547 122.084743,5.22742547 Z" id="Path" fill="#102B5E"></path>
            <path d="M126.544357,9.24201626 C127.893847,14.9777886 128.665755,24.1685203 127.545679,26.2927805 C126.547956,28.1831111 124.815211,26.8083252 124.087386,27.9914688 C123.359561,29.1746125 123.028486,32.9633713 119.66106,34.0556423 C116.293633,35.1479133 112.892918,33.1793062 112.892918,33.1793062 C112.892918,33.1793062 112.165094,40.6425583 107.978077,43.9193713 C103.79106,47.1961843 100.922944,38.0945257 100.922944,38.0945257 C100.922944,38.0945257 102.33541,26.6265799 105.702837,22.8036314 C109.070264,18.9806829 110.406259,9.87902439 113.707111,8.33149051 C117.367827,6.61570732 124.175553,3.97860163 126.544357,9.24201626 Z" id="Path" fill="#F1B282"></path>
            <path d="M114.21182,0.87903523 C108.024859,1.02119241 98.4425816,4.68128997 99.1704065,20.700065 C99.1389184,27.2536911 103.325935,31.0757398 105.145947,31.0757398 C106.965959,31.0757398 113.347247,28.5277073 113.528978,19.2434038 C113.710709,17.3323794 118.625551,19.7895393 119.899469,19.7895393 C121.173388,19.7895393 127.180417,19.7895393 127.180417,10.7787534 C127.181316,1.70768564 116.211764,0.833149051 114.21182,0.87903523 Z" id="Path" fill="#102B5E"></path>
            <path d="M54.4825017,78.6165203 C54.4825017,78.6165203 46.9163622,122.285767 46.6257721,127.814602 C46.6257721,127.814602 10.7959184,147.555556 10.7959184,150.254743 C10.7959184,152.95393 14.9082636,161.571534 16.0724235,161.571534 C17.2365833,161.571534 53.6098316,147.893854 58.5570612,143.529268 C63.5042908,139.164683 76.8894303,91.771458 76.8894303,84.7445745 C76.8894303,77.7176911 73.1063605,73.9775176 67.5779507,73.395393 C62.0486412,72.8132683 55.1266582,74.8763469 54.4825017,78.6165203 Z" id="Path" fill="#0B224E"></path>
            <path d="M68.6719371,159.812564 C68.6719371,159.812564 78.8569864,174.26671 76.4324031,177.080163 C74.4477534,179.382569 60.4445476,167.780564 55.4235459,163.490656 C54.4096293,162.625117 54.2260986,161.126168 55.0034048,160.042894 L58.2385816,155.536152 C58.4014201,155.30942 58.6731173,155.186157 58.9520119,155.213149 C59.2300068,155.241041 59.472915,155.413789 59.5880714,155.669312 C60.1161718,156.83536 61.0311259,158.518753 62.2699575,159.521051 C64.3067874,161.170255 68.6719371,159.812564 68.6719371,159.812564 Z" id="Path" fill="#102B5E"></path>
            <path d="M13.8538622,161.814461 C13.8538622,161.814461 12.1202177,165.074179 11.7315646,169.613312 C11.415784,173.296802 17.0674473,175.52813 15.1124864,177.897117 C13.2870765,180.10955 5.03359694,176.603306 2.98687075,171.945409 C2.84022619,171.612509 1.04630442,162.161756 0.245607143,157.925832 C0.0224914966,156.746287 0.646855442,155.567642 1.74893878,155.091686 L7.1100119,152.777583 C7.36641497,152.666916 7.66330272,152.701106 7.88731803,152.867556 C8.11133333,153.034005 8.2309881,153.308423 8.19860034,153.585539 C8.05105612,154.856856 7.96918707,156.77148 8.51528061,158.268629 C9.4122415,160.732087 13.8538622,161.814461 13.8538622,161.814461 Z" id="Path" fill="#102B5E"></path>
            <path d="M61.6608878,150.222352 C60.7684252,152.391599 69.9053707,158.079686 71.6516105,158.079686 C73.3978503,158.079686 95.5123895,131.30645 96.0944694,125.777615 C96.6765493,120.24878 77.2771837,66.8129756 66.4137908,66.7023089 C55.8679779,66.5943415 50.3296718,76.0441951 52.7371616,85.3266992 C54.6075544,92.5362276 76.0158605,120.539393 78.0535901,121.994255 C78.0526905,121.994255 63.8218707,144.970634 61.6608878,150.222352 Z" id="Path" fill="#102B5E"></path>
            <path d="M109.479609,42.2575718 C107.250252,38.5497886 101.914369,31.4905149 101.914369,31.4905149 C92.1845476,35.7786233 50.921648,40.5894743 48.9810816,41.5593821 C47.041415,42.52929 48.9810816,49.5138862 48.9810816,49.5138862 C53.9427058,50.464 67.9198214,50.035729 79.6342925,49.4473062 C78.8560867,51.4528022 77.9294371,53.5959566 76.8894303,55.5285745 C73.7577143,61.3489214 62.7233861,63.8294743 59.5385901,66.9218428 C56.3537942,70.0142114 66.6584983,70.7276965 70.2967228,73.9910136 C72.9930034,76.4085854 76.0122619,84.3271003 78.9874371,83.7260813 C81.9626122,83.1241626 84.9575799,74.9132358 87.1392551,72.2338428 C94.4795799,63.2131599 105.223318,66.602439 109.480509,61.7564986 C112.904614,57.8561734 111.859209,46.2154797 109.479609,42.2575718 Z" id="Path" fill="#FFCB01"></path>
            <path d="M97.6751718,48.3496369 C97.6751718,48.3496369 83.6881599,58.7702981 74.1427687,59.0897019 C74.1427687,59.0897019 77.3293639,56.2060705 79.6351922,49.4473062 L97.6751718,48.3496369 Z" id="Path" fill="#F0B701"></path>
        </g>
    </g>
</svg>